<?xml version="1.0" encoding="utf-8"?>
<!-- Generator: Adobe Illustrator 19.0.0, SVG Export Plug-In . SVG Version: 6.00 Build 0)  -->
<svg version="1.1" id="Capa_1" xmlns="http://www.w3.org/2000/svg" xmlns:xlink="http://www.w3.org/1999/xlink" x="0px" y="0px"
	 viewBox="61 -15 141 51" style="enable-background:new 61 -15 141 51;" xml:space="preserve">
<style type="text/css">
	.st0{clip-path:url(#SVGID_2_);}
	.st1{clip-path:url(#SVGID_4_);fill:#04244d;}
	.st2{clip-path:url(#SVGID_6_);}
	.st3{clip-path:url(#SVGID_8_);enable-background:new    ;}
	.st4{clip-path:url(#SVGID_10_);}
	.st5{clip-path:url(#SVGID_12_);}
	.st6{clip-path:url(#SVGID_14_);fill:#04244d;}
	.st7{clip-path:url(#SVGID_16_);}
	.st8{clip-path:url(#SVGID_18_);fill:#FFFFFF;}
	.st9{clip-path:url(#SVGID_20_);}
	.st10{clip-path:url(#SVGID_22_);fill:#FFFFFF;}
	.st11{clip-path:url(#SVGID_24_);}
	.st12{clip-path:url(#SVGID_26_);fill:#FFFFFF;}
	.st13{clip-path:url(#SVGID_28_);}
	.st14{clip-path:url(#SVGID_30_);fill:#FFFFFF;}
	.st15{clip-path:url(#SVGID_32_);}
	.st16{clip-path:url(#SVGID_34_);fill:#FFFFFF;}
	.st17{clip-path:url(#SVGID_36_);}
	.st18{clip-path:url(#SVGID_38_);fill:#FFFFFF;}
	.st19{clip-path:url(#SVGID_40_);}
	.st20{clip-path:url(#SVGID_42_);fill:#FFFFFF;}
	.st21{clip-path:url(#SVGID_44_);}
	.st22{clip-path:url(#SVGID_46_);fill:#FFFFFF;}
</style>
<title>Page 1</title>
<desc>Created with Sketch.</desc>
<g>
	<g>
		<defs>
			<rect id="SVGID_1_" x="62.2" y="-14" width="139" height="50"/>
		</defs>
		<clipPath id="SVGID_2_">
			<use xlink:href="#SVGID_1_"  style="overflow:visible;"/>
		</clipPath>
		<g class="st0">
			<defs>
				<rect id="SVGID_3_" x="13.2" y="-61" width="1400" height="4993"/>
			</defs>
			<clipPath id="SVGID_4_">
				<use xlink:href="#SVGID_3_"  style="overflow:visible;"/>
			</clipPath>
			<rect x="57.2" y="-19" class="st1" width="149" height="60"/>
		</g>
	</g>
	<g>
		<defs>
			<rect id="SVGID_5_" x="61.2" y="-15" width="140.7" height="50.9"/>
		</defs>
		<clipPath id="SVGID_6_">
			<use xlink:href="#SVGID_5_"  style="overflow:visible;"/>
		</clipPath>
		<g class="st2">
			<defs>
				<rect id="SVGID_7_" x="13.2" y="-61" width="1400" height="4993"/>
			</defs>
			<clipPath id="SVGID_8_">
				<use xlink:href="#SVGID_7_"  style="overflow:visible;"/>
			</clipPath>
			<g class="st3">
				<g>
					<defs>
						<rect id="SVGID_9_" x="61.2" y="-15" width="141" height="51"/>
					</defs>
					<clipPath id="SVGID_10_">
						<use xlink:href="#SVGID_9_"  style="overflow:visible;"/>
					</clipPath>
					<g class="st4">
						<defs>
							<path id="SVGID_11_" d="M201.6-15h-140c-0.3,0-0.5,0.2-0.5,0.5v49.9c0,0.3,0.2,0.5,0.5,0.5h139.7c0.3,0,0.5-0.2,0.5-0.5
								v-50.2C201.8-14.9,201.7-15,201.6-15z M199.4-12.5v46c0,0.1,0,0.1-0.1,0.1H63.7c-0.1,0-0.1,0-0.1-0.1v-45.9
								c0-0.1,0-0.1,0.1-0.1H199.4z"/>
						</defs>
						<clipPath id="SVGID_12_">
							<use xlink:href="#SVGID_11_"  style="overflow:visible;"/>
						</clipPath>
						<g class="st5">
							<defs>
								<rect id="SVGID_13_" x="61.2" y="-15" width="141" height="51"/>
							</defs>
							<clipPath id="SVGID_14_">
								<use xlink:href="#SVGID_13_"  style="overflow:visible;"/>
							</clipPath>
							<rect x="56.2" y="-20" class="st6" width="150.7" height="60.9"/>
						</g>
					</g>
				</g>
			</g>
		</g>
	</g>
	<g>
		<defs>
			<path id="SVGID_15_" d="M81.7,17h1.4c0.2,0,0.4-0.1,0.5-0.3l1-2.4c0,0,0.1-0.1,0.1-0.1h6.1c0,0,0.1,0,0.1,0.1l1,2.4
				c0.1,0.2,0.3,0.3,0.5,0.3h1.4c0.2,0,0.3-0.1,0.4-0.2s0.1-0.3,0.1-0.4L89.2,4.3C89.1,4.1,88.9,4,88.7,4h-1.9
				c-0.2,0-0.4,0.1-0.4,0.3l-5.2,12.1c-0.1,0.1,0,0.3,0,0.4C81.3,16.9,81.5,17,81.7,17 M85.3,12.2l2.4-5.4c0-0.1,0.1-0.1,0.1-0.1h0
				c0,0,0.1,0,0.1,0.1l2.2,5.4c0,0,0,0.1,0,0.1c0,0,0,0-0.1,0h-4.6C85.4,12.3,85.3,12.3,85.3,12.2C85.3,12.3,85.3,12.2,85.3,12.2"/>
		</defs>
		<clipPath id="SVGID_16_">
			<use xlink:href="#SVGID_15_"  style="overflow:visible;"/>
		</clipPath>
		<g class="st7">
			<defs>
				<rect id="SVGID_17_" x="13.2" y="-61" width="1400" height="4993"/>
			</defs>
			<clipPath id="SVGID_18_">
				<use xlink:href="#SVGID_17_"  style="overflow:visible;"/>
			</clipPath>
			<rect x="76.2" y="-1" class="st8" width="23" height="23"/>
		</g>
	</g>
	<g>
		<defs>
			<path id="SVGID_19_" d="M96.7,17h1.4c0.3,0,0.5-0.2,0.5-0.5v-4.3c0-0.1,0-0.1,0.1-0.1h6.5c0.3,0,0.5-0.2,0.5-0.5v-1.1
				c0-0.3-0.2-0.5-0.5-0.5h-6.5c-0.1,0-0.1,0-0.1-0.1V6.1c0-0.1,0-0.1,0.1-0.1h7c0.3,0,0.5-0.2,0.5-0.5V4.4c0-0.3-0.2-0.5-0.5-0.5
				h-9c-0.3,0-0.5,0.2-0.5,0.5v12.1C96.2,16.7,96.4,17,96.7,17"/>
		</defs>
		<clipPath id="SVGID_20_">
			<use xlink:href="#SVGID_19_"  style="overflow:visible;"/>
		</clipPath>
		<g class="st9">
			<defs>
				<rect id="SVGID_21_" x="13.2" y="-61" width="1400" height="4993"/>
			</defs>
			<clipPath id="SVGID_22_">
				<use xlink:href="#SVGID_21_"  style="overflow:visible;"/>
			</clipPath>
			<rect x="91.2" y="-1" class="st10" width="20" height="23"/>
		</g>
	</g>
	<g>
		<defs>
			<path id="SVGID_23_" d="M107.7,6.3h3.8c0.1,0,0.1,0,0.1,0.1v10.1c0,0.3,0.2,0.5,0.5,0.5h1.5c0.3,0,0.5-0.2,0.5-0.5V6.4
				c0-0.1,0-0.1,0.1-0.1h3.5c0.3,0,0.5-0.2,0.5-0.5V4.4c0-0.3-0.2-0.5-0.5-0.5h-10c-0.3,0-0.5,0.2-0.5,0.5v1.4
				C107.2,6,107.4,6.3,107.7,6.3"/>
		</defs>
		<clipPath id="SVGID_24_">
			<use xlink:href="#SVGID_23_"  style="overflow:visible;"/>
		</clipPath>
		<g class="st11">
			<defs>
				<rect id="SVGID_25_" x="13.2" y="-61" width="1400" height="4993"/>
			</defs>
			<clipPath id="SVGID_26_">
				<use xlink:href="#SVGID_25_"  style="overflow:visible;"/>
			</clipPath>
			<rect x="102.2" y="-1" class="st12" width="21" height="23"/>
		</g>
	</g>
	<g>
		<defs>
			<path id="SVGID_27_" d="M120.7,17h10c0.3,0,0.5-0.2,0.5-0.5v-1.1c0-0.3-0.2-0.5-0.5-0.5h-8c-0.1,0-0.1,0-0.1-0.1v-3.4
				c0-0.1,0-0.1,0.1-0.1h6.5c0.3,0,0.5-0.2,0.5-0.5V9.7c0-0.3-0.2-0.5-0.5-0.5h-6.5c-0.1,0-0.1,0-0.1-0.1v-3c0-0.1,0-0.1,0.1-0.1h8
				c0.3,0,0.5-0.2,0.5-0.5V4.4c0-0.3-0.2-0.5-0.5-0.5h-10c-0.3,0-0.5,0.2-0.5,0.5v12.1C120.2,16.7,120.4,17,120.7,17"/>
		</defs>
		<clipPath id="SVGID_28_">
			<use xlink:href="#SVGID_27_"  style="overflow:visible;"/>
		</clipPath>
		<g class="st13">
			<defs>
				<rect id="SVGID_29_" x="13.2" y="-61" width="1400" height="4993"/>
			</defs>
			<clipPath id="SVGID_30_">
				<use xlink:href="#SVGID_29_"  style="overflow:visible;"/>
			</clipPath>
			<rect x="115.2" y="-1" class="st14" width="21" height="23"/>
		</g>
	</g>
	<g>
		<defs>
			<path id="SVGID_31_" d="M155.5,11l2.8,0.6c1.6,0.4,2.3,0.8,2.3,1.5c0,1-1.2,1.7-3.1,1.7c-1.8,0-3.3-0.6-3.9-0.9
				c-0.1-0.1-0.3-0.1-0.4,0c-0.1,0.1-0.3,0.2-0.3,0.3l-0.3,1.2c-0.1,0.2,0,0.4,0.3,0.5c1,0.5,2.8,1,4.7,1c3.4,0,5.8-1.6,5.8-3.9
				c0-1.7-1.2-2.8-3.9-3.4l-2.8-0.6c-1.2-0.3-1.7-0.7-1.7-1.4c0-0.9,1.2-1.5,3-1.5c1.3,0,2.8,0.3,3.9,0.8c0.1,0.1,0.3,0.1,0.4,0
				c0.1-0.1,0.3-0.2,0.3-0.3l0.4-1.2c0.1-0.2,0-0.5-0.3-0.5c-1-0.4-2.8-0.9-4.7-0.9c-2.6,0-5.7,1-5.7,3.8
				C152.2,9.4,153.3,10.5,155.5,11"/>
		</defs>
		<clipPath id="SVGID_32_">
			<use xlink:href="#SVGID_31_"  style="overflow:visible;"/>
		</clipPath>
		<g class="st15">
			<defs>
				<rect id="SVGID_33_" x="13.2" y="-61" width="1400" height="4993"/>
			</defs>
			<clipPath id="SVGID_34_">
				<use xlink:href="#SVGID_33_"  style="overflow:visible;"/>
			</clipPath>
			<rect x="147.2" y="-1" class="st16" width="21" height="23"/>
		</g>
	</g>
	<g>
		<defs>
			<path id="SVGID_35_" d="M165.6,17h1.2c0.2,0,0.4-0.2,0.4-0.5V4.4c0-0.3-0.2-0.5-0.4-0.5h-1.2c-0.2,0-0.4,0.2-0.4,0.5v12.1
				C165.2,16.7,165.4,17,165.6,17"/>
		</defs>
		<clipPath id="SVGID_36_">
			<use xlink:href="#SVGID_35_"  style="overflow:visible;"/>
		</clipPath>
		<g class="st17">
			<defs>
				<rect id="SVGID_37_" x="13.2" y="-61" width="1400" height="4993"/>
			</defs>
			<clipPath id="SVGID_38_">
				<use xlink:href="#SVGID_37_"  style="overflow:visible;"/>
			</clipPath>
			<rect x="160.2" y="-1" class="st18" width="12" height="23"/>
		</g>
	</g>
	<g>
		<defs>
			<path id="SVGID_39_" d="M169.4,17h2.2c0.2,0,0.3-0.1,0.4-0.2l3.7-4.6c0.1-0.1,0.1-0.1,0.2,0l3.7,4.6c0.1,0.1,0.2,0.2,0.4,0.2h2.2
				c0.1,0,0.2-0.1,0.2-0.2v-0.2c0,0,0-0.1,0-0.1l-4.8-6c0,0,0-0.1,0-0.1l4.8-6c0,0,0-0.1,0-0.1V4.1c0-0.1-0.1-0.2-0.2-0.2h-2.1
				c-0.2,0-0.3,0.1-0.4,0.2l-3.7,4.6c0,0-0.1,0-0.1,0c0,0-0.1,0-0.1,0l-3.7-4.6C171.8,4,171.7,4,171.5,4h-2.2
				c-0.1,0-0.2,0.1-0.2,0.2v0.1c0,0,0,0.1,0,0.1l4.8,6c0,0,0,0.1,0,0.1l-4.8,6c0,0,0,0.1,0,0.1v0.2C169.2,16.9,169.3,17,169.4,17"/>
		</defs>
		<clipPath id="SVGID_40_">
			<use xlink:href="#SVGID_39_"  style="overflow:visible;"/>
		</clipPath>
		<g class="st19">
			<defs>
				<rect id="SVGID_41_" x="13.2" y="-61" width="1400" height="4993"/>
			</defs>
			<clipPath id="SVGID_42_">
				<use xlink:href="#SVGID_41_"  style="overflow:visible;"/>
			</clipPath>
			<rect x="164.2" y="-1" class="st20" width="23" height="23"/>
		</g>
	</g>
	<g>
		<defs>
			<path id="SVGID_43_" d="M145.1,16.3l-4.3-4c0,0,0-0.1,0-0.1c2.1-0.5,3.4-2,3.4-4c0-2.7-1.9-4.2-5.2-4.2h-5.5
				c-0.3,0-0.5,0.2-0.5,0.5v12c0,0.3,0.2,0.5,0.5,0.5h1.4c0.3,0,0.5-0.2,0.5-0.5v-4.1c0,0,0-0.1,0.1-0.1h1.9c0.1,0,0.2,0,0.2,0.1
				l4.7,4.5c0,0,0.1,0,0.1,0.1c0,0,0.1,0,0.1,0h2.3c0.1,0,0.2-0.1,0.2-0.2v-0.3C145.2,16.4,145.1,16.4,145.1,16.3 M141.8,8.2
				c0,1.3-1,2.2-2.5,2.2h-3.7c0,0-0.1,0-0.1-0.1V6.1c0,0,0-0.1,0.1-0.1h3.7C140.9,6,141.8,6.8,141.8,8.2"/>
		</defs>
		<clipPath id="SVGID_44_">
			<use xlink:href="#SVGID_43_"  style="overflow:visible;"/>
		</clipPath>
		<g class="st21">
			<defs>
				<rect id="SVGID_45_" x="13.2" y="-61" width="1400" height="4993"/>
			</defs>
			<clipPath id="SVGID_46_">
				<use xlink:href="#SVGID_45_"  style="overflow:visible;"/>
			</clipPath>
			<rect x="128.2" y="-1" class="st22" width="22" height="23"/>
		</g>
	</g>
</g>
</svg>
