<svg id="Capa_1" data-name="Capa 1" xmlns="http://www.w3.org/2000/svg" viewBox="0 0 397.02 226.86"><defs><style>.cls-1{fill:#475e23;}.cls-2{fill:#95c11f;}</style></defs><title>armazones-valido</title><path class="cls-1" d="M103.74,410.34l-6.61-22.19L90.2,410.34h13.54Zm17.07,18.89H109.4l-3.15-9.68H87.44l-3.07,9.68H73l17.95-51.31a8.69,8.69,0,0,1,2.64-3.7,6.08,6.08,0,0,1,3.58-1,5.7,5.7,0,0,1,3.43.95,8,8,0,0,1,2.32,3.78Z" transform="translate(-71.78 -238.83)"/><path class="cls-1" d="M151.58,384.45l-2.83,10.07a7.12,7.12,0,0,0-2.68-.47q-3.94,0-9.68,3.38v31.79H126.16V384.29h7.63l2.36,3.93L147,383.74c0.52-.05,1.23-0.08,2.13-0.08a4.1,4.1,0,0,1,2.44.79" transform="translate(-71.78 -238.83)"/><path class="cls-1" d="M216.35,429.22H206.12V401.29q0-4.17-1-5.82a3.66,3.66,0,0,0-3.42-1.66l-9.21,3.86v31.55H182.27V401.29q0-7.47-5.19-7.48l-8.42,3.86v31.55H158.43V384.29h7.63l2.36,5.35,11.8-5.82q6.13,0,9.29,6l14.64-6q6.14,0,9.17,4.13t3,11.13v30.14Z" transform="translate(-71.78 -238.83)"/><path class="cls-1" d="M248.06,414.9V393.81h-7.79q-4.33,0-6,3.3T232.56,407q0,6.57,1.61,9.25t6.1,2.68Zm10.23,14.32h-6.84l-3.15-5.43-10.94,5.9q-9.13,0-12.28-6.61a24.38,24.38,0,0,1-2.16-7,49.8,49.8,0,0,1-.59-7.79q0-4,.08-6t0.39-4.48a21.78,21.78,0,0,1,.91-4.29A19.23,19.23,0,0,1,225.4,390a9.46,9.46,0,0,1,2.68-2.95,15.93,15.93,0,0,1,9.21-2.44h10.78l10.23-.63v45.25Z" transform="translate(-71.78 -238.83)"/><path class="cls-1" d="M297.8,429.22H273.32a9.83,9.83,0,0,1-6.18-1.69,5.69,5.69,0,0,1-2.16-4.76,10.77,10.77,0,0,1,2.6-6.45l18.73-23.21H267.58v-8.81h31v7.79l-22.35,28.33H297.8v8.81Z" transform="translate(-71.78 -238.83)"/><path class="cls-1" d="M331.32,408.92v-4.09q0-5.82-1.69-8.89t-7-3.07q-8.66,0-8.66,11.64v4.09q0,12.52,8.66,12.51,5.58,0,7.32-4.17a20.43,20.43,0,0,0,1.41-8m10.23-2.36q0,14.56-5.51,19.52-4.65,4.25-13.46,4.25-11.26,0-15.19-6.61-3.7-6.06-3.7-17.16,0-10.39,3.7-16.29,4.09-6.61,14.91-6.61t15,5.78q4.21,5.78,4.21,17.12" transform="translate(-71.78 -238.83)"/><path class="cls-1" d="M384.6,429.22H374.37V400.5q0-3.86-1.57-5.27a6.36,6.36,0,0,0-4.41-1.42l-9.21,3.86v31.55H349V384.29h7.63l2.36,5.35,12.59-5.82a12.55,12.55,0,0,1,9.17,3.89q3.89,3.9,3.89,11.37v30.14Z" transform="translate(-71.78 -238.83)"/><path class="cls-1" d="M402.54,402.15h16.84q0-5.2-2-7.55t-6-2.36a8.73,8.73,0,0,0-6.45,2.4q-2.4,2.4-2.4,7.52m26,7H402.31q0,6.14,1.93,9T412,421a6.54,6.54,0,0,0,5.59-2.4,7.73,7.73,0,0,0,1.81-4.6h9.21q0,8.42-4.53,12.36t-12,3.93q-7.44,0-11.53-2.12-8.42-4.32-8.42-23,0-11.1,4.8-16.25t14.64-5.15q17.07,0,17.07,19,0,2-.16,6.45" transform="translate(-71.78 -238.83)"/><path class="cls-1" d="M468.8,416.79V418a11.09,11.09,0,0,1-5,8.89,20,20,0,0,1-11.29,3q-10,0-14-3.62-3.7-3.3-3.7-9.76v-0.95h9.29q0,3.62,1.89,5c1.26,0.89,3.43,1.34,6.53,1.34q6.3,0,6.3-4.57,0-3.78-2.2-5a7.88,7.88,0,0,0-2.6-.95l-7.95-1.34q-10.39-1.66-10.39-13a11.61,11.61,0,0,1,4.61-9.8,18.76,18.76,0,0,1,11.68-3.5q16.13,0,16.13,13.93v1h-8.89c-0.11-2.47-.76-4.14-2-5a8.41,8.41,0,0,0-5.08-1.34,7.83,7.83,0,0,0-4.91,1.3,3.67,3.67,0,0,0-1.66,2.87q0,4.49,3.62,5.12l9.52,1.73q10.07,1.89,10.07,13.54" transform="translate(-71.78 -238.83)"/><path class="cls-2" d="M340.3,454.06a3.7,3.7,0,0,1,.59,2.5,3.78,3.78,0,0,1-.59,2.51,3.61,3.61,0,0,1-2.5.61,2.48,2.48,0,0,1-3.12-3.12,3.59,3.59,0,0,1,.61-2.5,3.76,3.76,0,0,1,2.52-.59,3.69,3.69,0,0,1,2.5.59" transform="translate(-71.78 -238.83)"/><path class="cls-2" d="M357.42,451.22l4.49,0c0,0.2-.05.57-0.07,1.1s0,0.9-.06,1.09,0,0.49-.09.89a5.23,5.23,0,0,1-.17.9l-0.25.74q-0.69,2-3.73,3.12a12.11,12.11,0,0,1-4.05.69,10.22,10.22,0,0,1-3.83-.69,7.33,7.33,0,0,1-2.71-1.75q-2.25-2.36-2.25-8.86t2.25-8.86a7.33,7.33,0,0,1,2.71-1.75,10.16,10.16,0,0,1,3.81-.69q4.11,0,6.25,2.06a7.56,7.56,0,0,1,2.13,5.71h-4.5a3.35,3.35,0,0,0-.84-2.5,4.46,4.46,0,0,0-3.11-.82c-1.51,0-2.51.47-3,1.41a9.36,9.36,0,0,0-.74,4.23v2q0,4.54,1.75,5.56a3.92,3.92,0,0,0,2.09.5,7.34,7.34,0,0,0,2.11-.25,2,2,0,0,0,1.18-.86,3.77,3.77,0,0,0,.48-1.2,11.94,11.94,0,0,0,.15-1.73" transform="translate(-71.78 -238.83)"/><path class="cls-2" d="M377.84,449.35v-2a9.05,9.05,0,0,0-.82-4.3q-0.82-1.49-3.41-1.49-4.19,0-4.19,5.64v2q0,6.06,4.19,6.06,2.71,0,3.54-2a9.86,9.86,0,0,0,.69-3.89m4.95-1.14q0,7-2.66,9.45-2.25,2.06-6.52,2.06-5.44,0-7.35-3.2-1.79-2.94-1.79-8.3a14.83,14.83,0,0,1,1.79-7.89q2-3.2,7.22-3.2t7.28,2.8q2,2.8,2,8.29" transform="translate(-71.78 -238.83)"/><path class="cls-2" d="M414.79,459.18h-5V445.65a5.93,5.93,0,0,0-.48-2.82,1.77,1.77,0,0,0-1.66-.8l-4.46,1.87v15.27h-5V445.65q0-3.62-2.51-3.62l-4.08,1.87v15.27h-4.95V437.43h3.69l1.14,2.59,5.71-2.82a4.85,4.85,0,0,1,4.5,2.89l7.08-2.89a5.14,5.14,0,0,1,4.44,2,8.9,8.9,0,0,1,1.47,5.39v14.59Z" transform="translate(-71.78 -238.83)"/><path class="cls-2" d="M425.36,454.06a3.68,3.68,0,0,1,.59,2.5,3.75,3.75,0,0,1-.59,2.51,3.6,3.6,0,0,1-2.5.61,2.48,2.48,0,0,1-3.12-3.12,3.57,3.57,0,0,1,.61-2.5,3.75,3.75,0,0,1,2.51-.59,3.68,3.68,0,0,1,2.5.59" transform="translate(-71.78 -238.83)"/><path class="cls-2" d="M443.78,448.47q0-6.44-4.11-6.44h-3.35v10.09l3.35,2.17a3.55,3.55,0,0,0,3.16-1.39,8,8,0,0,0,1-4.44m5-.76q0,8.5-4.38,10.86a9.2,9.2,0,0,1-4.38,1l-3.66-2.36v8.5h-5V437.58h9.75q4.42,0,6,2.5t1.6,7.64" transform="translate(-71.78 -238.83)"/><path class="cls-2" d="M468.57,437.43l-8.27,24.19a6.63,6.63,0,0,1-1.48,2.55,5.77,5.77,0,0,1-4.27,1.52h-2.32v-4.46h1.52a2.77,2.77,0,0,0,1.58-.36,2.92,2.92,0,0,0,.89-1.43l0.38-1.07-6.55-21h5.22l3.89,15.13,4.19-15.12h5.22Z" transform="translate(-71.78 -238.83)"/><path class="cls-2" d="M211.4,337.14a33.72,33.72,0,1,0-15.78-63.51v59.58a33.47,33.47,0,0,0,15.78,3.93" transform="translate(-71.78 -238.83)"/><path class="cls-2" d="M275.3,303.42a33.71,33.71,0,0,0,49.5,29.79V273.63a33.71,33.71,0,0,0-49.5,29.79" transform="translate(-71.78 -238.83)"/><path class="cls-2" d="M243.11,278.93a156.45,156.45,0,0,1,34.2,0,40,40,0,0,1,47.48-12.36V238.83H223.36a27.74,27.74,0,0,0-27.74,27.74,40,40,0,0,1,47.49,12.36" transform="translate(-71.78 -238.83)"/><path class="cls-2" d="M269,305.83a39.88,39.88,0,0,1,4.46-20.9,150.24,150.24,0,0,0-26.51,0,39.84,39.84,0,0,1,4.46,20.9,40.08,40.08,0,0,1-55.79,34.43V368H297.06a27.74,27.74,0,0,0,27.74-27.74A40.08,40.08,0,0,1,269,305.83" transform="translate(-71.78 -238.83)"/><path class="cls-1" d="M309,269.7a33.53,33.53,0,0,1,15.78,3.93v-7.05a40,40,0,0,0-47.49,12.36,156.17,156.17,0,0,0-34.2,0,40,40,0,0,0-47.49-12.36v7.06a33.72,33.72,0,1,1,0,59.58v7.06A40.06,40.06,0,0,0,247,284.94a150.24,150.24,0,0,1,26.51,0,40.07,40.07,0,0,0,51.33,55.33v-7.06A33.72,33.72,0,1,1,309,269.7" transform="translate(-71.78 -238.83)"/><path class="cls-1" d="M195.62,273.63v-7.06A40.31,40.31,0,0,0,180.44,278H169.22v7.47h6.36a40,40,0,0,0,20,54.82v-7.06a33.7,33.7,0,0,1,0-59.58" transform="translate(-71.78 -238.83)"/><path class="cls-1" d="M351.19,278H340a40.34,40.34,0,0,0-15.18-11.41v7.05a33.7,33.7,0,0,1,0,59.58v7.06a40.05,40.05,0,0,0,20-54.82h6.35V278Z" transform="translate(-71.78 -238.83)"/><path class="cls-2" d="M324.8,454.57h-253V449h253v5.54Z" transform="translate(-71.78 -238.83)"/></svg>