<svg id="Capa_1" data-name="Capa 1" xmlns="http://www.w3.org/2000/svg" viewBox="0 0 453.05 97.11"><defs><style>.cls-1{fill:#e0040b;}.cls-2{fill:#094188;}.cls-3{fill:#fefdfc;}.cls-4{fill:#fffefe;}.cls-5{fill:#fdf8f8;}</style></defs><title>logo</title><path id="_Trazado_compuesto_" data-name="&lt;Trazado compuesto&gt;" class="cls-1" d="M136.84,581.85c-14.58,0-29.16-.08-43.73,0-4.69,0-8-1.95-9.93-6s-1.34-8.25,1.52-11.8c10.82-13.42,21.73-26.78,32.6-40.16,2.59-3.2,6.13-6.07,7.46-9.73s0.35-8,.37-12c0-2.75-.12-5.5.07-8.24,0.13-1.82-.54-2.62-2.22-3a27.32,27.32,0,0,1-3.46-1.16,1.7,1.7,0,0,1-1.29-1.92c0.15-1,.92-1.25,1.86-1.25q16.6,0,33.2,0c0.93,0,1.72.17,1.93,1.18a1.72,1.72,0,0,1-1.2,2c-0.21.1-.43,0.14-0.65,0.23-1.63.62-4,.8-4.7,2-0.85,1.42-.33,3.69-0.34,5.59,0,5,0,9.92,0,14.88a5.06,5.06,0,0,0,1.25,3.51q19.64,24,39.2,48.07a11.36,11.36,0,0,1-2.37,16.36,8.27,8.27,0,0,1-4.9,1.54c-14.88-.06-29.77,0-44.65,0v-0.08Zm-21.37-24.94q9.14-1.65,9.56-8.88a9.14,9.14,0,0,0-6.47-9.2,9,9,0,0,0-10.48,4,8.94,8.94,0,0,0-1,7.25c0.72,2.63,2.58,4.33,4.87,5.94-5.78.45-9.37,3.46-9.84,8a9.13,9.13,0,0,0,17.21,5.3C121.54,565,120.14,560.49,115.47,556.91Zm30,12.28a10.89,10.89,0,0,0-.16-21.79A10.89,10.89,0,1,0,145.45,569.18Zm2.13-40.06c-4.44,0-8.18,3.38-8.2,7.48s3.68,7.57,8.13,7.57,8.13-3.48,8.07-7.61S151.9,529.15,147.57,529.13Zm27.53,33.4a5.74,5.74,0,0,0-5.87-5.69,5.88,5.88,0,0,0-5.62,5.76,5.76,5.76,0,0,0,5.82,5.74A5.59,5.59,0,0,0,175.11,562.52Zm-43-27.74a5.39,5.39,0,0,0-10.78-.21A5.39,5.39,0,1,0,132.14,534.79Zm2.58-17.86a4.54,4.54,0,1,0,4.5,4.48A4.52,4.52,0,0,0,134.73,516.92Z" transform="translate(-82.02 -484.86)"/><path id="_Trazado_" data-name="&lt;Trazado&gt;" class="cls-2" d="M249.67,485.77c0,6.92.05,13.24,0,19.56,0,1.55.31,2.08,2,2.06,8.24-.11,16.49-0.12,24.73-0.07,1.49,0,1.94-.4,1.92-1.91-0.08-5.88,0-11.76-.07-17.63,0-1.53.29-2.12,2-2.1q10.53,0.15,21.07,0c1.69,0,2,.57,2,2.09q-0.07,29.77,0,59.54c0,1.71-.43,2.18-2.15,2.16-6.94-.1-13.89-0.09-20.84,0-1.62,0-2.05-.46-2-2.05,0.09-6.33,0-12.67.08-19,0-1.93-.35-2.62-2.46-2.58-7.86.15-15.72,0.13-23.58,0.05-1.73,0-2.36.35-2.34,2.23,0.08,6.33-.1,12.67,0,19,0,1.73-.48,2.19-2.19,2.17-6.56-.1-13.13-0.09-19.69,0-1.59,0-2.07-.44-2.06-2.05,0-13.43,0-26.87,0-40.3a2.24,2.24,0,0,1,.65-2.06C234.09,498.65,241.65,492.39,249.67,485.77Z" transform="translate(-82.02 -484.86)"/><path id="_Trazado_compuesto_2" data-name="&lt;Trazado compuesto&gt;" class="cls-2" d="M495.48,549.54c-11.73,0-22.27-3.33-30.82-11.64-13.75-13.37-12.35-33.43,3.11-44.85,9.57-7.07,20.55-8.83,32.11-8a44.41,44.41,0,0,1,17.31,4.67c12.06,6.19,19,18,17.75,30.24-1.37,13.57-10.21,23.71-24.09,27.58a57.28,57.28,0,0,1-6,1.33A54.09,54.09,0,0,1,495.48,549.54Zm0.44-47c-5.69,0-10.23,1.11-14.31,3.77-8.55,5.57-8.56,16.59,0,22.18,7.28,4.78,20.24,4.72,27.43-.12,7-4.74,8-13.69,2-19.68A20.94,20.94,0,0,0,495.91,502.5Z" transform="translate(-82.02 -484.86)"/><path id="_Trazado_2" data-name="&lt;Trazado&gt;" class="cls-2" d="M328.63,538.94c5.48-4.12,11-8.23,16.41-12.37a3.55,3.55,0,0,1,2.37-.58c4.12,0,8.24,0,12.36,0,1.17,0,1.82-.15,1.79-1.58-0.08-4.42,0-8.84,0-13.86l-54,39c0-7,0-13.58,0-20.11,0-1.14.82-1.55,1.48-2.13,12.41-10.86,25.77-20.51,38.86-30.51,4.24-3.24,8.43-6.55,12.61-9.87a4.31,4.31,0,0,1,2.88-1.09c6.71,0,13.43.06,20.14,0,1.48,0,1.95.38,1.95,1.92q-0.08,30,0,60c0,1.38-.33,1.83-1.78,1.82q-10.18-.11-20.37,0c-1.49,0-1.79-.55-1.74-1.88,0.09-2.13-.08-4.28.06-6.41,0.1-1.58-.53-1.89-2-1.88-9.84.05-19.68,0-29.53,0h-1.31Z" transform="translate(-82.02 -484.86)"/><path id="_Trazado_3" data-name="&lt;Trazado&gt;" class="cls-2" d="M469.29,485.85c-7.54,5.58-14.6,10.78-21.62,16a4.53,4.53,0,0,1-3,.66c-5.88-.06-11.75-0.07-17.48,1.55a28.39,28.39,0,0,0-9.89,4.59c-6.17,4.77-6.2,12.65.08,17.28s13.7,6.11,21.34,6.43c1.82,0.08,2.48.41,2.4,2.38-0.17,4.34-.08,8.7-0.05,13,0,1.12,0,1.87-1.58,1.73-11.92-1.06-23.53-3.31-34.3-8.8a35.7,35.7,0,0,1-11-8.41c-9-10.39-7.43-25.48,3.51-34.3,7.76-6.25,16.92-9.25,26.56-10.9,11-1.88,22.08-.82,33.11-1.27C461.1,485.72,464.89,485.85,469.29,485.85Z" transform="translate(-82.02 -484.86)"/><path id="_Trazado_4" data-name="&lt;Trazado&gt;" class="cls-2" d="M243,486c-5.53,4.09-11.17,7.87-16.32,12.21a17.48,17.48,0,0,1-12.91,4.23,37.65,37.65,0,0,0-18.83,3.91c-4.47,2.26-8,5.29-8.08,10.92,0,3.89,1.93,6.65,4.92,8.8,5,3.6,10.84,5.07,16.86,5.89a15.83,15.83,0,0,0,3.87.32c2.37-.28,2.71.8,2.63,2.86-0.16,4.19-.06,8.39-0.06,12.59,0,0.93.15,1.85-1.35,1.7-14.07-1.36-27.82-3.86-39.76-12.09-9.84-6.78-13.72-17.53-10.38-27.93,1.94-6,6-10.38,11.2-13.7,10.16-6.49,21.45-9.4,33.38-9.64C219.63,485.84,231.15,486,243,486Z" transform="translate(-82.02 -484.86)"/><path id="_Trazado_5" data-name="&lt;Trazado&gt;" class="cls-2" d="M280.42,571.15c0-3.35,0-6.69,0-10,0-1.25.3-1.73,1.64-1.74s1.65,0.46,1.64,1.72c-0.06,5.1,0,10.21-.06,15.31,0,0.77.68,2.06-.68,2.27s-2.74.45-3.61-1.39c-1.45-3.09-3.24-6-4.89-9a2.13,2.13,0,0,0-1.1-1.05c0,3.21,0,6.43,0,9.64,0,1.21,0,2-1.65,2s-1.69-.7-1.68-1.93c0-5.1,0-10.21,0-15.31,0-.72-0.55-1.93.69-2.06s2.52-.59,3.35,1.06c1.63,3.26,3.46,6.43,5.21,9.63,0.2,0.37.45,0.73,0.67,1.09Z" transform="translate(-82.02 -484.86)"/><path id="_Trazado_6" data-name="&lt;Trazado&gt;" class="cls-2" d="M208,567.14c0,3.32-.06,6.65,0,10,0,1.29-.35,1.68-1.66,1.69s-1.63-.5-1.62-1.74c0.06-5.19,0-10.37.05-15.56,0-.7-0.61-1.91.74-2,1.18-.09,2.51-0.54,3.33,1.1,1.7,3.4,3.6,6.71,5.43,10.05,0.17,0.31.39,0.58,0.92,1.36,0-3.87,0-7.18,0-10.49,0-1.18-.19-2.17,1.67-2.14s1.56,1.17,1.56,2.26c0,5,0,10.07,0,15.1,0,0.69.61,1.93-.77,2-1.17,0-2.53.62-3.37-1-1.69-3.33-3.56-6.56-5.36-9.83-0.14-.26-0.32-0.5-0.48-0.76Z" transform="translate(-82.02 -484.86)"/><path id="_Trazado_7" data-name="&lt;Trazado&gt;" class="cls-2" d="M357.7,571.46c0-3.34,0-6.66,0-10,0-1.2-.15-2.19,1.69-2.13,1.69,0.05,1.56.94,1.55,2.05,0,5,0,10.07,0,15.11,0,0.74.72,2.06-.8,2.18-1.26.1-2.61,0.49-3.47-1.27a78.76,78.76,0,0,0-6.14-10.37c0,3.21,0,6.41,0,9.62,0,1.16.23,2.17-1.65,2.15s-1.57-1.15-1.57-2.23c0-5,0-10.07,0-15.11,0-.69-0.62-1.9.75-2,1.19-.08,2.51-0.52,3.33,1.12,1.7,3.41,3.6,6.71,5.42,10.06A1.07,1.07,0,0,0,357.7,571.46Z" transform="translate(-82.02 -484.86)"/><path id="_Trazado_compuesto_3" data-name="&lt;Trazado compuesto&gt;" class="cls-2" d="M327.94,569c0-5.33,2.2-8.74,6.18-9.73a8.46,8.46,0,0,1,4.5.1c4.86,1.43,7.24,7.49,5.39,13.79a8,8,0,0,1-10.2,5.56C330,577.69,327.91,574.25,327.94,569Zm3.6,0.09a10.48,10.48,0,0,0,.52,3.48,4.27,4.27,0,0,0,4.33,3.06c2.1-.06,3.31-1.28,4-3.16a9.83,9.83,0,0,0,.47-3.61c0-4.13-1.64-6.38-4.6-6.42S331.56,564.78,331.54,569.12Z" transform="translate(-82.02 -484.86)"/><path id="_Trazado_compuesto_4" data-name="&lt;Trazado compuesto&gt;" class="cls-2" d="M262.53,570.25c2.6,2.39,3.9,5.38,5.43,8.27-2.62.68-4.48,0.2-5.56-2.42A29.13,29.13,0,0,0,259.9,572a2.68,2.68,0,0,0-3-1.22c-1.33.28-.66,1.5-0.72,2.3a23,23,0,0,0,0,3.88c0.12,1.4-.34,1.84-1.77,1.81s-1.68-.39-1.67-1.69q0.1-8,0-16c0-1.25.29-1.77,1.64-1.71,2.2,0.11,4.42,0,6.63.06,3.47,0.08,5.19,1.38,5.62,4.15C267.15,566.93,266,568.87,262.53,570.25Zm-3.35-7.49c-2.91-.09-3.85,1.23-3,4.09a0.89,0.89,0,0,0,.94.77,17.54,17.54,0,0,0,4.54-.26,2.1,2.1,0,0,0,1.53-2.47,2,2,0,0,0-1.72-2.11A14.17,14.17,0,0,0,259.17,562.76Z" transform="translate(-82.02 -484.86)"/><path id="_Trazado_8" data-name="&lt;Trazado&gt;" class="cls-2" d="M409,579.13c-3.63,0-6-1.71-6.76-4.93-0.14-.59-0.92-1.69.41-1.78,0.93-.06,2.17-1,2.89.72,1,2.33,2.56,3,4.67,2.45a2.53,2.53,0,0,0,2.07-2.16c0.19-1.32-.67-2-1.74-2.35-1.5-.54-3.07-0.92-4.54-1.53a5.18,5.18,0,0,1-3.42-5.81c0.29-2.48,1.94-4.09,4.68-4.59,3.4-.63,6.5.7,7.52,3.33,0.29,0.75,1.05,2,0,2.34s-2.51,1-3.29-.82c-0.84-2-2.52-1.93-4.26-1.41a1.64,1.64,0,0,0-.24,3.18c1.27,0.51,2.58.91,3.88,1.34,3.78,1.25,5.43,3.58,4.88,6.88S412.78,579.14,409,579.13Z" transform="translate(-82.02 -484.86)"/><path id="_Trazado_9" data-name="&lt;Trazado&gt;" class="cls-2" d="M236.79,569.13c0-2.67.05-5.34,0-8,0-1.22.21-1.78,1.6-1.73q4.8,0.15,9.6,0c1.46,0,1.53.68,1.57,1.81s-0.49,1.54-1.62,1.5c-2.13-.07-4.27.05-6.4,0-1.67-.07-1.39,1-1.32,2s-0.61,2.31,1.27,2.28,4,0.07,5.94,0c1.39-.07,1.38.71,1.41,1.72s-0.14,1.74-1.46,1.66-2.91.13-4.34-.05c-2.31-.29-3,0.5-2.94,2.86,0,2.06.61,2.65,2.58,2.46,1.81-.17,3.66,0,5.48-0.06,1.34-.08,1.68.42,1.65,1.69,0,1.12-.24,1.63-1.51,1.6q-5-.12-10.06,0c-1.31,0-1.48-.55-1.46-1.63C236.82,574.47,236.79,571.8,236.79,569.13Z" transform="translate(-82.02 -484.86)"/><path id="_Trazado_compuesto_5" data-name="&lt;Trazado compuesto&gt;" class="cls-2" d="M362.87,578.53c2.09-6,4.22-12,6.24-18.09,0.44-1.31,1.34-1,2.19-1s1.77-.35,2.22,1c2,5.75,4.06,11.46,6.09,17.19,0.14,0.4.4,1.06-.24,1.08-1.08,0-2.25.53-3.24-.35a1.74,1.74,0,0,1-.17-0.42c-0.63-1.1-.33-3-1.63-3.32-1.72-.44-3.62-0.14-5.45-0.18-1.17,0-1.38.86-1.49,1.66C367,578.83,365.31,579.19,362.87,578.53Zm8.4-14.51c-0.73,2.21-1.3,3.92-1.85,5.64-0.15.46-.53,1.2,0.23,1.3a6.14,6.14,0,0,0,3.33-.1c1-.5,0-1.59-0.21-2.37C372.44,567.11,371.88,565.79,371.27,564Z" transform="translate(-82.02 -484.86)"/><path id="_Trazado_compuesto_6" data-name="&lt;Trazado compuesto&gt;" class="cls-2" d="M429.42,578.71c1.27-3.72,2.46-7.22,3.67-10.73,0.84-2.45,1.74-4.87,2.52-7.34a1.48,1.48,0,0,1,1.85-1.21c0.89,0.14,2.1-.54,2.58.8,2.17,6.07,4.3,12.16,6.45,18.25-2.53.71-4.23,0.36-4.59-2.43a1.74,1.74,0,0,0-2.21-1.68,8.51,8.51,0,0,1-2.28,0c-2.12-.3-3.46.32-3.78,2.65C433.25,579.69,431.22,578.54,429.42,578.71Zm6.24-7.9A9.34,9.34,0,0,0,439,571c0.43,0,1.1,0,.93-0.64a23.45,23.45,0,0,0-2.17-6.06Z" transform="translate(-82.02 -484.86)"/><path id="_Trazado_compuesto_7" data-name="&lt;Trazado compuesto&gt;" class="cls-2" d="M302.73,578.54c-2.62.7-4.31,0.17-4.68-2.66a1.65,1.65,0,0,0-2.1-1.51,8.2,8.2,0,0,1-2.28,0c-2.28-.38-3.52.44-3.92,2.8-0.24,1.42-2.34,2.18-3.55,1.53-0.59-.32-0.34-0.76-0.2-1.15,1.95-5.68,3.93-11.34,5.85-17a1.53,1.53,0,0,1,1.93-1.09c0.9,0.11,2-.46,2.51.91Q299.49,569.44,302.73,578.54Zm-8.4-13.81-0.48-.06-2,6.14c4.72,0.73,4.72.73,3.31-3.51Z" transform="translate(-82.02 -484.86)"/><path id="_Trazado_10" data-name="&lt;Trazado&gt;" class="cls-2" d="M304.08,569.61c0-6,2.27-9.48,6.33-10.38a6.74,6.74,0,0,1,7.93,3.85c0.23,0.57,1.14,1.52-.17,1.82-0.94.22-2.16,1.49-3-.16a3.47,3.47,0,0,0-4.28-2.12c-2,.46-2.79,2-3.06,3.84a13.76,13.76,0,0,0,.29,6.34,3.66,3.66,0,0,0,3.44,2.86,3.15,3.15,0,0,0,3.46-2.41c0.54-2,1.62-1.18,2.74-.87,1.61,0.46.9,1.45,0.55,2.32A6.53,6.53,0,0,1,312,579.1a7.16,7.16,0,0,1-6.8-4.22A10.42,10.42,0,0,1,304.08,569.61Z" transform="translate(-82.02 -484.86)"/><path id="_Trazado_11" data-name="&lt;Trazado&gt;" class="cls-2" d="M225.92,570.71a41.15,41.15,0,0,1,0-5.25c0.31-2.39-.62-3.14-2.86-2.76-1.68.29-2.55-.23-2.3-2.16a1.06,1.06,0,0,1,1.3-1.12c3.73,0,7.47.05,11.2,0,1.54,0,1.15,1,1.24,1.84,0.1,1-.22,1.44-1.36,1.49-3.71.16-3.71,0.22-3.71,3.87,0,3.51-.06,7,0,10.52,0,1.33-.42,1.69-1.69,1.66s-2-.07-1.93-1.68C226,575,225.92,572.84,225.92,570.71Z" transform="translate(-82.02 -484.86)"/><path id="_Trazado_12" data-name="&lt;Trazado&gt;" class="cls-2" d="M382,569.11c0-2.66.07-5.33,0-8-0.05-1.4.55-1.59,1.75-1.61s1.71,0.4,1.68,1.69c-0.07,4.19,0,8.37-.06,12.56,0,1.43.45,1.85,1.82,1.77,1.74-.11,3.51.06,5.25-0.05,1.37-.09,1.64.47,1.62,1.7s-0.25,1.62-1.51,1.59c-3-.09-6.09-0.07-9.13,0a1.16,1.16,0,0,1-1.42-1.43C382,574.59,382,571.85,382,569.11Z" transform="translate(-82.02 -484.86)"/><path id="_Trazado_13" data-name="&lt;Trazado&gt;" class="cls-2" d="M201.55,569.27c0,2.66-.08,5.33,0,8,0.06,1.5-.7,1.52-1.81,1.53s-1.84-.06-1.82-1.54q0.12-8.21,0-16.42c0-1.62,1-1.36,1.94-1.41s1.72,0.07,1.68,1.42C201.48,563.64,201.55,566.46,201.55,569.27Z" transform="translate(-82.02 -484.86)"/><path id="_Trazado_14" data-name="&lt;Trazado&gt;" class="cls-2" d="M325.28,569.33c0,2.67-.07,5.34,0,8,0.05,1.37-.64,1.45-1.67,1.41s-1.79.14-1.78-1.32q0.09-8.35,0-16.71c0-1.49.9-1.24,1.81-1.3,1.08-.07,1.68.13,1.64,1.45C325.22,563.69,325.28,566.51,325.28,569.33Z" transform="translate(-82.02 -484.86)"/><path id="_Trazado_15" data-name="&lt;Trazado&gt;" class="cls-2" d="M421.87,576.82c0.3,1.45-.14,1.94-1.6,2-1.65,0-1.57-.79-1.61-1.94s0.17-1.89,1.69-1.85S422.22,575.63,421.87,576.82Z" transform="translate(-82.02 -484.86)"/><path id="_Trazado_16" data-name="&lt;Trazado&gt;" class="cls-2" d="M451.62,576.79c0.27,1.41-.06,2-1.57,2s-1.63-.71-1.65-1.92,0.12-1.93,1.68-1.88S452,575.57,451.62,576.79Z" transform="translate(-82.02 -484.86)"/><path id="_Trazado_17" data-name="&lt;Trazado&gt;" class="cls-3" d="M115.47,556.91c4.67,3.58,6.07,8.06,3.9,12.43a9.13,9.13,0,0,1-17.21-5.3c0.47-4.56,4.05-7.57,9.84-8-2.3-1.61-4.15-3.31-4.87-5.94a8.94,8.94,0,0,1,1-7.25,9,9,0,0,1,10.48-4A9.14,9.14,0,0,1,125,548Q124.61,555.27,115.47,556.91Z" transform="translate(-82.02 -484.86)"/><path id="_Trazado_18" data-name="&lt;Trazado&gt;" class="cls-4" d="M145.45,569.18a10.89,10.89,0,1,1-.16-21.79A10.89,10.89,0,0,1,145.45,569.18Z" transform="translate(-82.02 -484.86)"/><path id="_Trazado_19" data-name="&lt;Trazado&gt;" class="cls-3" d="M147.57,529.13c4.33,0,7.95,3.39,8,7.44s-3.64,7.61-8.07,7.61-8.16-3.45-8.13-7.57S143.13,529.1,147.57,529.13Z" transform="translate(-82.02 -484.86)"/><path id="_Trazado_20" data-name="&lt;Trazado&gt;" class="cls-5" d="M175.11,562.52a5.59,5.59,0,0,1-5.67,5.82,5.76,5.76,0,0,1-5.82-5.74,5.88,5.88,0,0,1,5.62-5.76A5.74,5.74,0,0,1,175.11,562.52Z" transform="translate(-82.02 -484.86)"/><path id="_Trazado_21" data-name="&lt;Trazado&gt;" class="cls-5" d="M132.14,534.79a5.39,5.39,0,1,1-10.78-.21A5.39,5.39,0,0,1,132.14,534.79Z" transform="translate(-82.02 -484.86)"/><path id="_Trazado_22" data-name="&lt;Trazado&gt;" class="cls-5" d="M134.73,516.92a4.52,4.52,0,0,1,4.5,4.48A4.52,4.52,0,1,1,134.73,516.92Z" transform="translate(-82.02 -484.86)"/></svg>