<svg id="Capa_1" data-name="Capa 1" xmlns="http://www.w3.org/2000/svg" viewBox="0 0 517.44 268.69"><defs><style>.cls-1{fill:#2b3278;}.cls-2{fill:#1d9eda;}.cls-3{fill:#1e4f9b;}.cls-4{fill:#105ca7;}.cls-5{fill:#1a8dce;}.cls-6{fill:#1585c7;}.cls-7{fill:#1457a2;}.cls-8{fill:#1b96d4;}.cls-9{fill:#1a9ad7;}.cls-10{fill:#1c93d2;}.cls-11{fill:#167cc1;}.cls-12{fill:#176bb3;}.cls-13{fill:#178acb;}.cls-14{fill:#1778bd;}.cls-15{fill:#1580c4;}.cls-16{fill:#1673ba;}.cls-17{fill:#146fb7;}.cls-18{fill:#1866b0;}.cls-19{fill:#1862ac;}.cls-20{fill:#0961ab;}.cls-21{fill:#1a5ea8;}.cls-22{fill:#1c55a0;}.cls-23{fill:#6268ae;}.cls-24{fill:#1b5aa5;}.cls-25{fill:#5d63aa;}.cls-26{fill:#6a6fb3;}.cls-27{fill:#353d91;}.cls-28{fill:#686db1;}.cls-29{fill:#3b4395;}.cls-30{fill:#7276b7;}.cls-31{fill:#0769b2;}.cls-32{fill:#303a8f;}.cls-33{fill:#6c71b4;}.cls-34{fill:#096fb7;}.cls-35{fill:#1285c7;}.cls-36{fill:#484f9d;}.cls-37{fill:#394093;}.cls-38{fill:#0e78be;}.cls-39{fill:#107ec2;}.cls-40{fill:#1a99d6;}.cls-41{fill:#6b70b3;}.cls-42{fill:#5e64ab;}.cls-43{fill:#5e63ab;}.cls-44{fill:#5056a2;}.cls-45{fill:#595fa8;}.cls-46{fill:#0c72ba;}.cls-47{fill:#7478b8;}.cls-48{fill:#188ece;}.cls-49{fill:#565ba5;}.cls-50{fill:#5157a3;}.cls-51{fill:#414898;}.cls-52{fill:#424999;}.cls-53{fill:#4d53a0;}.cls-54{fill:#0865af;}.cls-55{fill:#3d4496;}.cls-56{fill:#2c3379;}.cls-57{fill:#2d3379;}.cls-58{fill:#5a5fa8;}.cls-59{fill:#2d347a;}.cls-60{fill:#28358b;}.cls-61{fill:#343881;}.cls-62{fill:#29348b;}.cls-63{fill:#2a368c;}.cls-64{fill:#2b3281;}.cls-65{fill:#565ca6;}.cls-66{fill:#6d71b4;}.cls-67{fill:#7f83bf;}.cls-68{fill:#9295c9;}.cls-69{fill:#a4a7d3;}.cls-70{fill:#b5b7db;}.cls-71{fill:#2d368a;}.cls-72{fill:#8386c1;}.cls-73{fill:#6d71b3;}.cls-74{fill:#4c529f;}.cls-75{fill:#9b9ece;}.cls-76{fill:#bbbdde;}.cls-77{fill:#aeb0d8;}.cls-78{fill:#3f4697;}</style></defs><title>logo-origin</title><path class="cls-1" d="M-212,100.47a5.51,5.51,0,0,0-4-3.56,125.19,125.19,0,0,0-41.5-4.61,2.46,2.46,0,0,1-2.09-.48,111.94,111.94,0,0,0-67.2-29.73c-1-.09-2.13.12-3.11-0.41h-0.24c-0.41.5-.95,0.14-1.42,0.21l-1.44,0c-0.81-.07-1.65.26-2.42-0.22h-1.44c-0.86.49-1.78,0.15-2.68,0.21h-3.34a111.54,111.54,0,0,0-20,3,112.4,112.4,0,0,0-82.52,82.61c-0.65,2.66-.65,2.66,1.78,3.89a2.15,2.15,0,0,0,.4.1c5.41-24.12,17.19-44.49,36.06-60.52s40.71-24.84,65.43-26c26.91-1.28,51.25,6.3,72.56,22.82s34.48,38.33,40.3,64.79c0.67-.86,1.17-1.58,1.75-2.24a1.92,1.92,0,0,0,.43-1.95c-0.83-3.29-1.7-6.57-2.81-9.77-0.9-2.58-1.86-5.14-2.82-7.79a62.73,62.73,0,0,1,14,2.75,0.94,0.94,0,0,0,1.43-.6c2.95-6.58,5.33-13.34,6.11-20.56A24.19,24.19,0,0,0-212,100.47Z" transform="translate(594.55 -61.67)"/><path class="cls-1" d="M-347.34,220l60.69-38.1c0.27,1.7,1.27,3,1.61,4.61a1.58,1.58,0,0,1-.72,2.06c-1.9,1.19-2.59,3.31-3,5.4a3.31,3.31,0,0,1-1.85,2.32,4.91,4.91,0,0,0-1.45,1.18A20.38,20.38,0,0,0-296.78,208c-0.76,6.66,3.26,11.4,10,11.79a8,8,0,0,0,3.86-.45,11.1,11.1,0,0,1,4.28-1c1.93,0,3.54,1.84,2.85,3.61a4.1,4.1,0,0,0,0,2.14c0.09,1.11.32,2.21,0.52,3.31,0.28,1.53-.45,2.76-1,4.13-0.88,2.28-2.67,4.21-2.7,6.82,0,0.67-.57,1.22-0.37,1.93,0.06,0.22,0,.5.3,0.57a0.64,0.64,0,0,0,.66-0.17c3.57-4.09,7.64-7.71,11.1-11.92,6.86-8.36,12.62-17.33,15.92-27.8l1.15,6.21c0,0.08,0,.16,0,0.24a6.83,6.83,0,0,0,.51,2.32c0.48,0.74,1.37-.29,2.06.09-19.81,53.67-92.28,81.48-147.07,39.89,2.86-1.81,5.69-3.61,8.52-5.39l17.9-11.22c0.6-.37,1.25-1,1.47.35a0.77,0.77,0,0,0,.33.33c1.61,1.22,2.41,3.07,3.62,4.6a14.53,14.53,0,0,0,5.94,4.55,3,3,0,0,1,1.93,3,31.87,31.87,0,0,1,0,3.83c-0.32,2.1.27,4.29-.68,6.34a1.26,1.26,0,0,0,.43,1.77c0.6,0.41.26,1.36,0.24,2,0,0.9.2,1.34,1.19,1.19a2.19,2.19,0,0,1,2,.57c0.46,0.45,1.93,0,2.29-.52a8.48,8.48,0,0,1,4.6-3.64c1.37-.44,2.75-0.82,4.13-1.23a7.38,7.38,0,0,0,3.48-2c0.66-.72,1.63-1,2.31-1.8a9.43,9.43,0,0,0,1.52-2.22,1.33,1.33,0,0,1,.88-0.73c1.28-.44,2.53-1,3.82-1.38a11.3,11.3,0,0,0,4.5-3.26,2.83,2.83,0,0,0,.45-1.87,4.91,4.91,0,0,1,2-4.24c0.85-.66,1.58-1.48,2.45-2.12a1.17,1.17,0,0,0,.37-1.63,6,6,0,0,0-3-2.94,22.59,22.59,0,0,0-7.55-2.19c-1.62-.22-3.26-0.35-4.89-0.45-0.57,0-.76-0.19-0.74-0.76,0.13-2.71-1.26-4.4-3.62-5.51a66.6,66.6,0,0,0-6.8-2.63Z" transform="translate(594.55 -61.67)"/><path class="cls-1" d="M-463,236.85a15.62,15.62,0,0,1-2.91-3.11,268.74,268.74,0,0,1-18.23-28c-1.31-2.24-2.5-4.55-3.81-6.78a20.33,20.33,0,0,1-2.35-12.63,86.09,86.09,0,0,1,16-41.87,20.57,20.57,0,0,1,3.68-3.93,0.94,0.94,0,0,1,1.26-.14q16.9,9.5,33.82,19a0.55,0.55,0,0,1,.1.14c-5.63,2-8.78,6.68-11.69,11.46-5.36,8.78-8.88,18.35-11.77,28.17a124.3,124.3,0,0,0-4.73,23.55c-0.43,4.59-.6,9.18.64,13.7A2.3,2.3,0,0,1-463,236.85Z" transform="translate(594.55 -61.67)"/><path class="cls-1" d="M-444.15,205.39a115.81,115.81,0,0,1-4.21-23.78,5.66,5.66,0,0,1,.69-3.43c0.69-1.19,1.29-2.42,2.08-3.92,0.1,2.15.17,4,.27,5.78a107.2,107.2,0,0,0,22.26,60.4c16.47,21.56,38.16,35.11,64.64,40.76,54.27,11.58,109.14-20.22,126.22-73,0.32-1,.7-1.61,1.83-1.61a12.32,12.32,0,0,0,2-.35A81.86,81.86,0,0,1-232,216.63q-22.4,52.1-77.21,66.68a104.81,104.81,0,0,1-39.15,2.58,111.94,111.94,0,0,1-62-27.32,117.47,117.47,0,0,1-13.28-13.83,3.1,3.1,0,0,1-1.36-1.31,100,100,0,0,1-6.51-9.32c-0.94-1.5-1.89-3-2.71-4.55-0.75-1.28-1.42-2.61-2.17-3.89-0.68-1.72-1.58-3.35-2.39-5-0.43-1.35-1.34-2.5-1.71-3.88-0.22-1.12-1-2-1.23-3.14-0.38-1.41-1-2.71-1.45-4.1a17.54,17.54,0,0,0-.82-2.45A1.78,1.78,0,0,1-444.15,205.39Z" transform="translate(594.55 -61.67)"/><path class="cls-1" d="M-316.65,165.12c2.9,4.67,5,9.63,5.24,15.2a1,1,0,0,0,1,1.15c3.26,0.57,6.51,1.23,9.78,1.86a1.09,1.09,0,0,1-.74.71c-3,2-6,4-9,6a2.26,2.26,0,0,1-2.41.4,1.32,1.32,0,0,0-1.85.69c-4.11,6.19-9.92,10.37-16.53,13.43-7.89,3.66-15.32,2.65-22-2.9A41.73,41.73,0,0,1-364.65,187a0.73,0.73,0,0,1,.35-1.1,103.14,103.14,0,0,1,9.39-5,1,1,0,0,1,.59,0,2.38,2.38,0,0,1,1.05,1.39,33.72,33.72,0,0,0,8.8,10.94c4.4,3.38,9,3.12,13.72.69a14.82,14.82,0,0,0,5.26-4.63A11.49,11.49,0,0,0-324,178.24a28.82,28.82,0,0,0-3.52-7.33,1.34,1.34,0,0,1-.32-1c0.39-.85,1.32-0.83,2-1.22,2.69-1,5.32-2.18,8-3.3A1.51,1.51,0,0,1-316.65,165.12Z" transform="translate(594.55 -61.67)"/><path class="cls-2" d="M-210.53,191.43l6.76,7.16-7.06,1.31-32.59,5.94a17.85,17.85,0,0,0-2.35.42c-1.14.37-1.53-.05-1.71-1.14-0.76-4.4-1.59-8.79-2.39-13.18q-1.32-7.24-2.64-14.47a3.76,3.76,0,0,1,0-.6,1.69,1.69,0,0,1,1.71.09q14.74,5.35,29.47,10.71c3.22,1.18,6.44,2.38,9.68,3.49A2.26,2.26,0,0,0-210.53,191.43Z" transform="translate(594.55 -61.67)"/><path class="cls-1" d="M-386.56,204.73c2.48,3.47,4.58,7.21,7.3,10.52,3.05,3.72,6.46,4.54,10.86,2.58a26.51,26.51,0,0,0,3.95-2.24c3.28-2.2,6.58-4.37,9.86-6.59,0.6-.4.92-0.49,1.36,0.23,1.23,2,2.52,3.88,3.84,5.78a0.7,0.7,0,0,1-.25,1.2c-4.94,3.24-9.84,6.53-14.8,9.74A18.15,18.15,0,0,1-375.67,229a15.06,15.06,0,0,1-9.56-4.17c-3.49-3.25-6-7.25-8.49-11.23A9.11,9.11,0,0,1-392,210.8c1.29-1.91,2.74-3.7,4.21-5.48C-387.49,205-387.23,204.38-386.56,204.73Z" transform="translate(594.55 -61.67)"/><path class="cls-1" d="M-131.45,329.76c-2.44,0-4.88,0-7.32,0-0.8,0-1.17-.14-1.08-1a13.8,13.8,0,0,0,0-2.52c-0.07-.83.19-1.08,1-1.07,4.08,0,8.16,0,12.24,0a9.67,9.67,0,0,0,1.9-.16c1.81-.37,2.48-1.25,2.38-3s-1-2.52-2.84-2.58c-2.32-.07-4.64,0-7,0a17.31,17.31,0,0,1-3.22-.27c-3.92-.83-6-3-5.56-8.09,0.35-4.23,2.66-6.47,7.06-6.65,5.07-.21,10.16-0.07,15.24-0.1a0.55,0.55,0,0,1,.66.7,27.85,27.85,0,0,0,0,3c0.06,0.8-.28.9-1,0.89-4,0-8.08,0-12.12,0a7.28,7.28,0,0,0-2.13.26,3,3,0,0,0-2.17,3.41,2.55,2.55,0,0,0,2.71,2.35c2.12,0.09,4.24,0,6.36.07,1.4,0,2.8.06,4.19,0.18a5.66,5.66,0,0,1,5.13,4.6,11.06,11.06,0,0,1,.08,4.17c-0.65,3.77-3.06,5.68-7.32,5.83-2.44.08-4.88,0-7.32,0v0Z" transform="translate(594.55 -61.67)"/><path class="cls-1" d="M-317.08,311.07c2.83,0.11,6.31-.2,9.78.15,3.9,0.39,5.8,2.28,5.92,6.17s0,7.75.05,11.63a0.61,0.61,0,0,1-.75.75,28.41,28.41,0,0,0-3.12,0c-0.88.07-1.15-.17-1.14-1.1,0.06-3.36,0-6.71,0-10.07,0-2.78-.69-3.44-3.49-3.46-2.46,0-2.46,0-2.46,2.41,0,3.76,0,7.51,0,11.27,0,0.7-.13,1-0.91,1a20.55,20.55,0,0,0-3,0c-0.91.07-1.22-.17-1.21-1.16,0.06-4.12,0-8.23,0-12.35,0-.86-0.16-1.22-1.1-1.15a25.85,25.85,0,0,1-3.59,0c-0.88-.06-1.15.18-1.14,1.1,0.06,4.12,0,8.23,0,12.35,0,0.88-.13,1.32-1.14,1.2-1.22-.15-2.86.51-3.55-0.27S-328,327.24-328,326c0-4.64,0-9.27,0-13.91,0-.82.19-1.1,1.05-1.08C-323.88,311.11-320.8,311.07-317.08,311.07Z" transform="translate(594.55 -61.67)"/><path class="cls-1" d="M-472.46,311.07c2.91,0.12,6.47-.2,10,0.18s5.58,2.5,5.62,6.08c0,3.88,0,7.75,0,11.63,0,0.61-.13.85-0.79,0.82a28.17,28.17,0,0,0-3.24,0c-0.78.05-.92-0.25-0.91-1,0-3,0-6.07,0-9.11,0-.36,0-0.72,0-1.08-0.09-2.85-.74-3.47-3.62-3.49-2.32,0-2.32,0-2.32,2.29,0,3.76,0,7.51,0,11.27,0,0.82-.19,1.14-1,1.07a20.31,20.31,0,0,0-3,0c-0.83.06-1.08-.18-1.07-1,0-4.12,0-8.23,0-12.35,0-1-.23-1.34-1.25-1.26a26,26,0,0,1-3.59,0c-0.88-.05-1.06.28-1.05,1.09,0,4.12,0,8.23,0,12.35,0,0.86-.11,1.33-1.14,1.21-1.21-.14-2.85.5-3.55-0.26s-0.2-2.27-.2-3.46c0-4.64,0-9.27,0-13.91,0-.93.27-1.12,1.14-1.1C-479.26,311.11-476.18,311.07-472.46,311.07Z" transform="translate(594.55 -61.67)"/><path class="cls-1" d="M-276.35,135.84c0.61,0.89,1.17,1.81,1.85,2.64s0.66,1.32-.35,2c-8,5.23-15.89,10.54-23.82,15.83-1.32.88-1.32,0.88-.46,2.18,3.52,5.28,7,10.57,10.57,15.82,0.47,0.7.41,1-.3,1.43-2.59,1.65-5.13,3.38-7.67,5.1-0.54.37-.85,0.52-1.3-0.17-4-6.06-8-12.09-12.05-18.13a0.92,0.92,0,0,1-.08-0.22,0.61,0.61,0,0,1,.38-0.73A105.23,105.23,0,0,0-289.9,149.1a77.85,77.85,0,0,0,6.66-6.19,46.38,46.38,0,0,0,4.86-5.51c0.32-.39.64-0.78,1-1.16S-276.88,135.49-276.35,135.84Z" transform="translate(594.55 -61.67)"/><path class="cls-1" d="M-378,319.33c-2.2,0-4.4,0-6.6,0-0.77,0-1,.18-1,1,0,2.8,0,5.6,0,8.4,0,0.8-.13,1.15-1,1.09-1.23-.08-2.48,0-3.72,0-0.44,0-.76,0-0.75-0.62,0.16-5.59-.4-11.2.46-16.77,0.79-5.11,3.21-7.3,8.39-7.87,3.71-.41,7.43-0.11,11.15-0.22a0.59,0.59,0,0,1,.72.77c-0.1,1.18.49,2.69-.25,3.45s-2.12.15-3.24,0.18a60.36,60.36,0,0,0-6.95.17c-3.51.51-4.39,2.39-4.79,5.34-0.12.88,0.45,0.74,1,.74,4.36,0,8.72,0,13.08,0,0.94,0,1.3.23,1.19,1.19s0.42,2.37-.22,3-2,.18-3,0.2C-375,319.35-376.49,319.33-378,319.33Z" transform="translate(594.55 -61.67)"/><path class="cls-1" d="M-263,182.41a7,7,0,0,0,1.26-2.08,5.28,5.28,0,0,1,1-1.36c0.36-.31.67-0.44,0.88,0.17a6.35,6.35,0,0,1,.61,1.41c0.14,2,1.43,3.22,2.84,4.38a5.32,5.32,0,0,1,1.22,1.76c0.71,1.38-1.22,3.75-2.74,3.3a26.47,26.47,0,0,0-3.65-.64c-1.11-.16-1.93.17-2,1.43,0,0.67-.4.73-1,0.69-3.32-.23-5-1.63-5.95-4.91-0.61-2.16-.72-2.28-2.89-1.74s-4.6,1.28-6.9,1.95c-0.67.19-1.38,0.22-2.06,0.47a1,1,0,0,1-1.53-.41,1.31,1.31,0,0,1,.77-1.8c2.31-.49,3-2.3,3.75-4.13,0.41-1,.67-2.09,1.92-2.47a0.91,0.91,0,0,0,.47-0.88,3.24,3.24,0,0,1,2.86-3.17,18.49,18.49,0,0,1,3-.27,0.84,0.84,0,0,1,.93.59,9.39,9.39,0,0,0,2.17,3.27,7.52,7.52,0,0,1,1.27,2.54c0.24,0.74-.61,1.42-0.46,2.25,1.46-.76,1.75-1.42,1.41-2.94a8.3,8.3,0,0,0-1.58-3.06,6.86,6.86,0,0,1-1.32-3.42c0-.27-0.11-0.6.3-0.66a0.74,0.74,0,0,1,.88.17,9.27,9.27,0,0,0,2.57,2.83,5.43,5.43,0,0,1,1.68,3.86A7.87,7.87,0,0,0-263,182.41Z" transform="translate(594.55 -61.67)"/><path class="cls-1" d="M-425.43,222.36a9.55,9.55,0,0,1,9.76-9.53,9.6,9.6,0,0,1,9.49,9.7,9.63,9.63,0,0,1-9.78,9.54A9.59,9.59,0,0,1-425.43,222.36Z" transform="translate(594.55 -61.67)"/><path class="cls-3" d="M-208.9,120.2c0.32-1.68.7-3.35,1-5,0.78-5.05,1-10.08-.69-15.11,0.55,0.49,1.13,1,1.64,1.49a128.43,128.43,0,0,1,17.53,23.91c0.45,0.77.83,1.58,1.25,2.38-0.22,1-.91.5-1.37,0.34-2.42-.8-4.8-1.71-7.2-2.58-3.52-1.28-7-2.55-10.55-3.85C-208,121.48-209.1,121.44-208.9,120.2Z" transform="translate(594.55 -61.67)"/><path class="cls-1" d="M-250.11,119.24a9.48,9.48,0,0,1,2.32,11.12,9.65,9.65,0,0,1-10.32,5.48,9.63,9.63,0,0,1-7.91-7.78,9.43,9.43,0,0,1,4.28-9.77c0.2-.13.28,0,0.34,0.16a1.68,1.68,0,0,1-.6.89,5,5,0,0,0-.51.54,3.1,3.1,0,0,0-.28.53,2.54,2.54,0,0,0-.17.63c0.07,0.59.52,0.51,0.9,0.51q5.53,0,11.07,0c0.4,0,.83,0,0.87-0.54a3.08,3.08,0,0,0-.2-0.65,3.71,3.71,0,0,1-.23-0.64,0.8,0.8,0,0,1,0-.34C-250.41,119.23-250.3,119.11-250.11,119.24Z" transform="translate(594.55 -61.67)"/><path class="cls-4" d="M-454.87,203l6,1.73a2.32,2.32,0,0,1,.38,1.6q0,16.91,0,33.81a2,2,0,0,1-.39,1.58,34,34,0,0,1-6.28-1.66,4.58,4.58,0,0,1-.12-1.19c0-11.27,0-22.55,0-33.82A2.6,2.6,0,0,1-454.87,203Z" transform="translate(594.55 -61.67)"/><path class="cls-1" d="M-220.17,320.44q0,4.26,0,8.52c0,0.37.15,0.83-.53,0.81-3.75-.12-7.53.31-11.26-0.23-3.39-.49-5.1-2.41-5.2-5.83-0.11-4,0-7.92-.06-11.88,0-.69.29-0.79,0.86-0.77,1,0,2.08.06,3.12,0,0.77,0,.94.25,0.93,1,0,3.24,0,6.48,0,9.72,0,0.44,0,.88,0,1.32,0.19,2,.82,2.57,2.82,2.61,1.12,0,2.24,0,3.36,0,0.79,0,1-.21,1-1,0-4.12,0-8.24,0-12.36,0-1.09.31-1.41,1.34-1.29s2.76-.49,3.44.26,0.19,2.2.19,3.36C-220.17,316.6-220.17,318.52-220.17,320.44Z" transform="translate(594.55 -61.67)"/><path class="cls-1" d="M-245.84,322.45c-1.56,0-3.12,0-4.68,0-0.84,0-.93.32-0.81,1a2.79,2.79,0,0,0,3,2.43c1.47,0.09,3,0,4.44.06,0.92,0,1.84.05,2.76,0,0.76-.06.92,0.22,0.92,0.94,0,2.93,0,2.93-2.87,2.93-1.76,0-3.52,0-5.28,0-4.64-.13-7.64-2.75-8.29-7.36-0.53-3.76-.14-7.27,3.3-9.75A9.51,9.51,0,0,1-248,311.1c2.28-.09,4.56,0,6.83,0,0.72,0,.85.26,0.86,0.9,0.07,3,.09,3-2.84,3a41,41,0,0,0-5.51.15,3,3,0,0,0-2.72,2.46c-0.15.71,0,1,.81,1,3.08,0,6.16,0,9.23,0,0.75,0,1,.15,1,1,0,3,0,3-3,3h-2.64Z" transform="translate(594.55 -61.67)"/><path class="cls-1" d="M-497.36,320.39c0,2.84,0,5.68,0,8.52,0,0.34.21,0.87-.48,0.85-3.71-.09-7.45.31-11.14-0.2s-5.18-2.25-5.33-5.81c-0.17-4,0-8-.07-12a0.56,0.56,0,0,1,.71-0.68h0.12c1.31,0,3-.42,3.84.22s0.23,2.39.26,3.66c0,2.64,0,5.28,0,7.92,0,2.12.75,2.76,2.86,2.8,1.12,0,2.24-.05,3.36,0,0.85,0.06,1-.3,1-1,0-4.12,0-8.24,0-12.35,0-1,.22-1.36,1.24-1.26a16.41,16.41,0,0,0,2.76,0c0.75-.05.95,0.21,0.94,0.94C-497.38,314.79-497.36,317.59-497.36,320.39Z" transform="translate(594.55 -61.67)"/><path class="cls-5" d="M-242,168.41l4.8-3.11a70.75,70.75,0,0,1,7.35,2.55q12.74,4.61,25.46,9.27c1.33,0.49,2.8.69,3.93,1.67a19.31,19.31,0,0,1-3.34,3.6,2,2,0,0,1-2.06-.06c-4.85-1.72-9.69-3.5-14.53-5.26-6.75-2.46-13.51-4.9-20.25-7.39C-241.26,169.46-242.23,169.52-242,168.41Z" transform="translate(594.55 -61.67)"/><path class="cls-6" d="M-195,171.82a33.84,33.84,0,0,1-3.09,4.07,1.69,1.69,0,0,1-1.27-.16q-16.43-6-32.85-12a8,8,0,0,1-1.32-.57c-0.28-.16-0.56-0.36-0.3-0.75l3.52-3.4a1.61,1.61,0,0,1,1.27.17c11,4,21.94,8,32.9,12A2.07,2.07,0,0,1-195,171.82Z" transform="translate(594.55 -61.67)"/><path class="cls-1" d="M-214.17,320.05c0-1.44,0-2.88,0-4.32,0-.62-0.08-0.9-0.82-0.92-2.64,0-2.6-.08-2.62-2.71a0.86,0.86,0,0,1,1.07-1.06c2.35,0,2.35,0,2.35-2.33,0-1.2,0-2.4,0-3.6,0-.58.08-0.87,0.77-0.84a32.6,32.6,0,0,0,3.36,0c0.73,0,.86.26,0.85,0.91,0,1.64,0,3.28,0,4.92,0,0.81.25,1,1,1,1.16-.06,2.32,0,3.48,0,0.64,0,.8.22,0.82,0.83,0.13,2.94.14,2.94-2.78,2.94-2.52,0-2.53,0-2.52,2.55,0,1.88,0,3.76.05,5.64s0.88,2.75,2.89,2.93c2.36,0.21,2.31.22,2.37,2.63,0,0.92-.2,1.27-1.18,1.2-1.19-.09-2.4,0-3.6,0-3.34-.06-5.35-2-5.47-5.38-0.05-1.44,0-2.88,0-4.32h0Z" transform="translate(594.55 -61.67)"/><path class="cls-7" d="M-454.87,203q0,17.8,0,35.6a1.6,1.6,0,0,1-.27,1.46,23.71,23.71,0,0,1-3.19-1,1.41,1.41,0,0,1-.86-1c-1.7-4-1.83-8.24-1.57-12.49a115.61,115.61,0,0,1,3.78-21.8C-456.63,202.17-456.63,202.17-454.87,203Z" transform="translate(594.55 -61.67)"/><path class="cls-1" d="M-594.53,313.36c0-3.08,0-5.63,0-8.19,0-.67.17-0.91,0.86-0.88a34.1,34.1,0,0,0,3.59,0c0.8,0,.89.3,0.89,1q0,6.59,0,13.18c0,1,.05,2,0.14,3a4,4,0,0,0,3.95,4,64.41,64.41,0,0,0,7.18.12c0.74,0,1,.2.92,0.94-0.11,1.06.45,2.47-.24,3.08s-2,.2-3,0.18a48.25,48.25,0,0,1-7.3-.19,7.84,7.84,0,0,1-6.81-7.39C-594.67,319.07-594.44,315.95-594.53,313.36Z" transform="translate(594.55 -61.67)"/><path class="cls-8" d="M-253.31,172.56l-0.8-4.07a1.2,1.2,0,0,1,1.44-.06c8.81,3.22,17.64,6.4,26.45,9.61l17.23,6.27c0.77,0.28,1.66.39,2.1,1.24a13.77,13.77,0,0,1-3,2.6,1.21,1.21,0,0,1-1.24-.12l-33.45-12.17c-2.44-.89-4.87-1.81-7.33-2.64A3.48,3.48,0,0,1-253.31,172.56Z" transform="translate(594.55 -61.67)"/><path class="cls-9" d="M-253.31,172.56a34,34,0,0,1,6,2c4.74,1.67,9.43,3.47,14.14,5.19q11.63,4.24,23.26,8.44a0.89,0.89,0,0,1-.46.51c-1.66,1.32-1.66,1.32-.18,2.77-0.3.53-.7,0.22-1,0.1l-17.88-6.46-14.61-5.31c-2.62-.95-5.25-1.87-7.88-2.8a3,3,0,0,0-.59-0.08A26.47,26.47,0,0,1-253.31,172.56Z" transform="translate(594.55 -61.67)"/><path class="cls-1" d="M-432.28,329.76c-1.24-.06-2.71,0-4.19-0.13-5.16-.62-7.35-4.55-7.59-8.72a10.44,10.44,0,0,1,2-6.74,7.08,7.08,0,0,1,5.18-2.87,73.92,73.92,0,0,1,8.62-.23c0.43,0,.7.11,0.66,0.6a1.93,1.93,0,0,0,0,.24c0.14,3.21.14,3.19-3.06,3.22a21.89,21.89,0,0,0-4.9.21,3.76,3.76,0,0,0-3.22,3.38,12,12,0,0,0,0,3.47c0.36,2.18,1.6,3.28,4.08,3.46,2,0.14,4,.13,6,0.08,0.92,0,1.13.27,1.12,1.15,0,2.88,0,2.88-2.82,2.88h-1.92Z" transform="translate(594.55 -61.67)"/><path class="cls-1" d="M-181,329.76a33.82,33.82,0,0,1-4.54-.2,8.25,8.25,0,0,1-7.07-7.1,11.14,11.14,0,0,1,.53-5.89c1.47-4,4.57-5.42,8.54-5.47,2.16,0,4.32,0,6.48,0a0.63,0.63,0,0,1,.78.73c0.2,3.33.22,3.31-3.06,3.34a21.5,21.5,0,0,0-4.9.21,3.78,3.78,0,0,0-3.22,3.39,12,12,0,0,0,0,3.11c0.32,2.46,1.52,3.63,4.14,3.82a59.92,59.92,0,0,0,6,.08c0.94,0,1.11.29,1.1,1.15,0,2.88,0,2.88-2.92,2.88H-181Z" transform="translate(594.55 -61.67)"/><path class="cls-10" d="M-206.89,185.55c-3.29-1.52-6.77-2.57-10.16-3.83-7.61-2.82-15.25-5.57-22.87-8.35L-253,168.59a2.66,2.66,0,0,0-1.06-.1,4.68,4.68,0,0,1-.27-2.23,46.7,46.7,0,0,1,5.06,2.79,4.16,4.16,0,0,0,5,.39,23.31,23.31,0,0,1,2.28-1,0.91,0.91,0,0,0,.81.76l19.67,7.12,15.84,5.76a4,4,0,0,0,1.87.33A13.43,13.43,0,0,1-206.89,185.55Z" transform="translate(594.55 -61.67)"/><path class="cls-1" d="M-259.29,315.08c-1.71,0-3.43.06-5.14,0-5.55,0-6.15,2.46-5.83,6.63,0.18,2.45,1.06,3.22,4,4,2,0.19,4,.07,6.07.07,0.77,0,1.1.18,1,1a18.83,18.83,0,0,1-.13,3,54.37,54.37,0,0,1-8.74-.14c-5-.78-8-4.86-7.51-9.95a11.73,11.73,0,0,1,1.36-4.43c1.54-2.85,4-4,7.12-4,2.41-.2,4.83,0,7.24-0.09a0.52,0.52,0,0,1,.64.62A19.34,19.34,0,0,1-259.29,315.08Z" transform="translate(594.55 -61.67)"/><path class="cls-11" d="M-190.67,165.11a16.92,16.92,0,0,1-2.2,3.6,1.38,1.38,0,0,1-1.47-.07q-15.22-5.61-30.49-11.1a13.92,13.92,0,0,1-2-.82c-0.35-.19-0.88-0.36-0.56-1l2.65-3.34c10.75,4,21.53,7.85,32.3,11.77A3.32,3.32,0,0,1-190.67,165.11Z" transform="translate(594.55 -61.67)"/><path class="cls-12" d="M-184,150.95a21.32,21.32,0,0,1-1.45,4.07,1.72,1.72,0,0,1-1.27-.18q-15.06-5.44-30.09-11c-0.61-.22-1.62-0.18-1.47-1.32l1.89-3.41a32.38,32.38,0,0,1,5.21,1.75q13,4.73,26,9.44A2.46,2.46,0,0,1-184,150.95Z" transform="translate(594.55 -61.67)"/><path class="cls-13" d="M-233.85,162.46c0.15,0.71.85,0.69,1.31,0.86,6.35,2.34,12.72,4.62,19.07,6.94q7.68,2.8,15.35,5.63a19.59,19.59,0,0,1-2.38,2.89c-4.39-1.56-8.79-3.1-13.17-4.68-4.91-1.77-9.8-3.59-14.7-5.38-2.73-1-5.47-2-8.2-3a1.1,1.1,0,0,1-.67-0.47Z" transform="translate(594.55 -61.67)"/><path class="cls-14" d="M-190.67,165.11c-4.79-1.72-9.58-3.43-14.37-5.16q-7.4-2.68-14.79-5.4c-1.46-.53-2.9-1.09-4.36-1.62a0.59,0.59,0,0,1-.54-0.53l2.1-2.91a1.43,1.43,0,0,1,1.37.11q15.55,5.67,31.11,11.3a2.5,2.5,0,0,1,1.41.85A12.55,12.55,0,0,1-190.67,165.11Z" transform="translate(594.55 -61.67)"/><path class="cls-15" d="M-227.38,155.73c0.48,1.07,1.61,1.1,2.49,1.42C-214.95,160.8-205,164.4-195,168a6.89,6.89,0,0,0,2.15.7,23.14,23.14,0,0,1-2.16,3.12,67.83,67.83,0,0,1-7.32-2.51c-5-1.74-9.94-3.6-14.9-5.42l-13.09-4.82Z" transform="translate(594.55 -61.67)"/><path class="cls-16" d="M-188.74,161.75q-11-4-22.09-8c-3.93-1.42-7.86-2.82-11.8-4.22a32.13,32.13,0,0,1,2.42-3.66c5.38,2.14,10.87,4,16.3,6s10.89,4,16.32,6a3,3,0,0,1,.75.36A14.35,14.35,0,0,1-188.74,161.75Z" transform="translate(594.55 -61.67)"/><path class="cls-17" d="M-186.83,158.15c-0.89.22-1.6-.35-2.36-0.62-5.81-2.08-11.6-4.22-17.4-6.34l-12.91-4.7a0.78,0.78,0,0,1-.73-0.67l2-3.28a1.45,1.45,0,0,0,1.27.93q14.94,5.44,29.9,10.85c0.56,0.2,1.11.45,1.66,0.68A16,16,0,0,1-186.83,158.15Z" transform="translate(594.55 -61.67)"/><path class="cls-1" d="M-335.09,311.25c2.36,0.11,3.51,1.16,3.77,3.46,0,0.16,0,.32,0,0.48,0.19,4,.07,4.07-3.94,3.75a0.58,0.58,0,0,1-.67-0.71c0-.6,0-1.2,0-1.79a1.61,1.61,0,0,0-1.78-1.76c-2.12-.15-2.12-0.19-2.12,1.88,0,4.07,0,8.14,0,12.21,0,0.74-.13,1.08-1,1-1.23-.08-2.47,0-3.71-0.06a2.2,2.2,0,0,1-.11-1.17q0-8,0-16.07c0-1.32,0-1.34,1.26-1.32C-340.59,311.2-337.84,311-335.09,311.25Z" transform="translate(594.55 -61.67)"/><path class="cls-18" d="M-184,150.95a76.87,76.87,0,0,1-8.12-2.79c-4.92-1.72-9.8-3.57-14.71-5.35-3-1.08-5.92-2.13-8.88-3.19a1.11,1.11,0,0,1-.67-0.47l1.69-3.35a62,62,0,0,1,6.54,2.27l23.49,8.53a6.18,6.18,0,0,0,1.63.28A17.42,17.42,0,0,1-184,150.95Z" transform="translate(594.55 -61.67)"/><path class="cls-19" d="M-183,146.88a0.76,0.76,0,0,1-1,.33q-13.46-5-26.94-9.87a13.39,13.39,0,0,1-3.72-1.54,19.36,19.36,0,0,1,1.42-3.1,1.32,1.32,0,0,1,1.26.05c5.81,1.87,11.52,4,17.26,6.1l9.56,3.48a5.81,5.81,0,0,1,2.45,1.19A10.42,10.42,0,0,1-183,146.88Z" transform="translate(594.55 -61.67)"/><path class="cls-20" d="M-448.89,241.67v-37l2.88,0.55a1,1,0,0,1,.82,1c0,0.28,0,.56,0,0.84q0,16.78,0,33.56a2.22,2.22,0,0,1-.36,1.71A13.5,13.5,0,0,1-448.89,241.67Z" transform="translate(594.55 -61.67)"/><path class="cls-21" d="M-182.73,143.51c-4.84-1.74-9.67-3.5-14.51-5.21-4.05-1.44-8-3.1-12.16-4.29-1.3-.37-2.56-0.87-3.85-1.31l1.69-4.13c4.35,1.79,8.82,3.28,13.24,4.89l12.26,4.46a14.27,14.27,0,0,0,2.64.77A10,10,0,0,1-182.73,143.51Z" transform="translate(594.55 -61.67)"/><path class="cls-22" d="M-208.9,120.2c0.11,0.87.89,1,1.48,1.19,6,2.22,12.1,4.41,18.15,6.61a0.75,0.75,0,0,0,1.06-.16,34,34,0,0,1,2.85,5.82c0.26,0.62-.17.68-0.59,0.72a2.12,2.12,0,0,1-.93-0.19q-11.41-4.19-22.84-8.31c-0.3-.11-0.77-0.11-0.64-0.66Z" transform="translate(594.55 -61.67)"/><path class="cls-23" d="M-335.54,149.72a6.69,6.69,0,0,1,2.81.75,2,2,0,0,1-1,1.12c-4.08,2.94-8.22,5.81-12.3,8.75a1.2,1.2,0,0,0-.77.84,1.86,1.86,0,0,1-1.06.71,18.39,18.39,0,0,0-4.08,2.83,3,3,0,0,1-1,.76,30.48,30.48,0,0,0-5.06,3.37c-2.59,1.79-5.13,3.67-7.74,5.43a4.22,4.22,0,0,0-1.75,2.39,9.94,9.94,0,0,1,.06-4.38,2.18,2.18,0,0,1,1.17-1.69l11.35-8.06q8.37-5.94,16.74-11.86C-337.43,150.12-336.68,149.36-335.54,149.72Z" transform="translate(594.55 -61.67)"/><path class="cls-24" d="M-210.37,125.2c1.73,0.66,3.45,1.35,5.19,2q9.17,3.36,18.36,6.67c0.44,0.16,1.11.78,1.46-.2a22.43,22.43,0,0,1,1.93,5,0.87,0.87,0,0,1-1.19.08l-18.16-6.57c-2.39-.86-4.8-1.7-7.17-2.6-0.59-.22-1.37-0.22-1.61-1A21,21,0,0,1-210.37,125.2Z" transform="translate(594.55 -61.67)"/><path class="cls-25" d="M-287.57,119c1.88,2.34,1.87,2.33-.58,4l-14.27,9.59a1.2,1.2,0,0,1-.33.1,42.66,42.66,0,0,0-4.38,3c-3.31,2.3-6.59,4.65-9.87,7a8.55,8.55,0,0,1-1.85,1.09,7.46,7.46,0,0,1-.17-3.18,26.91,26.91,0,0,1,4-3q12.94-9.18,25.89-18.35C-288.65,118.93-288.19,118.37-287.57,119Z" transform="translate(594.55 -61.67)"/><path class="cls-26" d="M-335.54,149.72c-1.07-.09-1.77.66-2.52,1.2-4.81,3.39-9.59,6.82-14.38,10.23s-9.44,6.74-14.19,10.07a3.59,3.59,0,0,0-.85,1.08,14.08,14.08,0,0,1,1.83-5.76c1.83-1.54,3.89-2.78,5.82-4.18,5.64-4.11,11.44-8,17-12.17,0.23-.17.5-0.25,0.72-0.43A13.08,13.08,0,0,1-335.54,149.72Z" transform="translate(594.55 -61.67)"/><path class="cls-27" d="M-276.35,135.84c-1,.14-1,1.35-1.88,1.68-2.37,1.89-4.91,3.56-7.38,5.31q-12,8.51-24,17a2.44,2.44,0,0,1-1.49.69,5.48,5.48,0,0,1-1-1.57,1,1,0,0,1,.63-1.25q7.8-5.48,15.56-11,8.56-6.08,17.13-12.13a1.1,1.1,0,0,1,1.14-.46Z" transform="translate(594.55 -61.67)"/><path class="cls-1" d="M-447.24,320.48c0,2.79,0,5.59,0,8.38,0,0.76-.22,1-0.94.92-1.11-.06-2.23,0-3.35,0-0.57,0-.85-0.08-0.85-0.76q0-8.56,0-17.12a0.67,0.67,0,0,1,.82-0.83c1.16,0,2.32.05,3.47,0,0.73,0,.85.28,0.84,0.92C-447.25,314.81-447.24,317.64-447.24,320.48Z" transform="translate(594.55 -61.67)"/><path class="cls-1" d="M-487.77,320.51c0,2.75,0,5.51,0,8.26,0,0.73-.12,1.07-1,1-1.15-.08-2.31,0-3.47,0a0.55,0.55,0,0,1-.68-0.68q0-8.62,0-17.24a0.66,0.66,0,0,1,.84-0.79c1.12,0,2.24.06,3.35,0,0.77,0,.93.24,0.92,1C-487.8,314.84-487.77,317.68-487.77,320.51Z" transform="translate(594.55 -61.67)"/><path class="cls-1" d="M-201,320.27c0-2.75,0-5.51,0-8.26,0-.72.18-1,0.93-0.95,1.11,0.06,2.24,0,3.35,0a0.65,0.65,0,0,1,.83.79q0,8.56,0,17.12c0,0.63-.17.83-0.8,0.8-1.16,0-2.32-.06-3.47,0-0.72,0-.85-0.25-0.84-0.89C-201,326-201,323.14-201,320.27Z" transform="translate(594.55 -61.67)"/><path class="cls-28" d="M-318.3,137.5a12.62,12.62,0,0,1,2.37-4.56c4.65-3.79,9.71-7,14.56-10.53q4.81-3.48,9.69-6.86a1.84,1.84,0,0,1,1.38-.6,12.86,12.86,0,0,1,1.47,2.15c-2.42,2-5,3.65-7.55,5.45-6.65,4.76-13.35,9.45-20,14.2A2.17,2.17,0,0,1-318.3,137.5Z" transform="translate(594.55 -61.67)"/><path class="cls-29" d="M-312.81,157.89A7.87,7.87,0,0,1-314,155.8a1.08,1.08,0,0,1,.68-1.14l7-5a0.88,0.88,0,0,1,1.18-.17,1.7,1.7,0,0,0,1.26-.58q12-8,24.07-16.05c1-.67,1.5-0.62,1.79.55-2,1.59-4.13,3-6.21,4.49q-13.7,9.71-27.4,19.42A1.76,1.76,0,0,1-312.81,157.89Z" transform="translate(594.55 -61.67)"/><path class="cls-23" d="M-318.3,137.5c2.47-1.15,4.49-3,6.71-4.51,4.29-3,8.5-6,12.74-9l9-6.35a2.17,2.17,0,0,1,1.07-.49,7.85,7.85,0,0,1,1.26,1.9,0.93,0.93,0,0,0-1,.16q-7.58,5.41-15.17,10.82-7.4,5.26-14.82,10.48a1.75,1.75,0,0,1-.44.16A7.67,7.67,0,0,1-318.3,137.5Z" transform="translate(594.55 -61.67)"/><path class="cls-1" d="M-242.62,154.25c0.72,3.11,1.09,6.13,1.54,9.14a1,1,0,0,1-.55,1.18c-0.91.49-1.84,1-2.7,1.52a3.14,3.14,0,0,1-4-.12,1.93,1.93,0,0,1-.93-1.5c-0.16-1.62-.45-3.23-0.7-4.85a0.75,0.75,0,0,1,.25-0.94C-247.36,157.24-245,155.76-242.62,154.25Z" transform="translate(594.55 -61.67)"/><path class="cls-30" d="M-342.09,149.75c-0.9,1.33-2.34,2-3.58,2.92-6.11,4.37-12.27,8.68-18.42,13a16.36,16.36,0,0,1-1.56.87,21.86,21.86,0,0,1,7.08-8.57c4.64-3.63,9.59-6.71,15.43-8.08A10.34,10.34,0,0,1-342.09,149.75Z" transform="translate(594.55 -61.67)"/><path class="cls-31" d="M-444.15,205.39c0.14,1.46,1,2.7,1.24,4.13a13.94,13.94,0,0,0,.2,2.71c0,9.41,0,18.83,0,28.24a9.89,9.89,0,0,1-.06,1.43,0.77,0.77,0,0,1-1.15.76,2.53,2.53,0,0,1-1.39-.25,3.81,3.81,0,0,0,.17-1.66q0-16.74,0-33.47a2.37,2.37,0,0,1,.35-1.83Z" transform="translate(594.55 -61.67)"/><path class="cls-32" d="M-311.13,160.55l29-20.53a20.51,20.51,0,0,1,3.89-2.5A27.38,27.38,0,0,1-283,143a86.18,86.18,0,0,0-7.22,4.94c-5.63,4-11.21,8-16.84,11.92a28.8,28.8,0,0,0-2.35,1.85,1,1,0,0,0-.52.54A5.66,5.66,0,0,1-311.13,160.55Z" transform="translate(594.55 -61.67)"/><path class="cls-33" d="M-290.3,115l-21.14,14.9a41,41,0,0,1-4.49,3.09,29.41,29.41,0,0,1,8-7.67c5.37-3.74,10.85-7.32,16.26-11C-290.72,113.64-290.55,114.31-290.3,115Z" transform="translate(594.55 -61.67)"/><path class="cls-34" d="M-443.95,242.66c0.95,0,.81-0.64.81-1.23q0-7.84,0-15.68,0-7.48,0-15a1.55,1.55,0,0,1,.21-1.25l1.44,4.08c-0.23.88,0.21,1.71,0.2,2.59,0,8.23,0,16.46,0,24.69,0,0.36,0,.72,0,1.08-0.08.86-.47,1.25-1.35,0.92A2.05,2.05,0,0,1-443.95,242.66Z" transform="translate(594.55 -61.67)"/><path class="cls-35" d="M-436.2,225.59l2.14,3.87c0.42,4.46.15,8.92,0.16,13.38,0,1.08-.25,1.18-1.61,1a5.38,5.38,0,0,1-2.14-.24,5,5,0,0,0,.39-2.21q0-7,0-14a3.68,3.68,0,0,1,.15-1.53C-436.95,225.52-436.75,225-436.2,225.59Z" transform="translate(594.55 -61.67)"/><path class="cls-36" d="M-315.48,153.12A11.16,11.16,0,0,1-316.9,150c-0.26-.6.19-0.86,0.57-1.14,2.42-1.75,4.85-3.48,7.31-5.17,0.42-.29,1-1.08,1.46.05l1.2,3.6c-2.34,1.34-4.44,3-6.67,4.53C-313.79,152.38-314.4,153.24-315.48,153.12Z" transform="translate(594.55 -61.67)"/><path class="cls-37" d="M-312.81,157.89q6.34-4.55,12.69-9.09,9.8-7,19.63-13.94a6.85,6.85,0,0,1,2.45-1.43,0.94,0.94,0,0,1,.37.68l-27.06,19.21c-2.24,1.59-4.48,3.18-6.74,4.74a1.16,1.16,0,0,0-.66.92A2.54,2.54,0,0,1-312.81,157.89Z" transform="translate(594.55 -61.67)"/><path class="cls-38" d="M-440.27,216.72l1.67,3.84c0.38,4,.11,8.06.17,12.09,0,3.12,0,6.23,0,9.35,0,0.56.25,1.51-.92,1.37a3.56,3.56,0,0,1-1.67-.23,19,19,0,0,0,.16-2.75c0-7.27,0-14.54,0-21.81C-440.86,217.94-441.19,217.11-440.27,216.72Z" transform="translate(594.55 -61.67)"/><path class="cls-39" d="M-439.37,243.38c0.79-.13.55-0.77,0.56-1.23,0-6.74,0-13.47,0-20.21a1.75,1.75,0,0,1,.21-1.37c0.83,1.66,1.73,3.29,2.39,5-0.94-.2-0.68.52-0.68,0.95,0,3.35,0,6.71,0,10.06,0,2,0,4,0,6,0,0.56,0,1.07-.77,1A3.63,3.63,0,0,1-439.37,243.38Z" transform="translate(594.55 -61.67)"/><path class="cls-40" d="M-431.38,234c2.42,3.67,5,7.27,7.67,10.73l-8.48-.45a6.65,6.65,0,0,1-.92-0.18,2.08,2.08,0,0,0,1.14-2.25c-0.05-2.16,0-4.32,0-6.48C-432,234.87-432.15,234.2-431.38,234Z" transform="translate(594.55 -61.67)"/><path class="cls-41" d="M-404.28,197.8a21.46,21.46,0,0,1-2.13-3.17,0.86,0.86,0,0,1,.67-0.86c2.37-1.66,4.7-3.38,7.08-5a1.16,1.16,0,0,1,1.17-.38,20.92,20.92,0,0,1,2.1,3.15Q-399.7,194.85-404.28,197.8Z" transform="translate(594.55 -61.67)"/><path class="cls-42" d="M-346.87,161c-0.79-.25-0.12-0.39.05-0.52L-339,155l6.31-4.52a5.7,5.7,0,0,1,2.17.93c0.34,0.8-.34,1-0.78,1.37-2.88,2.11-5.84,4.12-8.73,6.22a6.33,6.33,0,0,0-.65.52c0.22,0.24,1.12-.07.59,0.75C-342.4,160.29-344.62,160.84-346.87,161Z" transform="translate(594.55 -61.67)"/><path class="cls-43" d="M-367.55,176.68a2.2,2.2,0,0,1,1.15-2.32c4.15-2.83,8.22-5.78,12.33-8.68,0.27-.19.53-0.69,1-0.24-0.87,1.71-1.89,3.33-2.78,5a3.23,3.23,0,0,0-1.15.61l-10.3,7.29A3.52,3.52,0,0,1-367.55,176.68Z" transform="translate(594.55 -61.67)"/><path class="cls-44" d="M-397.77,207.58a26.06,26.06,0,0,1-2.19-3.31,0.75,0.75,0,0,1,.55-0.81c2.32-1.68,4.65-3.37,7-5a1.47,1.47,0,0,1,1.3-.46,15.73,15.73,0,0,1,1.92,2.88,2,2,0,0,1-1,1l-5.94,4.19A8.85,8.85,0,0,0-397.77,207.58Z" transform="translate(594.55 -61.67)"/><path class="cls-36" d="M-397.77,207.58a1.07,1.07,0,0,1,.61-1c2.67-1.86,5.32-3.77,8-5.65,0.44,1.1,1.53,1.76,1.94,2.88a2.24,2.24,0,0,1-1.11,1.19c-2.48,1.86-5.17,3.43-7.49,5.51A20.55,20.55,0,0,1-397.77,207.58Z" transform="translate(594.55 -61.67)"/><path class="cls-36" d="M-323.84,156a7,7,0,0,1,1.86,1.94,1.6,1.6,0,0,1-.77,1c-2.92,2-5.77,4.12-8.69,6.12a1.06,1.06,0,0,1-.33.14,3.47,3.47,0,0,1-2.1-2,1.55,1.55,0,0,1,.9-1.3c2.62-1.92,5.32-3.74,7.95-5.66A1,1,0,0,1-323.84,156Z" transform="translate(594.55 -61.67)"/><path class="cls-45" d="M-339.93,160c-0.35-.37-0.85-0.09-1.37-0.34a22.9,22.9,0,0,1,3.67-2.81c2.12-1.54,4.28-3,6.42-4.53a1.2,1.2,0,0,0,.64-0.95,10.49,10.49,0,0,1,2.93,1.69,30.68,30.68,0,0,1-4.27,3.18c-2,1.52-4.11,3-6.19,4.42A1.92,1.92,0,0,1-339.93,160Z" transform="translate(594.55 -61.67)"/><path class="cls-46" d="M-440.27,216.72a1.69,1.69,0,0,0-.22,1.37c0,7.9,0,15.79,0,23.69,0,0.49.31,1.18-.54,1.37a3.45,3.45,0,0,1-1.64-.26c1.06,0.13,1-.56,1-1.28q0-13.31,0-26.62a1.76,1.76,0,0,1,.21-1.38C-441.32,214.74-440.42,215.58-440.27,216.72Z" transform="translate(594.55 -61.67)"/><path class="cls-47" d="M-397.49,188.37c-3.06,2-6,4.15-8.92,6.26a0.36,0.36,0,0,1-.1-0.07c-1.86-2.51-1.87-2.51.68-4.21,2-1.31,3.94-2.58,5.87-3.93,0.7-.49,1.1-0.43,1.47.33C-398.19,187.3-397.82,187.83-397.49,188.37Z" transform="translate(594.55 -61.67)"/><path class="cls-48" d="M-431.38,234a1.44,1.44,0,0,0-.22,1.24c0,2.42-.07,4.84,0,7.25,0,1.18-.22,1.82-1.52,1.62a6.7,6.7,0,0,1-2.41-.25c1.09,0.15,1.3-.38,1.29-1.39-0.06-3.91,0-7.83,0-11.74a1.72,1.72,0,0,1,.18-1.27Z" transform="translate(594.55 -61.67)"/><path class="cls-49" d="M-306.35,136.5a17.76,17.76,0,0,0-1.43,3.64c-3.41,2.33-6.81,4.67-10.07,7.2a8.12,8.12,0,0,1-.75-2.55c-0.23-.56.17-0.79,0.54-1,3.34-2.41,6.71-4.77,10.08-7.14C-307.52,136.28-306.95,135.61-306.35,136.5Z" transform="translate(594.55 -61.67)"/><path class="cls-45" d="M-367.32,178.37c0-.77.76-0.83,1.22-1.16l9.36-6.7c0.25-.18.46-0.52,0.76-0.07,0.53,0.89,0,1.76,0,2.64a2.51,2.51,0,0,1-1.08,1.07c-2.87,2.07-5.77,4.1-8.67,6.14a1.08,1.08,0,0,1-1,.42A6.34,6.34,0,0,1-367.32,178.37Z" transform="translate(594.55 -61.67)"/><path class="cls-44" d="M-317.85,147.35c0.1-.91,1-1.13,1.52-1.55,2.41-1.79,4.88-3.5,7.34-5.24a1.82,1.82,0,0,1,1.22-.41l0,0.49a3.74,3.74,0,0,0,0,1.66l0.26,1.44a0.55,0.55,0,0,0-.89-0.12c-2.74,1.95-5.49,3.89-8.22,5.85a1.24,1.24,0,0,0-.22.53A8.61,8.61,0,0,1-317.85,147.35Z" transform="translate(594.55 -61.67)"/><path class="cls-23" d="M-404.28,197.8a17.44,17.44,0,0,1,3.75-2.88,31.3,31.3,0,0,1,5.14-3.4,15.18,15.18,0,0,1,1.74,2.63c-2.38,1.32-4.44,3.11-6.71,4.6a23.45,23.45,0,0,0-2.21,1.64A14.46,14.46,0,0,1-404.28,197.8Z" transform="translate(594.55 -61.67)"/><path class="cls-50" d="M-366.82,180.71l10.53-7.44a6.09,6.09,0,0,1,.69,3.14,13.07,13.07,0,0,0-3.48,2.18c-1.85,1.3-3.69,2.62-5.56,3.9a2.87,2.87,0,0,1-1.49.69A5.89,5.89,0,0,1-366.82,180.71Z" transform="translate(594.55 -61.67)"/><path class="cls-50" d="M-338,160.53c0.4-.86,1.3-1.11,2-1.61,2.63-1.92,5.29-3.81,7.94-5.71a1.44,1.44,0,0,1,.45-0.13c0.49,0.58,1.38.58,1.82,1.24a1.25,1.25,0,0,1-.77,1.12q-4.51,3.24-9.05,6.43A3.38,3.38,0,0,1-338,160.53Z" transform="translate(594.55 -61.67)"/><path class="cls-51" d="M-315.48,153.12c2.79-1.62,5.25-3.71,8-5.44a1,1,0,0,1,1.17-.33l1.22,2.17c-1,0-1.51.8-2.21,1.26-2,1.3-3.88,2.71-5.81,4.08a2.52,2.52,0,0,0-.87.95A10.52,10.52,0,0,1-315.48,153.12Z" transform="translate(594.55 -61.67)"/><path class="cls-52" d="M-395.85,210.45c0.48-1.42,1.9-1.82,2.93-2.62,1.84-1.42,3.77-2.72,5.67-4.07l0.69,1c-1.45.73-2.09,2.21-3,3.38-1.45,1.77-2.75,3.66-4.12,5.5A21.51,21.51,0,0,1-395.85,210.45Z" transform="translate(594.55 -61.67)"/><path class="cls-53" d="M-366.13,183.17l9.33-6.59c0.35-.25.68-0.42,1,0.06a1.44,1.44,0,0,1,.66,1.59,8.11,8.11,0,0,1-2.31,1.86c-2.09,1.55-4.22,3-6.36,4.5-0.5.35-.87,0.82-1.33,1.2A8.06,8.06,0,0,1-366.13,183.17Z" transform="translate(594.55 -61.67)"/><path class="cls-42" d="M-402.57,200.38c0.32-1.19,1.53-1.43,2.33-2.07,1.76-1.4,3.66-2.63,5.5-3.95a1,1,0,0,1,1.09-.22,9.69,9.69,0,0,1,1.32,1.93c-2.3,1.62-4.57,3.27-6.88,4.88-0.69.48-1.26,1.08-1.92,1.58A10.81,10.81,0,0,1-402.57,200.38Z" transform="translate(594.55 -61.67)"/><path class="cls-45" d="M-401.13,202.53c0.38-1.35,1.72-1.7,2.65-2.45,1.61-1.3,3.34-2.44,5-3.63a1.66,1.66,0,0,1,1.11-.38A7.83,7.83,0,0,1-391.1,198c-3.05,1.94-6,4.1-8.85,6.27A6.46,6.46,0,0,1-401.13,202.53Z" transform="translate(594.55 -61.67)"/><path class="cls-54" d="M-444.81,205.46q0,17.79,0,35.57c0,0.49.33,1.18-.51,1.38l-0.1,0-0.09-.05q0-17.82,0-35.65a1.41,1.41,0,0,0-.47-1.5Z" transform="translate(594.55 -61.67)"/><path class="cls-53" d="M-335.64,161.81c0.93-1.24,2.34-1.88,3.54-2.78,1.81-1.36,3.67-2.66,5.54-4a7.88,7.88,0,0,0,.74-0.76,7.3,7.3,0,0,1,2,1.66c-1.61.54-2.76,1.8-4.14,2.69-1.72,1.11-3.34,2.38-5,3.56a1.34,1.34,0,0,0-.72,1A2.2,2.2,0,0,1-335.64,161.81Z" transform="translate(594.55 -61.67)"/><path class="cls-51" d="M-331.77,165.1c1.73-1.59,3.79-2.73,5.66-4.14,1.36-1,2.75-2,4.13-3a8.18,8.18,0,0,1,1.48,1.67,2.09,2.09,0,0,1-1.12,1.18c-2.82,2-5.71,3.94-8.44,6.08A2,2,0,0,1-331.77,165.1Z" transform="translate(594.55 -61.67)"/><path class="cls-55" d="M-330.11,166.83c0.36-1.1,1.46-1.38,2.25-2,2.41-1.81,4.89-3.52,7.35-5.26a7.94,7.94,0,0,1,1.46,1.91c-3.21,2.37-6.41,4.76-9.81,6.86A1.56,1.56,0,0,1-330.11,166.83Z" transform="translate(594.55 -61.67)"/><path class="cls-1" d="M-256.89,200.15c0-1.12,0-2.24,0-3.35,0-.92-0.65-1.61-0.59-2.59a2.49,2.49,0,0,1,1-1.68c0.43-.42,1.09-0.1,1.22.62a50.89,50.89,0,0,1,.46,9.94,1.47,1.47,0,0,1-1.84,1.21c-0.42-.12-0.3-0.42-0.3-0.66C-256.9,202.46-256.89,201.31-256.89,200.15Z" transform="translate(594.55 -61.67)"/><path class="cls-37" d="M-329,168.25l8.64-6.12a2.59,2.59,0,0,1,1.27-.62,3.1,3.1,0,0,1,.94,1.44,4.25,4.25,0,0,1-1.73,1.58c-2,1.5-4.12,2.72-5.93,4.41-0.59.46-1.46,0.39-2,1A1.62,1.62,0,0,1-329,168.25Z" transform="translate(594.55 -61.67)"/><path class="cls-36" d="M-365.14,185.78a1,1,0,0,1,.56-1l9.27-6.51a3.12,3.12,0,0,1,1.05,2.62,73.94,73.94,0,0,0-7.54,3.8c-0.78.39-1.5,0.89-2.27,1.31a0.85,0.85,0,0,0-.58.92A2.29,2.29,0,0,1-365.14,185.78Z" transform="translate(594.55 -61.67)"/><path class="cls-1" d="M-198.54,308.91c-2.48,0-2.48,0-2.48-2.47,0-2.14,0-2.17,2.2-2.13,0.94,0,2.19-.44,2.73.21s0.13,1.75.15,2.66a6.1,6.1,0,0,0,0,.84c0.13,0.78-.24,1-0.94.9S-198,308.91-198.54,308.91Z" transform="translate(594.55 -61.67)"/><path class="cls-1" d="M-449.69,304.3c2.45,0,2.45,0,2.45,2.38s0,2.23-2.25,2.23c-2.87,0-2.87,0-2.87-2.57,0-2,0-2,2.06-2h0.6Z" transform="translate(594.55 -61.67)"/><path class="cls-56" d="M-262.93,167.08c0.14,1.88.14,1.9,1.94,1.93,0.83,0,1.51.55,2.4,0.47,0.5,0,.24.64,0.25,1,0,1.19,0,1.18,1.11.78,0.35-.13.52,0.06,0.58,0.39,0.33,1.8.64,3.61,1,5.41,0.1,0.54-.11.75-0.63,0.69h-0.12c-1.85.08-1.84,0.08-1.94-1.74-0.09-1.63-.21-3.26-0.29-4.9a1,1,0,0,0-1.4-1,8.73,8.73,0,0,1-2.23.36,1.43,1.43,0,0,1-1.42-1.2C-263.82,168.5-264.19,167.5-262.93,167.08Z" transform="translate(594.55 -61.67)"/><path class="cls-57" d="M-492.92,308.71c1-1.49,2-2.95,3-4.42a1,1,0,0,1,.94-0.36h4.13a1.4,1.4,0,0,1-.76.88c-1.16,1-2.39,1.86-3.51,2.87A3.64,3.64,0,0,1-492.92,308.71Z" transform="translate(594.55 -61.67)"/><path class="cls-57" d="M-249.7,308.76c1-1.5,2-2.94,3-4.38a1,1,0,0,1,.9-0.46c1.38,0,2.77,0,4.52,0l-2.36,1.95c-0.71.58-1.48,1.09-2.12,1.74A3.83,3.83,0,0,1-249.7,308.76Z" transform="translate(594.55 -61.67)"/><path class="cls-1" d="M-113.89,327.48c0-2.11,0-2.11,2.11-2.11s2.06,0,2.06,2.05c0,2.35,0,2.35-2.35,2.35C-113.89,329.76-113.89,329.76-113.89,327.48Z" transform="translate(594.55 -61.67)"/><path class="cls-1" d="M-77.1,327.48c0,2.28,0,2.28-2.3,2.28-1.88,0-1.88,0-1.88-2,0-2.41,0-2.41,2.18-2.41C-77.1,325.37-77.1,325.37-77.1,327.48Z" transform="translate(594.55 -61.67)"/><path class="cls-58" d="M-306.35,136.5a0.84,0.84,0,0,0-1.17.12q-5.42,3.83-10.84,7.66a1.31,1.31,0,0,0-.25.51,1.45,1.45,0,0,1-.24-1c0.57-.9,1.59-1.22,2.4-1.81,4.25-3.06,8.53-6.07,12.81-9.07,0.24-.17.46-0.66,0.89-0.26A46.06,46.06,0,0,0-306.35,136.5Z" transform="translate(594.55 -61.67)"/><path class="cls-27" d="M-325.77,168.94a2,2,0,0,1,1.08-1.35c2.18-1.56,4.39-3.1,6.59-4.64a6.68,6.68,0,0,1,1.46,2.17C-319.64,166.52-322.67,167.81-325.77,168.94Z" transform="translate(594.55 -61.67)"/><path class="cls-59" d="M-307.21,117.17c-1.33.83-2.56,1.55-3.74,2.35-0.52.35-.68,0.14-0.81-0.32a2.3,2.3,0,0,1,.38-2.12c0.38-.51.79-0.71,1.24-0.13a0.73,0.73,0,0,0,1.29.06C-308.3,116.41-307.83,116.64-307.21,117.17Z" transform="translate(594.55 -61.67)"/><path class="cls-60" d="M-335.09,311.25c-2.63,0-5.26.08-7.89,0-1.17,0-1.56.23-1.55,1.49,0.08,5.66,0,11.32,0,17-0.45-.22-0.23-0.63-0.23-0.93,0-5.56,0-11.11,0-16.67,0-.83.21-1.09,1.06-1.07,2.4,0.06,4.8,0,7.19,0A2.93,2.93,0,0,1-335.09,311.25Z" transform="translate(594.55 -61.67)"/><path class="cls-61" d="M-261.45,118.49l-0.29-.2a9.29,9.29,0,0,1,11.63,1l-0.33.3a0.59,0.59,0,0,1-.56-0.16,4,4,0,0,0-.82-0.64,9.68,9.68,0,0,0-1-.47,9.21,9.21,0,0,0-1.3-.42,12,12,0,0,0-5.51.21c-0.22.07-.44,0.12-0.65,0.21a2.62,2.62,0,0,1-1.07.33Z" transform="translate(594.55 -61.67)"/><path class="cls-62" d="M-259.29,315.08c0-1,0-1.91,0-2.87a0.78,0.78,0,0,0-1-1c-2.27,0-4.54,0-6.81,0,2.48-.37,5-0.08,7.47-0.17,0.25,0,.53,0,0.51.34C-259.16,312.64-258.77,313.89-259.29,315.08Z" transform="translate(594.55 -61.67)"/><path class="cls-62" d="M-259.29,329.72c0-1,0-1.91,0-2.86a0.77,0.77,0,0,0-1-1c-1.63,0-3.25,0-4.88,0a1.42,1.42,0,0,1-1.13-.2c2.07,0,4.15.07,6.22,0,0.81,0,1.09.25,1,1C-259.2,327.73-258.76,328.77-259.29,329.72Z" transform="translate(594.55 -61.67)"/><path class="cls-49" d="M-307.82,142.3a1.65,1.65,0,0,1,0-1.66Q-307.82,141.47-307.82,142.3Z" transform="translate(594.55 -61.67)"/><path class="cls-1" d="M-391.4,96.12a95.11,95.11,0,0,0-38.19,97.75,0.58,0.58,0,0,0,.23,0q9.61-6,19.22-12a0.73,0.73,0,0,0,.39-1,9.41,9.41,0,0,1-.5-2c-0.14-2.5.36-5,.4-7.47a2.48,2.48,0,0,1,.07-0.47,2,2,0,0,1,1.25-1.75,0.52,0.52,0,0,0,.27-0.92,1.24,1.24,0,0,1-.25-0.88,3.24,3.24,0,0,0-2.59-3.25c-0.25-.07-0.57,0-0.62-0.43-0.2-1.73-1.07-3.31-1-5.12a10.35,10.35,0,0,0-.66-3.64,5.77,5.77,0,0,0-5.48-4.1,1.2,1.2,0,0,0-.68.11,5.38,5.38,0,0,0-2.68,4.3,1.87,1.87,0,0,1-.67,1.58l-0.23-1.64c0-.23.07-0.6-0.16-0.65-1.21-.26-0.62-1.13-0.52-1.69,0.29-1.61.67-3.2,1.12-4.77a46.18,46.18,0,0,1,4.42-11.33c1.48-2.49,3.54-4.08,6.63-3.81,0.24,0,.48,0,0.72,0a1,1,0,0,0,1-.79c0.82-2.56,1.2-2.82,3.87-2.84a1.68,1.68,0,0,0,1.38-.22c1.13-1.21,2.54-.59,3.83-0.57a1.11,1.11,0,0,1,1.09,1.43c-0.1,1.24.48,1.54,1.66,0.94a4.08,4.08,0,0,1,2.18-.53,1,1,0,0,1,.94.44,0.91,0.91,0,0,0,1.2.66c0.63-.22.27-0.82,0.32-1.25,0.07-.58,1.2-1.94,1.62-1.76,1.24,0.53,2.51.2,3.76,0.27,0.48,0,1.13.29,1.2-.67,0-.36.79-0.32,0.93-0.15,0.34,0.43,1.06.33,1.2,1.06s0.8,0.25,1.23.32a0.5,0.5,0,0,0,.64-0.51,11.62,11.62,0,0,1,1.43-3.78c0.39-.81.11-2.26-0.28-2.4-1-.34-0.54-1-0.69-1.49-0.4-1.37.61-2.17,1.25-3.1,0.17-.24.74-0.55,0.89-0.11,0.37,1.09,1.45,2,1.05,3.28a2.18,2.18,0,0,0,.4,2c0.4,0.6.76,1.12,0.22,1.75,0.79,0.62,1.76-.48,2.4.36s0.14,1.65,0,2.49c2.09,0,2.23-.13,2.47-2.15a0.73,0.73,0,0,1,.34-0.71,1.84,1.84,0,0,0,1.11-2.24c-0.12-.9.5-0.95,1-0.74,1,0.4,2.13.83,1.71,2.38a6,6,0,0,0,0,1.55,4.29,4.29,0,0,1-3.33,3.58,2.85,2.85,0,0,0-3,2.85c-0.11,1.14-.55,2.22-0.58,3.39a2.16,2.16,0,0,1-1.35,1.86c-1.18.58-2.36,1.16-3.58,1.66a1.28,1.28,0,0,0-.93.8,11.43,11.43,0,0,1-1.4,3,4.56,4.56,0,0,0,.28,5.25c2.64,3.49,5.82,6.14,10.39,6.56a0.72,0.72,0,0,1,.83.87c0,0.73,0,1.47,0,2.41a61.09,61.09,0,0,0,5.61-3.71,3.21,3.21,0,0,0,1.22-2.66,11,11,0,0,0-1.27-4.35c-0.19-.32-0.38-1,0.22-1.21s0.56-.57.56-1c0-1.72,0-3.44,0-5.16a0.65,0.65,0,0,1,.82-0.81,20,20,0,0,0,3,0,2.35,2.35,0,0,1,1.94.79c0.67,0.63,1,1.68,2.11,1.76a0.7,0.7,0,0,1,.36.57c-0.15,1.2.59,2.47-.35,3.62a2.09,2.09,0,0,0,0,1.15,0.75,0.75,0,0,0,.31,0c0.29-.82.95-0.1,1-0.05,0.85,0.89,1.59.3,2.3-.14,3.48-2.17,6.94-4.36,10.41-6.54,2.69-1.69,5.38-3.41,8.09-5.07a2.38,2.38,0,0,0,1-2.54c-0.1-.82-1-0.34-1.51-0.38s-0.62-.33-0.61-0.78a2.65,2.65,0,0,0-.66-2.34c-1-.7-0.77-1.51-0.67-2.41a7.24,7.24,0,0,1,1.73-4,5.52,5.52,0,0,0,1.37-3.26c0-.55.14-0.88-0.64-1.07-0.49-.12-1.46,0-1.54-1,0.53-.43,1.41.71,1.6-0.4,0.09-.53.64-1.51-0.63-1.64a0.51,0.51,0,0,1-.34-0.44c-0.66-1.41-1.19-1.62-2.39-.89-0.31.19-.52,0.75-0.92,0.31a1,1,0,0,1,0-1.22,2.26,2.26,0,0,0,.42-1.68c0.09-1.48-.63-2.81-0.81-4.26a7,7,0,0,0-7.33-6c-1.68,0-3.37.48-5.09,0.54-0.74,0-1.12,0-1.1-.75,0-.52-0.05-0.85-0.69-0.77a0.47,0.47,0,0,1-.54-0.6c0-.44.39-0.33,0.63-0.33A9,9,0,0,0-352,99a0.66,0.66,0,0,0,.61-0.5A0.57,0.57,0,0,0-352,98c-1.09-.28-2.21-0.66-3.31-0.12a0.43,0.43,0,0,1-.65-0.25,1,1,0,0,1,.66-1.62,22.1,22.1,0,0,1,3.75-1.42c2.4-.51,2.92-1.8,1.72-3.75,1.62-.35,2.84-1.65,4.5-1.92a0.26,0.26,0,0,0,.21-0.36c-0.17-.51-0.16-1.17-1-1.08s-1.5-.18-2.3.44c-0.53.41-1.62,0.13-2.46,0.09s-1.37,0-.91,1.08a0.54,0.54,0,0,1-.15.72,17,17,0,0,1-3.72,3,8.07,8.07,0,0,0-3.8,3.57,2,2,0,0,1-1.82,1.43,1.55,1.55,0,0,0-1.3,1.27c-0.16.53-.28,1.08-0.45,1.61-0.28.87-2,2.11-2.64,1.75a1.52,1.52,0,0,0-1.82.15c-1.06.83-2.49,0-3.54,1a0.9,0.9,0,0,1-1.23-.62c-0.14-.55.38-0.78,0.91-0.81,0.3,0,.78.12,0.81-0.29,0.08-.92.76-1,1.4-1.22a1.45,1.45,0,0,0,.8-2c-0.84-1.09.12-1.13,0.68-1.22a5.72,5.72,0,0,1,2,.08c1.05,0.22,1.07-.31,1-1.1a0.85,0.85,0,0,0-.86-0.8,0.71,0.71,0,0,1-.61-1,0.93,0.93,0,0,1,1.07-.28,0.65,0.65,0,0,1,.59.52,0.73,0.73,0,0,0,.91.38,0.73,0.73,0,0,0,.7-0.69c-0.29-1.62.93-1.63,1.92-1.92a3.22,3.22,0,0,0,2.44-1.73c0.3-.74.37-1.24-0.74-1a3.3,3.3,0,0,0-1.52.61,13.92,13.92,0,0,1-3.48,2.09c-0.41.16-1,.54-1.32,0s0.26-.92.61-1.26A5.5,5.5,0,0,1-363,90.16a19,19,0,0,1,5.34-1.39,17.35,17.35,0,0,0,4.65-1.2,16.75,16.75,0,0,1,3.72-.48c2.7-.36,5.36.45,8.1,0.07,3.81-.53,7.68.26,11.55-0.4,1.36-.23,2.88.06,4.31-0.47a3.93,3.93,0,0,1,1.55,0,9.37,9.37,0,0,1,5.31,2.26,10.83,10.83,0,0,0,2.85,2c0.54,0.2,1,.43,1.37-0.35a0.92,0.92,0,0,1,1.17-.32c0.54,0.07.36,0.62,0.28,0.88-0.43,1.43.8,1.07,1.16,0.87,1-.59,2-0.29,3-0.2,2.9,0.28,3,.63,2,3.36-0.58,1.55-1.92,3.16-.16,4.85a3.7,3.7,0,0,0,1.36,1.22,0.5,0.5,0,0,1,.45.56c0,0.43-.32.36-0.59,0.39-1.08.11-1.56,0.73-1.18,1.66a2.39,2.39,0,0,0,1.35,1c0.78,0.4,1.85.89,1.87,1.82,0,0.71-1,.41-1.62.56a0.45,0.45,0,0,0-.15.13,1,1,0,0,0,.43.69c0.4,0.58,1,1.17.58,1.93s-1.4.8-2.25,0.82a2.2,2.2,0,0,1-.83-0.44c-0.9-.33-1.78-0.75-2.61.19s-0.24,1.78.31,2.53a10.58,10.58,0,0,0,3.33,2.95,1.33,1.33,0,0,0,1.65,0q7.2-4.58,14.44-9.1l12.73-8A95.55,95.55,0,0,0-391.4,96.12Zm2.41,27.5a1.25,1.25,0,0,0-.42.19,1,1,0,0,1,.43,1.41,1.8,1.8,0,0,1-2,.11,2.08,2.08,0,0,0-2.51.36c-0.91.74-2,1.3-2.91,2a0.94,0.94,0,0,1-.91,0,6.63,6.63,0,0,0-1.62-1.06c-0.16-.08-0.46-0.32-0.25-0.57a1,1,0,0,1,.88-0.64,2,2,0,0,0,1.29-.11,1.36,1.36,0,0,0,.72-1.81,1.17,1.17,0,0,0-1.68,0c-0.49.52-.59,0.11-0.76-0.14a2.25,2.25,0,0,1,.85-3.43c0.72-.42,1.89-0.49,1.69-1.81,0-.29.16-0.74-0.31-0.77s-1-.29-1.29.27a7.29,7.29,0,0,1-1.92,1.95,2.21,2.21,0,0,0-1,2.09,4.34,4.34,0,0,1-2,1.63,0.35,0.35,0,0,1-.33-0.4,3.72,3.72,0,0,1-.09-1.36c1-.44,1-1.47,1.5-2.18,0.76-1.05,1.39-2.2,2.68-2.75a2.92,2.92,0,0,1,3.64,1,1.34,1.34,0,0,0,.8.48,2.44,2.44,0,0,1,1.17.78c0.51,0.56.9,1.5,1.87,1.13s0.19-1.19.39-1.78a9.06,9.06,0,0,1,1.71-3.35,0.58,0.58,0,0,1,.83-0.17,0.55,0.55,0,0,1-.09.91c-0.77.31-.63,0.92-0.64,1.5,0,1.2,0,2.4-.05,3.6a1,1,0,0,0,.66,1.1,1,1,0,0,1,1.11.92A1.13,1.13,0,0,1-389,123.63Zm16.9-5.21c0.19-.54-0.06-1.34.95-1.25a8.44,8.44,0,0,0,0-2c-0.33-1.48.89-4,2.31-4.29,0.8-.17.85,0.7,1,1.18a7.41,7.41,0,0,1,0,1.79c0,0.88.45,1.23,1.29,0.89s1.82-.81,2.74-1.18c1.52-.62,2-0.43,3.11,1.22,0.38,0.55.52,1.37,1.63,0.77a1.22,1.22,0,0,1,1.51,1,0.87,0.87,0,0,0,.7.83,4.66,4.66,0,0,1,2.67,1.88,1.77,1.77,0,0,1,.12,2.37,1.55,1.55,0,0,0,.67,2.49,5.29,5.29,0,0,1,2.46,1.61,3,3,0,0,0,1.59,1c0.54,0.1,1.21.37,1.1,0.88s0.11,1.49-.61,1.94a0.75,0.75,0,0,0-.36.44,1.22,1.22,0,0,1-1.59,1,1.9,1.9,0,0,1-1.44-1.38,4,4,0,0,0-1.33-1.61,0.94,0.94,0,0,0-1.44.73,3.61,3.61,0,0,0,1.3,3.4,11.44,11.44,0,0,0,1.16,1c1,0.67.87,1.67,0.74,2.64a0.73,0.73,0,0,1-1.35.39c-0.75-1-2-.42-2.84-1a0.33,0.33,0,0,0-.43.3,1.17,1.17,0,0,0,.21,1,4,4,0,0,0,1.79,1,0.46,0.46,0,0,1,.42.49,0.45,0.45,0,0,1-.49.27c-1,.08-2.16.48-2.77-0.86a1.23,1.23,0,0,0-.58-0.4,3.3,3.3,0,0,1-2-2.15,2.24,2.24,0,0,0-2.49-1.69,3.38,3.38,0,0,1-1.31-.06,0.83,0.83,0,0,1-.83-0.85,0.89,0.89,0,0,1,.91-0.81c2.06,0.38,1.94-1.39,2.41-2.46a1.59,1.59,0,0,1,1.17-1.18,0.88,0.88,0,0,0,.85-1c-0.1-1-.33-2-0.52-3,0-.26-0.31-0.18-0.49-0.22a5.33,5.33,0,0,1-4.45-4c-0.29-1-1.14-.53-1.76-0.26a13.78,13.78,0,0,1-7.66,1c-1.2-.19-1.27-0.61-0.6-1.59a1.24,1.24,0,0,0-.79-1.85c-0.9-.23-0.69-0.8-0.54-1.27a9.36,9.36,0,0,1,3.51-4.74,1.74,1.74,0,0,1-.06.68c-1.67,2.39-1.8,4.43-.37,6.6C-372.61,118.38-372.14,118.55-372.09,118.42ZM-369,96.1c-0.9,1.29-2.52,1.79-3.41,3.12a0.81,0.81,0,0,1-1.23-.18c-0.44-.54-0.29-1.43-1.06-1.78a0.4,0.4,0,0,1,0-.32c1.16-.94,1.9-2.4,3.45-2.86a6.44,6.44,0,0,1,.84-0.1,4.54,4.54,0,0,1,1.72,1.47C-368.43,95.65-368.83,95.89-369,96.1Z" transform="translate(594.55 -61.67)"/><path class="cls-1" d="M-519,326.57a0.78,0.78,0,0,1-.29-1.1,17.53,17.53,0,0,0,1.74-11.63c-0.92-6-3.9-8.79-8.79-9.68a21.55,21.55,0,0,0-6.69-.15c-4.63.61-7.71,3-9,7.58a19.5,19.5,0,0,0,.48,12.35,8.76,8.76,0,0,0,6,5.71,19.31,19.31,0,0,0,10.64-.07c0.92-.26,1.88-1.1,2.75.13a1,1,0,0,0,.58.06H-516C-517,328.63-518,327.59-519,326.57Zm-4.55-5.84c-0.77,3.42-3,5.22-6.43,5.28s-5.71-1.67-6.54-5.11a15.47,15.47,0,0,1,.29-8.63c0.91-2.75,3-4.13,6.18-4.12s5.19,1.39,6.14,4.17a14.93,14.93,0,0,1,.72,4.83A15.89,15.89,0,0,1-523.57,320.72Z" transform="translate(594.55 -61.67)"/><path class="cls-63" d="M-309.45,161.75c0.72-1.56,2.31-2.16,3.57-3.07,7-5.07,14.13-10.05,21.21-15.06A2,2,0,0,1-283,143a65.39,65.39,0,0,1-10.26,9.07,114.84,114.84,0,0,1-15.27,9.31A7.16,7.16,0,0,1-309.45,161.75Z" transform="translate(594.55 -61.67)"/><path class="cls-1" d="M-92.49,304.87a0.9,0.9,0,0,0-1-.57c-1.32,0-2.64.06-4,0a1.21,1.21,0,0,0-1.37.95c-2.26,5.48-4.58,10.95-6.87,16.42l-3.41,8.12c1.7,0,3.26,0,4.81,0a1,1,0,0,0,1.18-.86c0.49-1.47,1.06-2.92,1.54-4.4a1,1,0,0,1,1.19-.84q4.67,0.06,9.35,0a1.12,1.12,0,0,1,1.25.93c0.52,1.51,1.13,3,1.69,4.47a0.85,0.85,0,0,0,.92.7c1.72,0,3.43,0,5.31,0C-85.47,321.34-89,313.11-92.49,304.87Zm-0.1,14.32h-6.93l3.76-9.74c1.26,3.19,2.43,6.17,3.63,9.14C-91.91,319.13-92.13,319.19-92.58,319.19Z" transform="translate(594.55 -61.67)"/><path class="cls-1" d="M-556.62,316.74a5.69,5.69,0,0,0-5.47-5.49c-3.19-.35-6.39-0.12-9.59-0.17-2.64,0-2.58,0-2.66,2.58,0,1.11.33,1.3,1.34,1.3a75.55,75.55,0,0,1,8.87.14,2.61,2.61,0,0,1,2.46,2.08c0.26,1,.07,1.3-1,1.3-2.79,0-5.6-.3-8.38.22a5.21,5.21,0,0,0-4.48,6,5.14,5.14,0,0,0,5.4,5.09c2.08,0,4.16,0,6.24,0h0c2.2,0,4.4,0,6.6,0,0.49,0,.84,0,0.83-0.68C-556.57,325-556.31,320.85-556.62,316.74Zm-8.65,9.38c-1.15-.05-2.31-0.07-3.46-0.16a1.65,1.65,0,0,1-1.6-1.86,1.64,1.64,0,0,1,1.55-1.79,48.78,48.78,0,0,1,6.68-.19,0.48,0.48,0,0,1,.58.57,2.35,2.35,0,0,0,0,.24C-561.34,326.08-561.34,326.08-565.27,326.12Z" transform="translate(594.55 -61.67)"/><path class="cls-1" d="M-278.94,316.68c-0.28-3.19-2.31-5.09-5.52-5.43s-6.39-.11-9.59-0.16c-2.56,0-2.51,0-2.57,2.55,0,1,.2,1.35,1.29,1.34a76.31,76.31,0,0,1,8.87.12A2.58,2.58,0,0,1-284,317c0.38,1.33.31,1.38-1.06,1.42-2.71.08-5.44-.26-8.14,0.22a5.18,5.18,0,0,0-4.64,5.93c0.26,3.25,2.25,5.09,5.6,5.14,2,0,4,0,6,0h6.6c0.44,0,.89.09,0.87-0.62C-278.87,325-278.58,320.82-278.94,316.68Zm-7.75,9.4h-1a27.54,27.54,0,0,1-3.4-.11,1.69,1.69,0,0,1-1.53-1.81,1.6,1.6,0,0,1,1.39-1.8c2.29-.44,4.61-0.15,6.92-0.22,0.44,0,.47.28,0.51,0.63C-283.44,326-283.49,326.08-286.69,326.08Z" transform="translate(594.55 -61.67)"/><path class="cls-1" d="M-349.15,317.33c-0.16-3.79-2.14-5.71-5.91-6.11-3.07-.32-6.15-0.1-9.23-0.14-2.6,0-2.55,0-2.62,2.62,0,1,.2,1.27,1.23,1.27a81,81,0,0,1,8.87.12,2.58,2.58,0,0,1,2.51,2c0.33,1.3.31,1.31-1,1.35-2.75.08-5.52-.26-8.26,0.23-3.17.57-4.8,2.75-4.54,6a5.1,5.1,0,0,0,5.4,5.07c2.08,0,4.16,0,6.24,0h0c2.2,0,4.4,0,6.6,0,0.5,0,.81,0,0.81-0.69C-349.11,325.16-349,321.24-349.15,317.33Zm-8.86,8.75a27.73,27.73,0,0,1-3.4-.11,1.7,1.7,0,0,1-1.54-1.82,1.61,1.61,0,0,1,1.41-1.79c2.29-.43,4.61-0.14,6.92-0.21a0.43,0.43,0,0,1,.49.52,2.22,2.22,0,0,0,0,.24C-353.93,326.08-353.93,326.08-358,326.08Z" transform="translate(594.55 -61.67)"/><path class="cls-1" d="M-406.2,317.12a5.79,5.79,0,0,0-5.51-5.87c-3.15-.35-6.31-0.12-9.47-0.17-2.78,0-2.73,0-2.79,2.79,0,1,.3,1.09,1.15,1.09,3,0,6-.18,9,0.13a2.64,2.64,0,0,1,2.51,2c0.24,0.85.23,1.36-1,1.36-2.79,0-5.6-.3-8.38.21-3.24.59-4.78,2.84-4.46,6.41a5.09,5.09,0,0,0,5.32,4.64c2.08,0,4.16,0,6.24,0h0c2.2,0,4.4,0,6.6,0,0.6,0,.83-0.12.83-0.78C-406.18,325-406.1,321.07-406.2,317.12Zm-5.17,8.71c-0.85.72-2.29,0.13-3.38,0.26a28.17,28.17,0,0,1-3.79-.15,1.65,1.65,0,0,1-1.41-1.79,1.55,1.55,0,0,1,1.27-1.77c2.33-.49,4.7-0.16,7-0.24a0.39,0.39,0,0,1,.43.45c0,0.12,0,.24,0,0.36C-411.22,323.94-410.86,325.4-411.36,325.83Z" transform="translate(594.55 -61.67)"/><path class="cls-1" d="M-154.9,317a5.74,5.74,0,0,0-5.46-5.77c-3.19-.35-6.39-0.12-9.59-0.17-2.71,0-2.67,0-2.71,2.76,0,0.91.24,1.12,1.13,1.13a86.3,86.3,0,0,1,9.11.14,2.61,2.61,0,0,1,2.43,2c0.34,1.17.17,1.33-1.07,1.37-2.79.08-5.6-.27-8.38,0.26-3.1.59-4.7,2.9-4.4,6.25a5.11,5.11,0,0,0,5.32,4.78c2.08,0,4.16,0,6.24,0h0c2.2,0,4.4,0,6.6,0,0.57,0,.86-0.07.85-0.76C-154.87,325-154.8,321-154.9,317Zm-7.83,9.05h-0.84V326c-1.12,0-2.23,0-3.35,0a1.63,1.63,0,0,1-1.71-1.76,1.65,1.65,0,0,1,1.54-1.91,50.11,50.11,0,0,1,6.69-.18c0.45,0,.48.27,0.52,0.62C-159.48,326.08-159.47,326.08-162.72,326.08Z" transform="translate(594.55 -61.67)"/><path class="cls-64" d="M-409.27,216.46c0.42,1.27.33,1.44-.88,1.44-3.8,0-7.6,0-11.4,0-0.57,0-1.46.17-.93-1a2.63,2.63,0,0,1,1.83-.37C-416.86,216.51-413.06,216.69-409.27,216.46Z" transform="translate(594.55 -61.67)"/><path class="cls-65" d="M-409.27,216.46c-0.12.65-.63,0.49-1,0.49h-12.16a1.82,1.82,0,0,1,.67-1.24c4-.06,8-0.14,12,0Z" transform="translate(594.55 -61.67)"/><path class="cls-66" d="M-409.77,215.74a0.93,0.93,0,0,1-.88.25h-10.18a1,1,0,0,1-1-.28l0.22-.22a2.78,2.78,0,0,1,1.14-.31c3.4,0,6.81-.1,10.21.07Z" transform="translate(594.55 -61.67)"/><path class="cls-67" d="M-410.24,215.25a1,1,0,0,1-1,.26l-10.36,0a1.61,1.61,0,0,1,.78-0.7,91.19,91.19,0,0,1,10.06,0A0.79,0.79,0,0,1-410.24,215.25Z" transform="translate(594.55 -61.67)"/><path class="cls-68" d="M-410.75,214.83a1,1,0,0,1-.9.2h-8.15a1.07,1.07,0,0,1-1-.24,1.24,1.24,0,0,1,.74-0.44,54.58,54.58,0,0,1,8.59,0Z" transform="translate(594.55 -61.67)"/><path class="cls-69" d="M-411.48,214.37a27.52,27.52,0,0,1-5.55.16,6.82,6.82,0,0,1-3-.19,2.37,2.37,0,0,1,1.19-.49,32.4,32.4,0,0,1,6.21,0A2.83,2.83,0,0,1-411.48,214.37Z" transform="translate(594.55 -61.67)"/><path class="cls-70" d="M-412.67,213.87a18.92,18.92,0,0,1-6.21,0A9,9,0,0,1-412.67,213.87Z" transform="translate(594.55 -61.67)"/><path class="cls-71" d="M-249.92,120.71c0.44,0.73.2,1.18-.61,1.18q-6,0-12,0c-0.83,0-1-.46-0.62-1.19l0.21,0a44.47,44.47,0,0,0,5.75.1c2.36,0,4.72.14,7.07-.1Z" transform="translate(594.55 -61.67)"/><path class="cls-72" d="M-251.65,118.61a1.38,1.38,0,0,1,.77.65c-0.08.63-.61,0.57-1,0.57q-4.66.06-9.33,0c-0.4,0-.93,0-1-0.6l0.75-.74v0.12A64.83,64.83,0,0,1-251.65,118.61Z" transform="translate(594.55 -61.67)"/><path class="cls-45" d="M-250.41,119.75a0.51,0.51,0,0,1,.26.46c-0.07.65-.6,0.57-1,0.58q-5.39.06-10.77,0c-0.4,0-.93.06-1-0.59l0.26-.46C-258.58,119.77-254.5,119.74-250.41,119.75Z" transform="translate(594.55 -61.67)"/><path class="cls-73" d="M-250.41,119.75a0.94,0.94,0,0,1-.88.24h-10.49a0.92,0.92,0,0,1-.87-0.25l0.46-.51a0.9,0.9,0,0,0,.87.28h9.7a0.82,0.82,0,0,0,.76-0.25l0.45,0.29A2,2,0,0,1-250.41,119.75Z" transform="translate(594.55 -61.67)"/><path class="cls-74" d="M-262.92,120.2a0.92,0.92,0,0,0,.87.27h11a0.93,0.93,0,0,0,.88-0.26l0.24,0.5h0a1.4,1.4,0,0,1-1,.24H-262.1a1.4,1.4,0,0,1-1-.24h0Z" transform="translate(594.55 -61.67)"/><path class="cls-75" d="M-251.65,118.61a2.85,2.85,0,0,1-1.74.17c-2.3,0-4.61,0-6.91,0a1.54,1.54,0,0,1-1.14-.18l1-.51a54.31,54.31,0,0,1,7.89,0Z" transform="translate(594.55 -61.67)"/><path class="cls-76" d="M-260,117.89a9.6,9.6,0,0,1,6.21-.24c0.2,0.38,0,.53-0.35.53-1.9,0-3.8.06-5.69,0C-260,118.14-259.95,118-260,117.89Z" transform="translate(594.55 -61.67)"/><path class="cls-77" d="M-260,117.89a29,29,0,0,0,6,.11,0.85,0.85,0,0,0,.25-0.35l1.19,0.46c-1.6.47-3.23,0.14-4.84,0.18a6.61,6.61,0,0,1-3-.19Z" transform="translate(594.55 -61.67)"/><path class="cls-78" d="M-263.12,120.7h13.17c-0.06.61-.54,0.48-0.91,0.48h-11.36C-262.59,121.19-263.06,121.31-263.12,120.7Z" transform="translate(594.55 -61.67)"/></svg>