<?xml version="1.0" encoding="utf-8"?>
<!-- Generator: Adobe Illustrator 26.0.2, SVG Export Plug-In . SVG Version: 6.00 Build 0)  -->
<svg version="1.1" id="Layer_1" xmlns="http://www.w3.org/2000/svg" xmlns:xlink="http://www.w3.org/1999/xlink" x="0px" y="0px"
	 viewBox="0 0 2000 2000" style="enable-background:new 0 0 2000 2000;" xml:space="preserve">
<style type="text/css">
	.st0{fill:#EB6C23;}
	.st1{fill:#016098;}
</style>
<g>
	<path class="st0" d="M1498.64,746.22c-4.73-105.37-65.41-180.51-177.85-213.69c-52.46-15.53-105.99-20.22-160.67-16.1
		c-65.77,4.85-124.86,33.83-186.52,53.9C860,607.48,746.05,643.53,633.48,684.12c-68.43,24.59-115.49,69.57-135.54,131.61
		c-49.86,154.29,100.49,479.99,134.93,553.36c19.97,42.91,44.64,82.31,76.77,115.59c53.73,55.95,117.51,80.59,192.04,73.33
		c125.14-12.16,210.45-91.48,282.49-195.21C1208.44,1327.84,1507.17,936.05,1498.64,746.22z M1554.55,1021.55
		c-68.97,128.87-147.25,252.57-234.69,369.69c-0.51,0.68-1.02,1.37-1.53,2.05c-93.71,125.34-204.71,221.02-367.51,235.7
		c-97,8.85-180.07-21-249.99-88.58c-41.72-40.19-73.85-87.8-99.94-139.56c-8.62-17.06-17.05-34.2-25.3-51.42
		c-48.61-101.49-170.06-351.55-169.6-507c0.38-130.4,66.88-226.03,195.54-268.91c146.5-48.95,294.75-92.48,442.57-137.35
		c80.21-24.14,157.08-59.2,242.64-64.98c71.2-5.02,140.95,0.77,209.15,19.49c131.57,35.98,277.53,121.14,205.02,357.4
		C1678.14,822.22,1554.55,1021.55,1554.55,1021.55z"/>
	<path class="st1" d="M938.34,1158.76c-0.36-4.42-4.39-44.27-34.38-82.53c-17.2-21.95-39.72-39.4-66.93-51.88
		c-33.43-15.33-74.14-23.18-120.99-23.31c-0.26,0-0.51,0-0.77,0c-166.43,0-243.19,157.45-268.48,225.22
		c-1.46,3.92-5.02,4.3-6.07,4.33c-1.09,0.03-4.7-0.21-6.37-4.16l-87.54-207.42c-2.56-6.2-8.6-10.23-15.38-10.25l-66.35-0.19
		c-0.02,0-0.03,0-0.05,0c-5.6,0-10.79,2.79-13.89,7.47c-3.11,4.68-3.64,10.56-1.46,15.7l136.21,324.84
		c1.11,2.63,1.64,5.41,1.57,8.26c-0.06,2.38-0.52,4.65-1.37,6.76c-11.89,29.68-49.58,94.91-142.37,59.6
		c-6.87-2.61-14.52,0.54-17.42,7.19l-25.25,57.87c-1.96,4.52-1.85,9.64,0.29,14.04c2.14,4.39,6.09,7.62,10.82,8.86
		c28.03,7.39,54.59,11.08,79.47,11.08c19.79,0,38.53-2.34,56.08-7.02c32.7-8.72,61.58-25.6,85.84-50.16
		c42.55-43.08,58.65-96.72,63.94-114.35l0.61-2.05c20.61-68.72,44.13-116.85,60.23-145.13c44.57-78.28,94.78-117.96,149.26-117.96
		c0.11,0,0.22,0,0.33,0c88.93,0.26,113.94,27.75,120.93,44.09c0.92,2.17,0.7,4.54-0.61,6.5c-1.27,1.91-3.31,3-5.6,3
		c-0.01,0-0.01,0-0.02,0l-54.19-0.16l-0.28,0.01c-57.31,3.06-104.27,19.14-135.8,46.5c-27.79,24.11-42.62,56.09-41.76,90.04
		c0.79,31.27,14.65,60.58,39.02,82.54c26.48,23.86,62.43,36.53,103.96,36.65c0.09,0,0.17,0,0.26,0c41.16,0,94.55-28.11,109.95-36.73
		c1.03-0.57,2.14-0.86,3.3-0.86c0.01,0,0.01,0,0.02,0l6.73,0.02l-0.06,20.26c-0.01,2.37,0.91,4.61,2.58,6.29
		c1.67,1.68,3.9,2.61,6.28,2.62l66.21,0.19c0.01,0,0.02,0,0.02,0c4.89,0,8.87-3.97,8.89-8.86l0.66-225.54
		c0-0.37-0.03-0.71-0.07-1.09L938.34,1158.76z M745.34,1309.79c-21.27-1.94-36.14-6.89-39.61-24.6
		c-3.67-18.67,7.33-31.88,32.68-39.25c25.06-7.32,48.68-10.97,72.21-11.17c6.43-0.04,14.64,0.78,17.41,4.88
		c2.33,3.46,1.49,10.17-2.52,19.95l0,0.01c-12.07,29.73-44.31,50.19-78.78,50.19C746.27,1309.8,745.8,1309.8,745.34,1309.79z
		 M1276.83,1271.86c-0.03,43.16-15.16,76.41-44.95,98.84c-28.58,21.51-69.98,32.42-123.07,32.42c-0.1,0-0.21,0-0.31,0
		c-54.54-0.04-108.9-17.08-153.05-47.97c-6.39-4.47-12.44-12.39-5.02-24.73l34.06-57.86c3.51-5.52,7.17-8.49,11.51-9.35
		c4.06-0.81,8.29,0.38,12.91,3.62c30.28,20.69,65.01,31.66,100.39,31.68c0.03,0,0.07,0,0.1,0c22.35,0,46.19-6.26,46.21-23.86
		c0.01-14.18-18.3-20.25-47.85-25.45c-97.61-16.2-147.1-58.97-147.04-127.1c0.03-39.77,15.6-72.06,45.02-93.39
		c27.67-20.05,67.97-30.65,116.54-30.65c0.09,0,0.18,0,0.27,0c44.85,0.04,86.2,10.81,130.14,33.9c5.76,2.89,8.01,7,8.86,9.94
		c1.29,4.46,0.4,9.44-2.58,14.4l-33.25,56.28c-5.65,9.4-14.12,11.86-23.88,6.97l-0.1-0.05c-24.43-12.96-54.11-20.41-81.42-20.43
		c-0.04,0-0.09,0-0.13,0c-36.83,0-41.1,12.38-41.11,21.69c-0.01,15.37,11.49,20.93,58.58,28.33c42.98,7.47,74.99,19.62,97.93,37.16
		C1262.97,1207.18,1276.85,1235.99,1276.83,1271.86z M1630.05,1013.13c3.18,3.05,4.78,7.33,4.78,12.73l-0.26,328.62
		c-0.01,9.46-4.17,16.09-12.37,19.73l-0.11,0.05c-44.58,18.54-99.4,29.16-150.44,29.16c-0.1,0-0.2,0-0.3,0
		c-55.86-0.04-99.45-14.99-129.58-44.41c-30.39-29.68-45.78-72.85-45.74-128.3l0.16-205.12c0.01-10.81,6.74-17.27,17.99-17.27
		c0.01,0,0.02,0,0.02,0l85.23,0.07c11.27,0.01,18,6.47,17.99,17.29l-0.17,205.84c-0.04,45.7,15.66,64.35,54.17,64.38
		c0.05,0,0.09,0,0.14,0c15.98,0,31.84-2.15,42.53-5.69l0.21-264.46c0-6.64,2.52-10.54,4.64-12.65c2.11-2.11,6.01-4.61,12.64-4.61
		c0.01,0,0.01,0,0.02,0l85.23,0.07C1622.46,1008.57,1626.9,1010.1,1630.05,1013.13z M1794.47,1025.99l-0.28,350.3
		c0,5.61-1.54,10.06-4.56,13.21c-3.05,3.17-7.32,4.78-12.71,4.78c-0.01,0-0.01,0-0.02,0l-85.23-0.07c-5.3,0-9.77-1.61-12.94-4.65
		c-2.31-2.22-5.05-6.34-5.05-13.36l0.28-350.3c0.01-10.49,7.07-17.27,17.99-17.27c0.01,0,0.01,0,0.02,0l85.23,0.07
		C1787.86,1008.7,1794.47,1015.33,1794.47,1025.99z M1687.14,947.55c-12.17-12.19-18.86-28.75-18.85-46.62
		c0.01-18.42,6.75-35.17,18.95-47.16c12.12-11.9,28.96-18.46,47.42-18.46c0.02,0,0.04,0,0.06,0c18.73,0.02,35.56,6.61,47.41,18.58
		c11.75,11.87,18.22,28.61,18.21,47.14c-0.01,17.98-6.5,34.51-18.25,46.54c-12.02,12.3-28.85,19.08-47.41,19.08
		c-0.02,0-0.04,0-0.06,0C1716.29,966.64,1699.42,959.86,1687.14,947.55z"/>
</g>
</svg>
