<svg id="Capa_1" data-name="Capa 1" xmlns="http://www.w3.org/2000/svg" viewBox="0 0 207.48 215.76"><defs><style>.cls-1{fill:#fff;}</style></defs><title>iso</title><path class="cls-1" d="M2363.57-269.9a2,2,0,0,1-2.44-1.16,109.05,109.05,0,0,0-10.5-13.64c-1.08-1.18-.88-1.78.12-2.83a111.49,111.49,0,0,0,14.64-18.5c5-8.11,9-16.57,8.54-26.46a2.31,2.31,0,0,1,.88-1.88c3.72-3.73,4.4-8.17,1.92-12.19s-6.7-5.35-11.78-3.76a2.63,2.63,0,0,1-2.29-.23c-9.14-5.14-19.15-5.91-29.31-5.59a113.93,113.93,0,0,0-20.33,2.56c-1.24.26-1.63,0-2-1.21a112,112,0,0,0-5.68-15.06c-4.16-9-9.14-17.21-17-23.53-3.49-2.82-7.54-3.62-11.74-5.62h-7.07a5.3,5.3,0,0,0-.49.28c-5.55,1-10.09,3.88-14.13,7.68a60.45,60.45,0,0,0-11.5,15.27c-0.44.8-.66,1.6-2,1.52a5,5,0,0,0-5,3,5,5,0,0,0,.83,5.76,1.82,1.82,0,0,1,.38,2.15c-0.86,2.19-1.72,4.38-2.46,6.62a1.34,1.34,0,0,1-1.92,1.09c-2.71-.66-5.46-1.18-8.2-1.71a2.54,2.54,0,0,1-2.22-1.73,9.59,9.59,0,0,0-8.73-6.44,9.72,9.72,0,0,0-9.58,5.11,2.65,2.65,0,0,1-2.39,1.51,51.38,51.38,0,0,0-11.69,2.12c-10.77,3.4-18.52,11.36-17.7,24.5a43.83,43.83,0,0,0,4.42,16.07,2.33,2.33,0,0,1-.63,3.28,10.06,10.06,0,0,0-1.81,12c2.05,3.93,6.44,6.48,10.67,5.1,3.55-1.16,5.21.22,6.89,2.72a10.13,10.13,0,0,0,1.71,2c1.2,1,1.25,1.8,0,3a86.81,86.81,0,0,0-9.26,10.67c-6.83,9.16-12.9,18.69-13.93,30.5-0.67,7.77,1.72,14.4,7.85,19.39,6.81,5.55,15,7.25,23.48,7.81a113.76,113.76,0,0,0,31.56-2.78c1.38-.3,1.79.09,2.22,1.24,1.14,3,2.27,6.07,3.63,9,4,8.55,8.72,16.55,16.08,22.69,5.48,4.57,11.64,7.08,18.93,6.17a25.81,25.81,0,0,0,12.56-5.56,1.88,1.88,0,0,1,2.3-.44c3.53,1.65,7.24.93,9.47-1.62,2.53-2.91,2.74-6.34.43-10a1.71,1.71,0,0,1,0-2.15,88.08,88.08,0,0,0,7.94-16.23c0.47-1.27,1.13-1.47,2.32-1.14a115.46,115.46,0,0,0,17.75,3.32c8.38,0.94,16.75,1,25-1.16,7.85-2.09,14.46-5.88,17.89-13.74,2.4-5.49,2.31-11.18,1-16.88a2.89,2.89,0,0,1,1-3.37,9.94,9.94,0,0,0,2.31-11.9A10.07,10.07,0,0,0,2363.57-269.9Zm-48.85-79.63a108.4,108.4,0,0,1,22.33-2.39,50.26,50.26,0,0,1,21.12,3.71c1.65,0.71,2.41,1.32,1.57,3.47a9.29,9.29,0,0,0,8.22,12.67c1.81,0.09,2,.78,1.93,2.25-0.48,6.92-3.06,13.13-6.49,19a111.41,111.41,0,0,1-15.46,20.07c-1.22,1.3-1.82,1-2.9-.09a202.27,202.27,0,0,0-25-22.06,3.38,3.38,0,0,1-1.51-2.72c-0.24-3.08-.59-6.15-1.06-9.2a2,2,0,0,1,1-2.48c4-2.45,5.92-6.44,5.16-10.39-0.9-4.76-3.77-7.62-8.81-8.61a2.09,2.09,0,0,1-2-1.92C2312.73-349.65,2314-349.4,2314.72-349.53Zm4.59,41.85a49.44,49.44,0,0,1,6.51,5,189,189,0,0,1,16.51,15.31c0.51,0.53,1.37.93,0.35,1.9a208.59,208.59,0,0,1-24.54,19.9C2319.83-279.84,2319.79-293.64,2319.3-307.68Zm-35.52,60.44c0.3,1.79-.37,2.31-1.69,2.89q-4.74,2.1-9.42,4.34a2.79,2.79,0,0,1-2.7,0,280.63,280.63,0,0,1-37.82-22.71,3.44,3.44,0,0,1-1.45-2.8c-0.65-8-1.19-16-1-22.44a228.66,228.66,0,0,1,.87-23.2,3.37,3.37,0,0,1,1.71-2.79,274.12,274.12,0,0,1,39.89-21.74,2.81,2.81,0,0,1,2.67.12,271.12,271.12,0,0,1,38.53,23.23,2.36,2.36,0,0,1,1.29,1.88,254.15,254.15,0,0,1-1.16,46.72,3,3,0,0,1-1.54,2.43c-3.84,2.33-7.64,4.72-11.44,7.11a1.74,1.74,0,0,1-2.61-.21,8,8,0,0,0-9.55-1.56A8,8,0,0,0,2283.78-247.24Zm24.92-100a1.87,1.87,0,0,1-.76,2.6c-3.71,2.61-5.33,6.23-4.32,10.72a9.76,9.76,0,0,0,7.81,7.77c0.82,0.2,1.62.41,1.69,1.42,0.15,2.24.87,4.44,0.54,7.13a280.78,280.78,0,0,0-34.5-20.81,32.94,32.94,0,0,1,6.24-2.62,189,189,0,0,1,21.22-6.63C2307.37-347.87,2308.24-348.39,2308.7-347.29Zm-69.29-8.65c0.69-1.62,1.24-3.3,1.77-5a5.67,5.67,0,0,1,3-3.77c1.91-.94,2.68-3.31,2.16-5.55a3.07,3.07,0,0,1,.09-2.33c3.67-7,8.05-13.37,14.45-18.16,3.64-2.73,8.3-4.4,11.11-4.4,8.68,0.28,14.37,4.37,19.14,10,7.78,9.15,12.18,20,15.76,31.33,0.38,1.2,0,1.6-1.05,1.85a206.72,206.72,0,0,0-31.15,10.34,2.82,2.82,0,0,1-2.5-.15,197,197,0,0,0-31.74-12C2239.1-354.1,2238.88-354.69,2239.41-355.94Zm-2.32,7.5c0.29-1,.48-1.7,1.88-1.3a208.32,208.32,0,0,1,29.1,10.94,284.89,284.89,0,0,0-36.57,19.94,73.52,73.52,0,0,1,1.44-11.1A171.8,171.8,0,0,1,2237.09-348.44Zm-43.6,45.23c2.35-6.25-3.15-12.86-10-12.81-0.77,0-1.54.36-2-.73-2.83-6.21-5.1-12.52-4.4-19.53s4.38-11.69,10.44-14.79c4.19-2.14,8.71-3.07,13.89-3.61,1.08-.32,1.72.28,2.14,2a9.69,9.69,0,0,0,9,7.55c4.9,0.25,8.69-2,10.43-6.51,0.51-1.31,1-1.71,2.4-1.33a61.52,61.52,0,0,0,6.45,1.41c1.44,0.23,1.54.78,1.17,2.06a171.54,171.54,0,0,0-4.7,21.07q-0.89,5.66-1.55,11.36a3.21,3.21,0,0,1-1.43,2.55,195.52,195.52,0,0,0-25.84,21c-0.88.86-1.37,0.77-2-.16a25.92,25.92,0,0,0-2.2-2.48C2193.25-298.2,2192.27-300,2193.49-303.21Zm32.61,35.72a68.56,68.56,0,0,1-7.28-5.62,188.72,188.72,0,0,1-16.36-15.14c-0.62-.64-1.35-1.14-0.29-2.11a215.34,215.34,0,0,1,23.7-19.2A288.28,288.28,0,0,0,2226.1-267.49Zm6,40.92a126.3,126.3,0,0,1-23.62,2.9,62.35,62.35,0,0,1-17.41-2.16c-13.23-3.83-18.8-13.78-15-27,2.77-9.61,8.35-17.61,14.6-25.21,2-2.44,4.21-4.72,6.28-7.11,0.8-.93,1.33-1.25,2.38-0.14a201.75,201.75,0,0,0,26.11,23.05,3.74,3.74,0,0,1,1.63,2.73,169.41,169.41,0,0,0,6.4,30.8C2233.94-227.15,2233.42-226.85,2232.08-226.57Zm5.66-2.57a177,177,0,0,1-6-28.38,284.11,284.11,0,0,0,34,20.34,187.55,187.55,0,0,1-19,6.81c-2.38.74-4.82,1.31-7.21,2C2238.68-228.08,2238.06-228,2237.73-229.14Zm65.52,8.51a98.77,98.77,0,0,1-7.42,15.26,2.18,2.18,0,0,1-2.09,1.22c-6,.07-9.25,4-8.24,9.76a1.81,1.81,0,0,1-.71,2.07,22.11,22.11,0,0,1-14.16,4.93c-5.91-.18-11.15-3.65-15.66-8.45-7.14-7.61-11.41-16.87-15-26.51-0.43-1.14-.28-1.58,1-1.91a208.44,208.44,0,0,0,28.8-9.71,3.08,3.08,0,0,1,2.73.06,211.2,211.2,0,0,0,29.83,11.44C2303.55-222.11,2303.69-221.71,2303.26-220.63Zm2.39-6.67a1.12,1.12,0,0,1-1.67.8,207.85,207.85,0,0,1-27.24-10.37c3.49-1.67,6.61-3.18,9.75-4.64,0.5-.23.95,0.28,1.4,0.5,5.93,2.9,12-.38,12.62-6.89a1.64,1.64,0,0,1,.8-1.65,10,10,0,0,0,.94-0.58l10.22-6.13A182.78,182.78,0,0,1,2305.65-227.3Zm47,4.52a46.86,46.86,0,0,1-15,1.87c-9.42.08-18.14-1.57-26.8-3.68-1.11-.27-1.38-0.72-1-1.83a180.5,180.5,0,0,0,7.41-31.94,3.09,3.09,0,0,1,1.52-2.25,210.64,210.64,0,0,0,26.58-21.47c0.86-.83,1.28-0.76,2.05.11a137.34,137.34,0,0,1,10.15,13.06,1.7,1.7,0,0,1,0,2.45,9.64,9.64,0,0,0-1.49,10.91,9.41,9.41,0,0,0,9.32,5.83c1.32,0,1.65.63,1.85,1.63C2369.65-235.71,2365.2-226.71,2352.65-222.78Z" transform="translate(-2170.71 399)"/><path class="cls-1" d="M2247.65-291.29a26.66,26.66,0,0,1,26.68-26.87,26.71,26.71,0,0,1,26.94,26.62,26.75,26.75,0,0,1-26.81,27A26.7,26.7,0,0,1,2247.65-291.29Z" transform="translate(-2170.71 399)"/></svg>