<svg id="Capa_1" data-name="Capa 1" xmlns="http://www.w3.org/2000/svg" viewBox="0 0 431.81 143.31"><defs><style>.cls-1{fill:#c52b3a;}</style></defs><title>alex-logo</title><path class="cls-1" d="M1537.12,38.93h-56.75c-6,0-10.48-4.21-10.61-9.9a10.63,10.63,0,0,1,.83-4.2l38.7-97q5.07-12.73,10.14-25.46a10.1,10.1,0,0,1,9.84-6.68h15.36a10.12,10.12,0,0,1,9.8,6.57q14.92,37,29.81,74c6.44,16,12.81,32,19.37,47.93,2.64,6.4-.6,11.94-4.85,13.83a11.8,11.8,0,0,1-4.9.92h-56.75Z" transform="translate(-1469.77 104.35)"/><path class="cls-1" d="M1806.17,38.93c-4.64,0-9.28,0-13.92,0-2,0-3.64-.59-4.6-2.41s-0.57-3.58.64-5.25q17.2-23.89,34.35-47.81c1.2-1.67,1.19-2.07.05-3.75q-14.33-21.2-28.66-42.4a4.55,4.55,0,0,1-.64-4.53,4.24,4.24,0,0,1,4.08-2.83q12.3-.07,24.6,0a4.62,4.62,0,0,1,4,2.48q7.49,11.85,15,23.67c1.09,1.71,1.52,1.7,2.69,0q8.17-11.91,16.33-23.83a5,5,0,0,1,4.43-2.36h28.32a4.45,4.45,0,0,1,4.41,2.53,4.63,4.63,0,0,1-.62,5.05q-14.57,19.87-29.11,39.76c-1.53,2.09-1.53,2.62-.07,4.8Q1884,6.72,1900.53,31.34c2,3,.81,5.73-0.94,6.86a4.86,4.86,0,0,1-2.73.73q-13.08,0-26.16,0a5,5,0,0,1-4.42-2.57q-9.14-14.14-18.34-28.24a2.26,2.26,0,0,0-1.6-1.32c-1-.09-1.47.63-2,1.34-6.53,9.43-13.08,18.84-19.57,28.29A5.3,5.3,0,0,1,1820,39C1815.37,38.89,1810.77,38.93,1806.17,38.93Z" transform="translate(-1469.77 104.35)"/><path class="cls-1" d="M1652.83-32.26q0,32.1,0,64.19c0,4.27-2.67,7-6.93,7q-9.54,0-19.08,0c-4,0-6.59-2.38-6.94-6.4,0-.36,0-0.72,0-1.08q0-63.71,0-127.43a7.47,7.47,0,0,1,1.68-5.35,6.38,6.38,0,0,1,4.88-2.2c6.8,0,13.6-.21,20.39.09a6.28,6.28,0,0,1,6,6.62Q1652.84-64.54,1652.83-32.26Z" transform="translate(-1469.77 104.35)"/><path class="cls-1" d="M1782.65-23.59a56.06,56.06,0,0,0-18-35.68C1752-70.89,1736.95-75.94,1719.88-74a54.66,54.66,0,0,0-35.23,17.9c-11.51,12.59-16.56,27.51-14.74,44.51A54.83,54.83,0,0,0,1688,24.13c13.48,12.21,29.58,16.7,47.41,14.14,18.79-2.7,32.18-13.36,41.11-29.86,1.55-2.85,0-5.23-3.22-5.23-8.88,0-17.76,0-26.64,0a3,3,0,0,0-2.53,1,12.8,12.8,0,0,1-2.7,2.17,26,26,0,0,1-16.69,4C1716,9.7,1709,6,1704-1.27c-0.86-1.23-1.31-2.48-.53-3.9s2-1.66,3.45-1.66q17.82,0,35.64,0H1778a11,11,0,0,0,1.43-.07,3.13,3.13,0,0,0,3-2.95A61.36,61.36,0,0,0,1782.65-23.59Zm-33.79-7.81a2.55,2.55,0,0,1-2.08.71q-10.19,0-20.38,0c-6.71,0-13.43,0-20.14,0-1.13,0-2.06-.21-2.54-1.36s0.18-1.79.83-2.54a30.81,30.81,0,0,1,12.81-9.16c9.73-3.52,23.69-1.84,31.35,9.42C1749.53-33.15,1749.59-32.21,1748.86-31.41Z" transform="translate(-1469.77 104.35)"/></svg>