<svg id="Capa_1" data-name="Capa 1" xmlns="http://www.w3.org/2000/svg" viewBox="0 0 1689.66 449.28"><defs><style>.cls-1{fill:#236b9e;}.cls-2{fill:#de4638;}.cls-3{fill:#175285;}.cls-4{fill:#1a588b;}.cls-5{fill:#d22f24;}.cls-6{fill:#d43327;}.cls-7{fill:#d6372b;}.cls-8{fill:#1c5d90;}.cls-9{fill:#da3e31;}.cls-10{fill:#fcfcfd;}.cls-11{fill:#fcfdfd;}.cls-12{fill:#fbfcfd;}.cls-13{fill:#fafbfc;}.cls-14{fill:#f9fbfc;}.cls-15{fill:#f6f9fb;}.cls-16{fill:#f7f9fb;}.cls-17{fill:#f8fafb;}.cls-18{fill:#f5f8fa;}.cls-19{fill:#e7eef3;}.cls-20{fill:#fefefe;}.cls-21{fill:#1d5f92;}.cls-22{fill:#1b5b8e;}.cls-23{fill:#185386;}.cls-24{fill:#13497c;}.cls-25{fill:#154e81;}.cls-26{fill:#fdfefe;}.cls-27{fill:#1a578a;}.cls-28{fill:#114577;}.cls-29{fill:#164b7d;}.cls-30{fill:#c2130c;}.cls-31{fill:#cb231a;}.cls-32{fill:#d7392c;}.cls-33{fill:#d43428;}.cls-34{fill:#cf2a20;}.cls-35{fill:#cd271d;}.cls-36{fill:#dc4134;}.cls-37{fill:#ce281e;}.cls-38{fill:#fefcfc;}.cls-39{fill:#c61a12;}.cls-40{fill:#c41a13;}.cls-41{fill:#c71b13;}.cls-42{fill:#154e80;}.cls-43{fill:#114678;}.cls-44{fill:#134a7c;}.cls-45{fill:#144b7d;}.cls-46{fill:#0b3667;}.cls-47{fill:#0f4071;}.cls-48{fill:#c91f16;}.cls-49{fill:#c61911;}.cls-50{fill:#fdf9f9;}.cls-51{fill:#fbedec;}.cls-52{fill:#fbeceb;}.cls-53{fill:#21689b;}.cls-54{fill:#1f6396;}.cls-55{fill:#286ea0;}.cls-56{fill:#2c70a1;}.cls-57{fill:#2b70a1;}.cls-58{fill:#3175a5;}.cls-59{fill:#3376a5;}.cls-60{fill:#185082;}.cls-61{fill:#fefdfd;}.cls-62{fill:#c81e16;}.cls-63{fill:#124778;}.cls-64{fill:#0f3e70;}.cls-65{fill:#c31912;}.cls-66{fill:#d86763;}.cls-67{fill:#cf4641;}.cls-68{fill:#c2140d;}.cls-69{fill:#c6201a;}.cls-70{fill:#e29894;}.cls-71{fill:#df5042;}.cls-72{fill:#d43429;}</style></defs><title>logo-fisae</title><path class="cls-1" d="M1234-435.55q0-82.08,0-164.16c0-6.62-.74-6,5.81-6q131.52,0,263,0c6.67,0,5.94-.72,6,5.82q0.3,34.08.56,68.15c0,5.83.58,5.41-5.42,5.41H1351.8c-7,0-6.21-.61-6.22,6.11q0,18.72,0,37.44c0,1.28,0,2.56.1,3.83a1.47,1.47,0,0,0,1.64,1.37c1.44,0.06,2.88,0,4.32,0h124.8c2.72,0,5.44,0,8.16.08a1,1,0,0,1,1,1.3,19,19,0,0,1-.9,2.72q-14.35,36.09-28.71,72.18c-0.24.59-.49,1.18-0.73,1.77a2.11,2.11,0,0,1-2.17,1.51c-1.44,0-2.88,0-4.32,0h-97.44c-6.32,0-5.7-.58-5.71,5.6q0,21.36,0,42.72c0,5.71-.34,5.26,5.11,5.26h158.88c1.28,0,2.56,0,3.84,0,1.85,0.08,2.11.36,2.19,2.33,0,1,0,1.92,0,2.88q-0.07,34.56-.13,69.12c0,5.59.35,5.21-5.17,5.21H1239.11c-0.64,0-1.28,0-1.92,0-3.08-.08-3.16-0.15-3.22-3.29,0-1.12,0-2.24,0-3.36V-435.55Z" transform="translate(174.05 614.82)"/><path class="cls-1" d="M719.23-370h47.51c1,0,1.92,0,2.88,0,2.89,0.06,3,.05,3.63,2.68,3.34,13,11.45,21.87,23.52,27.35a60.55,60.55,0,0,0,22.71,5.4,89.78,89.78,0,0,0,28-2.87,43.14,43.14,0,0,0,11-4.66,24,24,0,0,0,7.12-6.33,18.35,18.35,0,0,0-.85-23.06,32.7,32.7,0,0,0-9-7.15,83.3,83.3,0,0,0-13.58-6c-10-3.52-20.21-6-30.47-8.47-16.31-3.93-32.68-7.6-48.73-12.55a214.06,214.06,0,0,1-36.47-14.53,121.57,121.57,0,0,1-20.86-13.6q-27.25-22.34-31.53-57.34a112.34,112.34,0,0,1,2.57-42.82c5.63-21.21,17.61-38.13,35.13-51.2,13.24-9.88,28.06-16.49,43.84-21.1a206.65,206.65,0,0,1,35.72-6.93,261.63,261.63,0,0,1,36.88-1.55c19.41,0.64,38.54,3.15,57.05,9.34,14.85,5,28.57,12,40.71,22,16.91,13.89,28.36,31.48,35.2,52.17A145.19,145.19,0,0,1,966-512.63a34.78,34.78,0,0,1,.47,4.29A1.39,1.39,0,0,1,965-506.8c-1.27.09-2.56,0.08-3.84,0.09h-95c-5,0-5.07,0-6.41-4.69-2.51-8.84-8-15.12-16.19-19.17a55.81,55.81,0,0,0-19.83-5.23,81.86,81.86,0,0,0-26.7,1.6,35.93,35.93,0,0,0-7.19,2.62c-10.9,5.24-11.9,17.57-6,25.6a28.38,28.38,0,0,0,7,6.54,65.06,65.06,0,0,0,12.77,6.56c10.27,4.1,20.95,6.85,31.64,9.55,16,4,32,7.68,47.78,12.39a239.65,239.65,0,0,1,38,14.45,123.48,123.48,0,0,1,22.74,14.2c2.49,2,4.89,4.13,7.22,6.32,3.11,2.92,3.07,3,1.62,6.95L899.5-283.57c-1.64,4.5-3.44,9-4.89,13.52a6.24,6.24,0,0,1-4.78,4.66c-6.64,1.79-13.28,3.52-20,4.81a274.22,274.22,0,0,1-61.1,4.6c-22.38-.75-44.14-4.82-64.94-13.34-18.44-7.55-34.9-18.08-48.62-32.63-13.32-14.13-22.61-30.5-27-49.52a91,91,0,0,1-2.36-16.59,1.55,1.55,0,0,1,1.61-1.89c1.28,0,2.56,0,3.84,0h48Z" transform="translate(174.05 614.82)"/><path class="cls-1" d="M759.8-165.59q-229.43,0-458.86,0c-8,0-6.89,1.16-6.9-6.75q-0.07-32.4,0-64.8c0-5.76-.41-5.24,5.06-5.26,4.64,0,9.28,0,13.92,0h904.77l5.28,0a1.65,1.65,0,0,1,1.86,1.7c0.08,1.44.09,2.88,0.09,4.32q0,32.4,0,64.8c0,6.86.42,6-5.86,6Q989.47-165.58,759.8-165.59Z" transform="translate(174.05 614.82)"/><path class="cls-2" d="M299.75-435.61q0-82.07,0-164.13c0-6.94-.73-6.21,6.08-6.21l268.76,0.07c1.44,0,2.88,0,4.32,0,1.2,0.05,1.58.83,1,2-0.35.72-.76,1.4-1.16,2.1q-23.66,42-47.34,84c-3.14,5.56-1.51,4.66-8.07,4.67q-52.55,0-105.1,0c-6.56,0-5.85-.68-5.87,5.92q0,18.24,0,36.47c0,1.28,0,2.56.06,3.84a1.47,1.47,0,0,0,1.48,1.54c1.44,0.07,2.88.08,4.31,0.08q40.07,0,80.15,0c6.29,0,5.73-.63,5.73,5.58q0,33.59,0,67.19c0,1.28,0,2.56,0,3.84-0.1,1.74-.52,2.1-2.43,2.17-1.28,0-2.56,0-3.84,0q-39.59,0-79.19,0c-7,0-6.23-.77-6.23,6q0,54.71,0,109.42c0,6.86.81,6.15-6.12,6.16q-50.15,0-100.3,0h-1.44c-5.51,0-5.23.2-5.23-5.23q0.07-56.39.12-112.78,0-26.39,0-52.79h0.34Z" transform="translate(174.05 614.82)"/><path class="cls-2" d="M650.14-435.06q0,81.83,0,163.65c0,1.44,0,2.88,0,4.32-0.08,1.78-.47,2.15-2.38,2.24-1.12.06-2.24,0-3.36,0h-95.5c-6.79,0-6,.39-6-5.85q0-115.9-.06-231.8a16.21,16.21,0,0,1,2.27-8.59q26.38-45.14,52.64-90.35c2.68-4.59,1.55-4.13,7-4.18l39.35-.34c1.28,0,2.56,0,3.84,0,1.73,0.09,2.15.53,2.22,2.4,0.06,1.44,0,2.88,0,4.32Q650.14-517.13,650.14-435.06Z" transform="translate(174.05 614.82)"/><path class="cls-1" d="M-161-405.53c-6.81-2.36-10.48-7.48-12.31-14.15a28.4,28.4,0,0,1-.72-7.61q0-36.44,0-72.88,0-40.75,0-81.51a36.93,36.93,0,0,1,.52-7.15A20.55,20.55,0,0,1-156-605.48a42.68,42.68,0,0,1,5.73-.38q79.11,0,158.22,0a30.11,30.11,0,0,1,6.67.58c6.94,1.59,12.18,5.34,14.69,12.29,2.92,21.4.8,42.91,1.27,64.37,0.35,15.94.07,31.9,0.07,47.84,0.16,2.12-.55,3.24-2.62,1.74a85.15,85.15,0,0,1-7-5.66c-0.33-.29-0.64-0.61-0.94-0.93s-0.62-.59-0.93-0.88l-0.5-.39c-0.36-.23-0.71-0.48-1.06-0.72-2.32-1.59-4.06-3.84-6.23-5.6-4-2.6-6.77-6.67-10.82-9.22a10.21,10.21,0,0,1-1-.84c-0.33-.29-0.64-0.6-1-0.92-3.59-3.22-7.18-6.42-11-9.35a17,17,0,0,0-8.12-4.78c-1.65-1.26-2.58-3.27-4.47-4.28a10.88,10.88,0,0,1-1-.73c-0.51-.39-1-0.81-1.45-1.24-2.84-2.57-6.21-4.47-9-7.11-0.3-.26-0.58-0.55-0.86-0.82a11.12,11.12,0,0,0-1.41-1,7.87,7.87,0,0,1-1-.66c-0.49-.37-1-0.77-1.42-1.17-5.31-4.13-10.44-8.48-15.94-12.37a11.36,11.36,0,0,0-4.8-3c-6.78-2-10.46.41-11.18,7.38a104.91,104.91,0,0,0-.16,11c0,3.63-1.68,5.27-5.25,5.14a0.69,0.69,0,0,0-.48,0c-2.28.32-5.47-1.12-6.61,1.3-1.23,2.6,1.62,4.56,3.23,6.38,5.66,6.44,10.51,13.64,17.41,18.94,3.06,3.18,5.87,6.59,8.75,9.95,1.6,2.37,4.05,4,5.49,6.49,0.77,1.32,2.65,2.73.46,4.44-12,1.21-23.93.66-35.89,0.3-3.87-.12-6.76-2.52-8.64-6.06-2.37-4.48-3.08-9.39-4-14.26-2.33-12.73-3.8-25.62-7.1-38.18-2.76-10.5-9.4-16.36-20.11-17.73a18.74,18.74,0,0,0-4.78-.13c-2.42.31-4.3,1.48-5,3.89s0.55,4.34,2.34,5.89,3.76,1.67,5.8,2c6.11,1.09,10,4.54,11.72,10.58,2.3,8.19,3.07,16.65,4.58,25,2.08,11.47,3.92,23,7.85,34,0.79,8.15,3.14,16,4.68,24,0.81,5.56,3.26,10.12,8.1,13.21,2.15,4,5.35,7.09,8.42,10.3,0.29,0.27.57,0.57,0.83,0.87l0.39,0.43c0.27,0.27.52,0.56,0.77,0.84l0.38,0.41c0.27,0.26.52,0.53,0.77,0.81l0.4,0.4c0.28,0.25.55,0.52,0.82,0.79l0.43,0.4c0.31,0.26.6,0.53,0.9,0.81l0.46,0.42c3.07,3.13,6.37,6,9.18,9.43,1.08,1.57,2.52,2.85,3.5,4.48s0.86,2.72-1.43,2.6q-42.06,0-84.09,0C-153-404.15-157.06-404.16-161-405.53Z" transform="translate(174.05 614.82)"/><path class="cls-2" d="M153.08-403.67H73.88a28,28,0,0,1-7.61-.67,21.1,21.1,0,0,1-15.77-19.5c-0.06-1.12,0-2.24,0-3.36q0-77.52,0-155a27.33,27.33,0,0,1,.68-7.62c2.47-8.66,8-14,16.92-15.62a32.27,32.27,0,0,1,5.72-.47q79.44,0,158.87,0a30.27,30.27,0,0,1,8.07,1,21.06,21.06,0,0,1,15,18.61c0.07,1.12,0,2.24,0,3.36q0,78.24,0,156.47a26.71,26.71,0,0,1-.92,8.06,21,21,0,0,1-19.24,14.81c-1.44.06-2.88,0-4.32,0H153.08Z" transform="translate(174.05 614.82)"/><path class="cls-1" d="M174.23-183.83c-1.59.09-3.18,0.25-4.77,0.26q-47.52,0-95,0c-1.12,0-2.24,0-3.36,0-9.31.25-20-7.32-20.58-20.51,0-1,0-1.92,0-2.88q0-77.76,0-155.51a30.53,30.53,0,0,1,.66-7.14c2.49-10.51,12-16,19.26-15.95,1.6,0,3.2,0,4.8,0h156c1.6,0,3.2,0,4.8,0a20.8,20.8,0,0,1,19.75,19.31c0.08,1.28.05,2.56,0.05,3.84q0,77.76,0,155.51c0,2.35.52,4.81-.81,7-1.92-1.69-1.64-4-1.66-6.18-0.07-7.26-.09-14.53.06-21.79-0.11-9.58-.19-19.16.05-28.74q-0.25-13.27,0-26.54c2.2-8.26-4.22-11.16-9.3-14.89-4.66-3.11-9-6.62-13.64-9.81-5.18-3.58-10.33-7.19-15.39-10.93-0.35-.23-0.68-0.48-1-0.73s-0.68-.45-1-0.68a11.88,11.88,0,0,1-1-.67,12.1,12.1,0,0,1-1-.76l-0.49-.39c-0.35-.25-0.69-0.51-1-0.76-4.53-2.92-8.71-6.34-13.41-9.32-1.34,2.05.11,4.68-1.78,6.31-2.93-.75-2-3.24-2.12-5.09-0.14-2.4-1.14-3.51-3.53-3.47-1.76,0-3.52.11-5.27,0-3.85-.31-6.44.32-6.32,5.24,0.08,3.54-1.48,4.21-4.61,2.4a139.55,139.55,0,0,1-13.17-8.73c-4.09-3-7.76-2.89-11.83-.07-13.53,9.34-27,18.82-40.52,28.14-5.52,3.8-11,7.68-16.47,11.54-1.86,1.31-5.24,2-3.55,5.64,1.78,3.89,4.67,5.54,8.54,4.87,3.49-.35,6.8-1.48,10.19-2.3,1.78-.43,3.74-1.39,5,0.95,0.85,2.32.62,4.74,0.63,7.12,0,13.26-.05,26.52,0,39.77,0.05,7.46,1,8.24,8.25,8.38,5.26,0.1,10.54-.51,15.76.46,2.63,1.38,1.46,2.35-.47,2.85-2.63.69-5.37,0.29-8.06,0.35-3,.07-6-0.1-9.7.12,8.62,6.67,17.19,12.51,25.52,18.66,4,3.26,8.33,6,12.48,9.08,3.33,2.81,7,5.1,10.54,7.67a10.81,10.81,0,0,1,1.06.78l0.51,0.42C169.34-188.35,174-188.22,174.23-183.83Z" transform="translate(174.05 614.82)"/><path class="cls-2" d="M-77.32-183.86c-1.59.07-3.19,0.21-4.78,0.21q-34.07,0-68.15,0c-0.8,0-1.6,0-2.4,0-9.55.6-20.78-6.86-21.37-20.7,0-1.12,0-2.24,0-3.36q0-77,0-154a39.94,39.94,0,0,1,.53-7.16c1.76-9.72,10.82-16.78,19.56-16.72,1.44,0,2.88,0,4.32,0H6.82c1.6,0,3.2,0,4.8,0,9.86,0.17,19.37,8.9,19.6,19.88,0.05,2.4,0,4.8,0,7.2q0,30.47,0,60.95c0,1.12-.11,2.23-0.17,3.35a1.23,1.23,0,0,1-1.22.21c-3.41-2.37-6-5.67-9-8.46-0.32-.29-0.61-0.6-0.9-0.91s-0.61-.6-0.91-0.91l-0.46-.45c-0.33-.29-0.63-0.6-0.94-0.91C8.52-314.75-1.49-323-10-332.66c-1-1.18-1.93,1.3-2.56-.3-1.14-2.8-3.46-4.48-5.76-6.24-2.73-2.1-5.08-2.5-8.15-.25-3.76,2.76-8.83,2.06-12.13-1.54-2.26-2.47-4.34-2.85-7.13-1.27-2.94,1.66-6.69,2.23-6.23,7.21,0.53,5.75-2.12,9-8,10.4-3.56.85-3.72,3.6-4.15,6.21s-1.24,5.37,1.62,7.4c8.43,6,8.7,7,4.94,16.46a1.11,1.11,0,0,1-2-.46c-0.42-1.61-1.92-1.66-2.89-2.46-1.14-5.39-5.91-7.24-9.8-9.84-2.1-1.41-3.87,0-5.53,1.46-6.22,5.33-10.45,4.46-13.43-3-1.29-3.21-3.08-4.68-6.55-3.74-1.38.38-2.84,0.4-4.25,0.68-5.58,1.1-6.24,1.85-6.65,7.48-0.45,6.06-4.09,8.42-9.78,6.28-2.37-.89-4.94-2.58-7.09-0.22-2.65,2.9-5.78,5.68-6.43,9.84-0.29,1.86,1.51,3,2.68,4.34,4.57,5.1,3.58,9.78-2.6,12.32-5.37,2.21-5.54,2.51-4.74,8.16,0.22,1.58.57,3.14,0.79,4.72,0.46,3.27,2.38,4.49,5.53,4.79,8.38,0.8,10.44,4,7.35,11.6-1.23,3-.82,5.22,1.94,7a6.59,6.59,0,0,1,2.67,2.68c0.89,4.54,5,6.54,7.63,9.74,0.31,0.28.59,0.58,0.87,0.89l0.41,0.45a8.64,8.64,0,0,1,.74.93,10,10,0,0,1,.6,1c0.21,0.32.41,0.64,0.63,1l0.37,0.44c0.29,0.27.56,0.56,0.84,0.84l0.44,0.42c1.62,1.63,3.25,3.23,4.87,4.84a10.12,10.12,0,0,1,.86.95,10.53,10.53,0,0,1,.76,1c2,3.09,4.94,5.27,7.33,8,2.33,3.72,5.85,6.39,8.59,9.75C-82.06-189.35-77.5-188.12-77.32-183.86Z" transform="translate(174.05 614.82)"/><path class="cls-2" d="M1375.16-242.46q64.8,0,129.6,0c6.64,0,5.92-.78,5.94,5.82q0.08,32.88.1,65.76c0,5.72.32,5.23-5.12,5.23H1244.56q-1.68,0-3.36-.06a1.48,1.48,0,0,1-1.58-1.43c-0.09-1-.09-1.92-0.09-2.87q0-34.08,0-68.16c0-4.57,0-4.31,4.6-4.31h131Z" transform="translate(174.05 614.82)"/><path class="cls-3" d="M254.82-284.64q0,13.92,0,27.84c-14.71,15.3-28.42,31.5-42.85,47.06-7.91,8.53-15.57,17.3-23.37,25.94a82.16,82.16,0,0,1-14.36,0c-0.73-1.49-2.13-2.23-3.37-3.21-1.46-1.15-3.52-1.59-4.35-3.51,13.52-14.43,26.56-29.31,39.82-44s26.48-29,39.3-43.83a50.69,50.69,0,0,1,5.06-5.1C251.83-284.46,253-285.93,254.82-284.64Z" transform="translate(174.05 614.82)"/><path class="cls-4" d="M188.59-183.8c0.64-2.94,2.84-4.92,4.68-7,4.4-5,9.45-9.5,13.51-14.77,3.9-5.06,9.2-8.83,12.6-14.28a1.65,1.65,0,0,1,.33-0.35c4.93-4.31,8.91-9.53,13.2-14.41,4-4.52,8.41-8.64,12.05-13.49,2.27-3,5.31-5.48,8.07-8.13a4.55,4.55,0,0,1,1.78-.57q0,14.4,0,28.81c-2,4.16-5.71,6.82-8.65,10.13q-15.2,17.15-30.69,34.06c-6.76.08-13.53,0.2-20.29,0.24C193-183.55,190.79-183.72,188.59-183.8Z" transform="translate(174.05 614.82)"/><path class="cls-5" d="M-77.32-183.86c-1.16-2.07-3.11-3.42-4.67-5.13-0.94-1-2.07-1.91-2.07-3.48,12.84-4.57,24.28-12,36.29-18.21Q-28-221-8.43-231.55c11.1-6,22.22-11.94,33.46-17.67,1.64-.84,3.78-3.11,5.64,0,0,4.18,0,8.35,0,12.53-0.24,2.21-2.25,2.56-3.72,3.32C3-220.9-20.73-207.95-44.68-195.43c-7.36,3.85-14.68,7.79-22.08,11.57A51.42,51.42,0,0,1-77.32-183.86Z" transform="translate(174.05 614.82)"/><path class="cls-6" d="M-66.76-183.85c0.79-1.7,2.29-2.56,3.88-3.38,8.36-4.31,16.72-8.59,25-13,6.32-3.36,12.55-6.89,18.82-10.35,0.42-.23.86-0.43,1.28-0.65,8.49-4.4,17.13-8.52,25.41-13.29,6.49-3.74,13.48-6.54,19.76-10.64a5,5,0,0,1,2.78-.53c1,3.45.23,7,.47,10.45-0.07,1.86-1.68,2.1-2.89,2.75C3.65-209.55-20.7-197-44.68-183.85A218.51,218.51,0,0,1-66.76-183.85Z" transform="translate(174.05 614.82)"/><path class="cls-7" d="M-44.68-183.85a4,4,0,0,1,.78-1.65,55.7,55.7,0,0,1,5.29-3.25q9.07-4.86,18.21-9.6c8.35-4.36,16.74-8.64,25.05-13.06,6.19-3.29,12.27-6.81,18.46-10.1,2.22-1.18,4.33-2.83,7.08-2.64,1,4.24.23,8.54,0.46,12.8,0.12,2.19-1.54,3-3.11,3.79-15.39,7.37-30,16.29-45.34,23.71C-26.76-183.5-35.72-183.47-44.68-183.85Z" transform="translate(174.05 614.82)"/><path class="cls-8" d="M215.48-183.81c0.63-2.94,2.84-4.91,4.67-7,4.39-5,9.43-9.49,13.48-14.74,3.9-5.05,8.89-9,12.67-14.18a38.16,38.16,0,0,1,8.51-8.28q0,11.68,0,23.37c0,1.59.1,3.17,0.15,4.76a20,20,0,0,1-17.15,16.09,53.77,53.77,0,0,1-6.66.2C225.94-183.67,220.7-183.24,215.48-183.81Z" transform="translate(174.05 614.82)"/><path class="cls-9" d="M-17.8-183.86c0.8-1.7,2.29-2.56,3.88-3.38,7.78-4,15.62-7.92,23.27-12.17,3.73-2.07,7.74-3.75,11-6.65a4.39,4.39,0,0,1,2.18-.86,11.11,11.11,0,0,0,2.7-.87c5.85-2.92,4.9-1.87,5-7.78,0-2.87,0-5.74,0-8.61q0-5.76,0-11.52,0-7.2,0-14.4a2.18,2.18,0,0,1-.37-2.68,0.86,0.86,0,0,1,1.26-.21,10.14,10.14,0,0,1,.19,1.42q0,23.68,0,47.36a20,20,0,0,1-7.6,15.84,17.91,17.91,0,0,1-11.31,4.58C2.28-183.61-7.76-183.39-17.8-183.86Z" transform="translate(174.05 614.82)"/><path class="cls-1" d="M15.8-404.64l-0.25.21-0.31-.11c-4.44.78-8.93,0.15-13.38,0.36-4.21-1.53-1.18-3.65,0-4.78,5.24-5.13,9.72-11,14.93-16.1,3.4-3.36,6.62-6.91,10.24-10,0.91-.78,2.58-3.44,3.67.1-0.27,5.32.56,10.67-.44,16v0c-1,.73-0.14,2.09-1,2.86h0c-0.58.5-.4,1.39-1,1.9h0a2.26,2.26,0,0,0-.82,1.18l0.11-.11c-1.91,2-3.85,4-5.89,5.87l0.1-.1a2.56,2.56,0,0,0-1.17.81l0,0c-0.49.58-1.37,0.4-1.88,0.94l0,0C17.88-404.73,16.54-405.55,15.8-404.64Z" transform="translate(174.05 614.82)"/><path class="cls-1" d="M30.23-419q0-8.66,0-17.33c-2.61-3.55-1.12-7.64-1.48-11.48a48.29,48.29,0,0,1,.09-5.68c-0.15-6.94-.21-13.88,0-20.82,0.06-1.53,0-3.1,1.34-4.24q0-52.26,0-104.52c0-2.05.27-4.13-1.29-5.91-1.19-1.36-.15-2.7.42-4a11.49,11.49,0,0,1,1.85,6.31c0.08,1.6.07,3.2,0.07,4.79q0,77.22,0,154.45c0,1.92-.06,3.84-0.14,5.75A4,4,0,0,1,30.23-419Z" transform="translate(174.05 614.82)"/><path class="cls-1" d="M0.43-404.65l14.8,0.12a3.46,3.46,0,0,1-2.21.77c-1.6.06-3.19,0.13-4.79,0.13H-150.88c-3,0-6.08,0-9-1.14a7.09,7.09,0,0,1-1.18-.77,7.6,7.6,0,0,1,2.38,0c3.26,1.13,6.62.86,10,.86l85.81,0c2.66-2.14,5.78-1.25,8.75-1.35,6-.15,12.07-0.2,18.1,0,6.7-.15,13.41-0.21,20.11,0C-10.46-405.63-4.81-407.54.43-404.65Z" transform="translate(174.05 614.82)"/><path class="cls-5" d="M31.09-253H30.2c-2.63-3.88-1.1-8.23-1.4-12.37-0.13-4.15-.11-8.31,0-12.46-0.11-4.41-.17-8.82.08-13.23a4.19,4.19,0,0,1,1.31-3.23l0.87,0a2.48,2.48,0,0,1,.1.46C31.37-280.16,31.43-266.56,31.09-253Z" transform="translate(174.05 614.82)"/><path class="cls-1" d="M21.66-407.3a13.37,13.37,0,0,1,5.89-5.87A10.91,10.91,0,0,1,21.66-407.3Z" transform="translate(174.05 614.82)"/><path class="cls-1" d="M29.24-416.17c0-1.06-.17-2.2,1-2.86A3.15,3.15,0,0,1,29.24-416.17Z" transform="translate(174.05 614.82)"/><path class="cls-1" d="M15.8-404.64c0.67-1.12,1.79-.93,2.83-1A3.08,3.08,0,0,1,15.8-404.64Z" transform="translate(174.05 614.82)"/><path class="cls-1" d="M28.27-414.26a2,2,0,0,1,1-1.9A2,2,0,0,1,28.27-414.26Z" transform="translate(174.05 614.82)"/><path class="cls-1" d="M18.68-405.64a2,2,0,0,1,1.88-.94A1.94,1.94,0,0,1,18.68-405.64Z" transform="translate(174.05 614.82)"/><path class="cls-1" d="M27.45-413.07a1.4,1.4,0,0,1,.82-1.18A1.12,1.12,0,0,1,27.45-413.07Z" transform="translate(174.05 614.82)"/><path class="cls-1" d="M20.59-406.6l1.17-.81A1.1,1.1,0,0,1,20.59-406.6Z" transform="translate(174.05 614.82)"/><path class="cls-1" d="M1220.92-328.33q0-28.79,0-57.58a24.3,24.3,0,0,0-1.39-8.44Q1182.48-497.66,1145.47-601c-1.81-5.05-1-4.7-6.73-4.7H1035.08c-1.12,0-2.24,0-3.36,0a2.17,2.17,0,0,0-2.18,1.53c-0.51,1.51-1.13,3-1.67,4.49Q968.79-434.71,909.7-269.78c-1.86,5.2-1.87,5,3.79,5q49.42,0,98.85,0c0.8,0,1.6,0,2.4,0,2.43-.08,2.58-0.15,3.29-2.6,1.65-5.68,3.23-11.37,4.86-17.05q3.29-11.52,6.6-23c0.63-2.16.75-2.33,3-2.42,0.8,0,1.6-.14,2.4-0.14h101.73c1,0,1.92.15,2.88,0.14a2.17,2.17,0,0,1,2.46,1.79c0.25,1.09.63,2.18,0.95,3.25q5.23,17.7,10.46,35.41c0.27,0.92.61,1.83,0.84,2.76a2.21,2.21,0,0,0,2.38,1.89l3.36,0h55.66c1.12,0,2.24,0,3.36,0,1.44-.08,1.89-0.56,2-2.13,0.06-1.28,0-2.56,0-3.84Q1220.92-299.54,1220.92-328.33Zm-99.47-52.77a11.46,11.46,0,0,1-1.84.3q-33.77,0-67.58,0a6.16,6.16,0,0,1-.12-1.71q16.77-59.37,33.59-118.77a3,3,0,0,1,.7.31,2,2,0,0,1,.59.72q17.35,58.78,34.66,117.56A6.34,6.34,0,0,1,1121.45-381.1Z" transform="translate(174.05 614.82)"/><path class="cls-10" d="M835.4-189.92c0-4.37,0-8.17,0-12s0-7.68,0-11.52c0-1.65.43-2,1.91-2.1,2.39-.13,2.9.25,2.91,2.59,0,9.6,0,19.2,0,28.8,0,0.93.22,2-.69,2.65s-3.46.34-4.45-.64c-0.79-.79-1.48-1.67-2.2-2.53q-8.2-9.72-16.4-19.44c-0.7-.83-1.48-1.6-2.19-2.36-1.22.42-.92,1.34-0.92,2.05,0,6.08,0,12.16,0,18.24,0,1.12,0,2.24-.06,3.36s-0.83,1.58-1.93,1.64c-2.31.13-2.86-.28-2.87-2.63,0-5.76,0-11.52,0-17.28,0-3.84,0-7.68,0-11.52,0-1-.36-2.43,1.1-2.78s2.87-.42,4,0.91c0.61,0.74,1.25,1.45,1.87,2.19q8.08,9.51,16.16,19A9.75,9.75,0,0,0,835.4-189.92Z" transform="translate(174.05 614.82)"/><path class="cls-11" d="M870.26-215.38a69.67,69.67,0,0,1,7.17,0c7.16,0.74,12.89,5.38,14.47,12.08,1.65,7,.3,13.32-5.46,18.2a16.55,16.55,0,0,1-9.19,3.67,123.91,123.91,0,0,1-14.34.19,1.56,1.56,0,0,1-1.61-1.45,11.48,11.48,0,0,1-.08-1.91q0-13.88,0-27.76c0-.48,0-1,0-1.43a1.65,1.65,0,0,1,1.82-1.73h7.18v0.12Z" transform="translate(174.05 614.82)"/><path class="cls-10" d="M490.84-197.51c4,5.34,7.24,10.56,10.71,15.77a10.38,10.38,0,0,1-1.34.55c-2.83.54-4.79-.39-6.28-3a106.37,106.37,0,0,0-6.13-9.13,6.51,6.51,0,0,0-5.14-3.08c-1.46-.05-2.14.37-2.16,1.78-0.06,3.83,0,7.66-.07,11.49,0,0.8-.14,1.66-1.1,1.85a3.84,3.84,0,0,1-3.2-.31,1.31,1.31,0,0,1-.43-0.8,12.78,12.78,0,0,1-.13-1.9q0-13.88,0-27.76c0-.64,0-1.28.07-1.91a1.43,1.43,0,0,1,1.51-1.48,100,100,0,0,1,11,.14c6.37,0.71,9.66,6.07,7.86,12.16a6.83,6.83,0,0,1-2.25,3.58C492.9-198.9,492-198.31,490.84-197.51Z" transform="translate(174.05 614.82)"/><path class="cls-12" d="M659.11-197.58a166.37,166.37,0,0,1,10.39,15.73c-1.2,1.08-2.35.6-3.4,0.69a2.8,2.8,0,0,1-2.77-1.5q-2.32-3.63-4.74-7.2c-0.89-1.32-1.83-2.62-2.79-3.89a7.15,7.15,0,0,0-3-2.31c-2.81-1.15-4.08-.28-4.12,2.84,0,3.35,0,6.7-.05,10.05,0,1.65-.61,2-2.52,2s-2.32-.41-2.33-2.21c0-9.89,0-19.79,0-29.68,0-.32,0-0.64.06-1a1.47,1.47,0,0,1,1.55-1.47,103.23,103.23,0,0,1,11,.14c5.87,0.62,9.06,5,8.26,10.73a7.56,7.56,0,0,1-2.95,5.28C660.93-198.75,660.12-198.25,659.11-197.58Z" transform="translate(174.05 614.82)"/><path class="cls-12" d="M1058.66-197.68c3.48,5.3,6.72,10.21,9.93,15.14a2.12,2.12,0,0,1,0,1c-0.93.79-2.07,0.35-3.13,0.43a2.87,2.87,0,0,1-2.76-1.53q-2.2-3.42-4.48-6.79c-1-1.45-2-2.89-3.06-4.28a6.9,6.9,0,0,0-3.46-2.45c-2.52-.78-3.59-0.06-3.63,2.55-0.05,3.51,0,7-.06,10.53,0,1.51-.54,1.91-2.07,2-2,.07-2.65-0.32-2.77-1.76-0.05-.63,0-1.28,0-1.91q0-13.4,0-26.81c0-.8,0-1.59.08-2.39a1.45,1.45,0,0,1,1.57-1.44,103.92,103.92,0,0,1,11,.15c5.72,0.61,8.76,4.62,8.27,10.27a7.64,7.64,0,0,1-3,5.75C1060.32-198.73,1059.5-198.24,1058.66-197.68Z" transform="translate(174.05 614.82)"/><path class="cls-10" d="M448.84-197.53c5.78,7.71,9,12.74,10.14,16.05-0.44.11-.87,0.24-1.31,0.31a4.72,4.72,0,0,1-5.49-2.72,71.32,71.32,0,0,0-4.43-6.82,38.64,38.64,0,0,0-2.95-3.76,5.76,5.76,0,0,0-4.22-2c-1.44-.06-2.11.4-2.14,1.85-0.06,2.87,0,5.74,0,8.62,0,1.12,0,2.23-.09,3.34a1.46,1.46,0,0,1-1.57,1.43,12.81,12.81,0,0,1-1.9-.07,1.28,1.28,0,0,1-1.22-1.23c-0.08-1.11-.11-2.23-0.11-3.34q0-12.45,0-24.89c0-1.12,0-2.23.09-3.35a1.22,1.22,0,0,1,1.12-1.31c4.29-.16,8.65-0.7,12.86.34a9.22,9.22,0,0,1,6,13.24C452.54-199.82,450.67-198.89,448.84-197.53Z" transform="translate(174.05 614.82)"/><path class="cls-13" d="M517.68-198.69c0-4.8,0-9.6,0-14.4,0-2.1.36-2.41,2.59-2.43,5.28,0,10.56,0,15.84,0,0.77,0,1.66,0,1.9,1a3.13,3.13,0,0,1-.26,2.76,2.47,2.47,0,0,1-1.71.61c-2.88.07-5.76,0-8.64,0-1.12,0-2.24,0-3.35.09a1.46,1.46,0,0,0-1.45,1.55c0,1-.07,1.92-0.06,2.88,0.07,6.29-.75,5.63,5.6,5.68,2.72,0,5.44,0,8.15.11,1.18,0,1.59.83,1.54,2.5,0,1.27-.46,1.85-1.64,1.87-3,.06-6.08,0-9.12.07a27.38,27.38,0,0,0-3.35.15,2.42,2.42,0,0,0-1,.85,0.72,0.72,0,0,0-.1.46c0,2.85-.45,5.72.3,8.54,2.41,1.25,5,.42,7.49.59,2.07,0.14,4.16,0,6.24.06,1.78,0.05,2.21.58,2.16,2.37,0,1.53-.49,2.11-1.94,2.12-5.76,0-11.52,0-17.28,0a1.67,1.67,0,0,1-1.88-1.69c-0.07-1.12-.05-2.24-0.06-3.36q0-6.24,0-12.48h0Z" transform="translate(174.05 614.82)"/><path class="cls-13" d="M603-198.59c0-5,0-9.91,0-14.86,0-1.57.47-2,2-2q8.15-.06,16.3,0c1.83,0,2.23.52,2.18,2.3s-0.46,2.06-2.44,2.11c-2.4.05-4.79,0-7.19,0-1.28,0-2.56,0-3.84,0-1.66.07-2,.42-2.13,1.92,0,0.16,0,.32,0,0.48,0.15,9.13-1.44,7.61,7.33,7.77,1.6,0,3.2,0,4.8,0,2.66,0.06,3.15.46,3.15,2.44,0,1.7-.44,2.06-2.93,2.09-3.36,0-6.71,0-10.07,0-1.93,0-2.29.33-2.26,2.24,0.15,9.95-1.7,8.16,7.67,8.36,2.4,0.05,4.79,0,7.19.12,1.27,0.06,1.35,1.15,1.35,2.13s-0.18,1.94-1.37,2.19a6.93,6.93,0,0,1-1.43.11c-5.27,0-10.55,0-15.82,0-2.09,0-2.48-.4-2.5-2.57,0-5,0-9.91,0-14.87h0Z" transform="translate(174.05 614.82)"/><path class="cls-13" d="M392.76-198.58c0-5,0-9.9,0-14.85,0-1.54.51-2.05,2-2.06q8.38-.05,16.77,0c1.39,0,1.79.62,1.75,2.22s-0.48,2.07-1.94,2.12c-2.23.08-4.47,0-6.71,0.06-1.6,0-3.2,0-4.79,0-1.83.07-2.18,0.36-2.15,2.37,0.1,9.16-1.45,7.64,7.27,7.8,2.08,0,4.15,0,6.23.06,1.25,0.05,1.74.81,1.75,2.35s-0.48,2.08-1.93,2.1c-3.67.06-7.35,0-11,.06-1.93,0-2.25.35-2.3,2.21q-0.09,3.11,0,6.23c0,1.81.38,2.12,2.36,2.15,3.83,0,7.67,0,11.5,0,2,0,2.77,1.23,2.24,3.18a1.53,1.53,0,0,1-1.27,1.25,6.61,6.61,0,0,1-1,.09c-5.43,0-10.86,0-16.29,0-2.08,0-2.48-.43-2.51-2.57-0.05-5,0-9.9,0-14.85h0Z" transform="translate(174.05 614.82)"/><path class="cls-12" d="M941.29-203.19c0,3.19-.08,6.39,0,9.58,0.2,6.8-5,11.8-11.34,12.68a24.17,24.17,0,0,1-6.69,0,12.88,12.88,0,0,1-11.42-11.67,65.06,65.06,0,0,1-.16-6.7c0-4.79,0-9.58,0-14.37,0-1.52.65-1.88,2.67-1.85,1.58,0,2.1.4,2.12,1.89,0.05,5.27,0,10.54.06,15.8,0,1.75.09,3.51,0.26,5.25,0.32,3.43,2.46,5.47,5.5,6.58a12.82,12.82,0,0,0,8.47,0,7.72,7.72,0,0,0,5.58-7.55c0.13-4.47,0-8.94,0-13.41,0-2.08,0-4.15,0-6.23s0.48-2.44,2.59-2.39c1.81,0,2.2.36,2.22,2.27,0,3.35,0,6.7,0,10.06h0Z" transform="translate(174.05 614.82)"/><path class="cls-11" d="M1139.86-181.45c-1,.16-1.49.25-2,0.3a3.12,3.12,0,0,1-3.73-2.16c-0.84-2.24-1.91-4.38-2.88-6.57a2.28,2.28,0,0,0-2.23-1.48c-1.28,0-2.55,0-3.83,0-2.87.05-5.73,0.13-8.6,0.2-2.12,2.1-2.58,5-3.83,7.58s-1.81,2.79-4.49,2.36a1,1,0,0,1-.9-1.37,17.61,17.61,0,0,1,.85-2.23q5.87-13.62,11.76-27.22a18.67,18.67,0,0,1,1.25-2.58c0.78-1.23,3.37-1.22,4.16,0a11.41,11.41,0,0,1,.88,1.7q6.42,14.68,12.83,29.37C1139.37-183,1139.53-182.4,1139.86-181.45Z" transform="translate(174.05 614.82)"/><path class="cls-11" d="M740.11-181.55a5,5,0,0,1-2.78.39,2.28,2.28,0,0,1-2.25-1.47q-1.58-3.48-3.08-7a2.53,2.53,0,0,0-2.55-1.74c-3.67,0-7.34,0-11,0a2.54,2.54,0,0,0-2.51,1.8c-0.91,2-1.75,4.1-2.69,6.13-1,2.18-2.26,2.78-4.56,2.14a1.33,1.33,0,0,1-.71-1.06,5.61,5.61,0,0,1,.59-1.8q6.16-14.26,12.34-28.52a14.29,14.29,0,0,1,.81-1.73,2.71,2.71,0,0,1,4.41,0,11.15,11.15,0,0,1,.64,1.28q6.44,14.67,12.86,29.34A3.1,3.1,0,0,1,740.11-181.55Z" transform="translate(174.05 614.82)"/><path class="cls-12" d="M977.8-209c-1.81-.86-3.2-1.64-4.68-2.19a6.81,6.81,0,0,0-6,.29,3.43,3.43,0,0,0-1.14,5.3,18.52,18.52,0,0,0,4.72,4c2,1.36,4,2.7,5.82,4.21a8.7,8.7,0,0,1,3.18,6.23c0.51,5.77-3,9.92-8.76,10.34a14.28,14.28,0,0,1-8.35-1.57,3.68,3.68,0,0,1-2.2-3.86c0.1-.93.11-1.87,0.17-2.82,1.63,0,2.3,1.26,3.33,1.94a9.88,9.88,0,0,0,6.86,1.52,4.26,4.26,0,0,0,3.73-2.61,4.2,4.2,0,0,0-1-4.85,34.48,34.48,0,0,0-3.77-2.94c-2.18-1.62-4.43-3.14-6.54-4.84a7.45,7.45,0,0,1-2.71-5.41c-0.55-6.62,4.89-10.2,10.74-10a12.64,12.64,0,0,1,3.28.67C977.64-214.5,979.16-213.91,977.8-209Z" transform="translate(174.05 614.82)"/><path class="cls-14" d="M363.71-215.51c2.56,0,5.11,0,7.67,0,1.43,0,1.84.6,1.84,2.17s-0.5,2.16-1.87,2.19c-2.71.07-5.43,0-8.14,0.06-1,0-1.92,0-2.87.06a1.68,1.68,0,0,0-1.68,1.89c0,1.12,0,2.24,0,3.35,0,4.85-.4,4.71,4.66,4.7,2.56,0,5.11,0,7.67,0,1.47,0,1.89.57,1.93,2.09,0,1.82-.38,2.37-2.12,2.41-3.19.06-6.39,0-9.58,0.05-2.2,0-2.51.33-2.54,2.48-0.05,3.51,0,7,0,10.54,0,2-.39,2.27-2.22,2.3-2.12,0-2.6-.32-2.61-2.4q0-14.85,0-29.71c0-1.89.35-2.21,2.27-2.25,2.55-.05,5.11,0,7.67,0v0Z" transform="translate(174.05 614.82)"/><path class="cls-13" d="M570.51-215.51c4.3,0,8.61,0,12.91,0,1.42,0,1.8.57,1.81,2.18s-0.44,2.25-1.74,2.28c-2.87.08-5.74,0-8.61,0.1-1.79,0-2.16.43-2.17,2.35,0,7,0,14,0,21,0,1.28,0,2.55,0,3.83-0.08,2.27-1.65,3.25-3.86,2.36a1.54,1.54,0,0,1-.83-1,25.3,25.3,0,0,1-.16-3.33q0-10.52,0-21c0-.8,0-1.59,0-2.39a1.61,1.61,0,0,0-1.74-1.79c-1.91,0-3.83,0-5.74,0-0.8,0-1.6,0-2.39,0-2.32-.09-2.79-0.63-2.63-2.87a1.61,1.61,0,0,1,1.84-1.68l9.57,0h3.83v0Z" transform="translate(174.05 614.82)"/><path class="cls-14" d="M1010.85-215.53c4.14,0,8.29,0,12.43,0,2.06,0,2.36.35,2.39,2.1,0,2-.34,2.39-2.58,2.44-2.71.06-5.42,0-8.13,0.06a1.59,1.59,0,0,0-1.79,1.73q0,4.3,0,8.61c0,5.58,0,11.16,0,16.74,0,0.78.13,1.67-.56,2.23a3.62,3.62,0,0,1-3.2.33c-0.94-.2-1.09-1.06-1.09-1.87,0-4.94,0-9.88,0-14.82,0-3.35,0-6.7,0-10,0-2.69-.23-2.86-3.1-2.92-2.55-.05-5.1,0-7.65-0.07-1.32,0-1.8-.73-1.81-2.25s0.41-2.2,1.79-2.21c4.46,0,8.93,0,13.39,0v0Z" transform="translate(174.05 614.82)"/><path class="cls-15" d="M1156.42-198.53c0-4.63,0-9.26,0-13.89,0-3,.56-3.24,3.38-3.07a1.45,1.45,0,0,1,1.46,1.53c0.07,1.11.07,2.23,0.07,3.35q0,9.58,0,19.15c0,1.12,0,2.24,0,3.35,0.07,1.94.39,2.29,2.17,2.38,1,0,1.91,0,2.87,0,2.23,0,4.47,0,6.7,0,3.75,0,4.57-.21,4.53,2.4,0,2-.44,2.17-4.78,2.18-3.83,0-7.66,0-11.49,0-1,0-1.92,0-2.87,0-1.51-.09-2-0.52-2-2.05,0-5.11,0-10.22,0-15.32h0Z" transform="translate(174.05 614.82)"/><path class="cls-16" d="M1090.28-198.25c0,5,0,9.91,0,14.86,0,1.92-2.49,3.07-4.16,2a1.91,1.91,0,0,1-.64-1.21,15.7,15.7,0,0,1-.1-2.39q0-13.42,0-26.85c0-.32,0-0.64,0-1,0.09-2.4.47-2.75,2.82-2.69,1.59,0,2,.38,2.08,1.93,0.06,1.12,0,2.24,0,3.36q0,6,0,12h0Z" transform="translate(174.05 614.82)"/><path class="cls-17" d="M686-198.75c0-4.79,0-9.59,0-14.38,0-2.05.48-2.41,2.62-2.39,1.85,0,2.25.32,2.26,2.24q0.05,14.86,0,29.72c0,2.13-1.95,3.16-4,2.18a1.64,1.64,0,0,1-.76-1.09,19.77,19.77,0,0,1-.14-2.86c0-4.47,0-8.95,0-13.42h0Z" transform="translate(174.05 614.82)"/><path class="cls-18" d="M782.49-198.72c0-4.63,0-9.26,0-13.89,0-2.95.73-3.08,3.56-2.85a1.36,1.36,0,0,1,1.29,1.18,11.63,11.63,0,0,1,.12,1.91q0,13.89,0,27.79c0,0.48,0,1,0,1.44-0.12,1.46-.6,1.9-2.12,2-2.23.13-2.78-.33-2.8-2.71C782.46-188.82,782.49-193.77,782.49-198.72Z" transform="translate(174.05 614.82)"/><path class="cls-19" d="M687.19-218.87c-0.92,0-1.22-.29-1.27-0.81a1.59,1.59,0,0,1,.18-0.89c1-1.77,2.13-3.52,3.16-5.3a2.9,2.9,0,0,1,3.22-1.41,1,1,0,0,1,.73,1.66c-1.55,2-3.12,4-4.75,5.92A4.5,4.5,0,0,1,687.19-218.87Z" transform="translate(174.05 614.82)"/><path class="cls-20" d="M-20.71-519c3.82,0,6.8,1.48,8.66,4.93a4.87,4.87,0,0,1,.82,1.26,5.52,5.52,0,0,1,.17,2.26c-2,8.18-7,14.94-10.69,22.31-2.7,5.39-5.85,10.57-8.85,15.82-3.26,5.72-8.13,8.28-14.47,8.51-3.5.13-7,.09-10.5,0.05a14.51,14.51,0,0,1-3.24-.41c-10.55-1.08-21.12-.12-31.67-0.51-5.77-1.2-11.05-3.12-13.61-9.11-3.29-6.33-4.56-13.26-5.83-20.15-2-11-3.84-22-5.71-33.06a64.34,64.34,0,0,0-1.8-6.95c-1.57-5.48-5.43-8-10.79-8.78-0.95-.13-1.93,0-2.87-0.17a8.12,8.12,0,0,1-6.12-9.44c0.65-2.78,2.46-4.6,5.27-4.78a31.46,31.46,0,0,1,19.58,5.17,11.64,11.64,0,0,1,2.92,3.15,34.68,34.68,0,0,1,5.23,11.76c2.16,8.2,3.43,16.57,4.83,24.93,1.16,6.93,1.94,13.93,3.74,20.74a39,39,0,0,0,1.9,5.41,9,9,0,0,0,7.37,5.43,25.52,25.52,0,0,0,2.87.21c10.87,0.45,21.75.4,32.62,0.15a10.16,10.16,0,0,0,1.41-.23c5.41-1.12,7.84-5.38,10.47-9.61,4.65-7.46,7.73-15.71,12-23.37C-25.64-516-24.67-519.32-20.71-519Z" transform="translate(174.05 614.82)"/><path class="cls-21" d="M-36-404.66H-54.28c-1.4-2.36.62-3.55,1.84-4.81,12.31-12.7,24.29-25.72,36.42-38.6,11.47-12.17,23.11-24.2,34.31-36.62a3.88,3.88,0,0,1,2.32-1.56l9.59,7.7q0,1.91,0,3.82C18-462,6-449-6.13-436.14c-8.75,9.23-17.6,18.4-26.1,27.87A46.46,46.46,0,0,1-36-404.66Z" transform="translate(174.05 614.82)"/><path class="cls-22" d="M20.6-486.24A35.82,35.82,0,0,1,14-478.13,86.54,86.54,0,0,0,6.86-471C1.45-464.45-5-458.92-10.52-452.51-14.9-447.39-20-443-24.3-437.88c-5.28,6.23-11.4,11.64-16.73,17.77-3.78,4.35-7.79,8.43-11.79,12.55a4.11,4.11,0,0,0-1.47,2.9l-8.6,0c-1.14-1.28-2.25-2.58-3.43-3.83a4.13,4.13,0,0,1-1.43-2.85c2.33-4.67,6.7-7.49,10.13-11.17,4.18-4.5,8.53-8.83,11.39-14.37,13-2.79,13.11-2.93,14.4-16.25,3.65,0.38,5.87-1.86,8.09-4.27,10.27-11.14,20.5-22.34,31.18-33.1,1.32-1.34,2.45-3,4.5-3.4,2.68,1.41,4.07,4.33,6.72,5.76,0.29,0.35.64,0.64,1,1h0c0.32,0.32.61,0.67,1,1h0Z" transform="translate(174.05 614.82)"/><path class="cls-20" d="M-64.87-499.63a8.06,8.06,0,0,1-4.37-2.77Q-78-512.58-86.66-522.78a5.32,5.32,0,0,1-1.4-3,1.84,1.84,0,0,1,1.41-2.16,20.22,20.22,0,0,1,2.85-.25c2.39-.07,4.79-0.06,7.18-0.16,1.83-.07,2.13-0.39,2.2-2.34,0.21-5.42.48-10.85,0.51-16.27,0-2.69,1.18-4,3.63-4.83,4.36-1.39,8.46-1.22,12.37,1.34a4.09,4.09,0,0,1,1.75,2.71c2.35,3.44,1.2,7.34,1.32,11,0.21,6.36.09,6.37,6.54,6.84a10,10,0,0,1,5,1.29c2.17,1.8,1.91,4.15.61,6A115.05,115.05,0,0,1-63-499.82,1.87,1.87,0,0,1-64.87-499.63Z" transform="translate(174.05 614.82)"/><path class="cls-23" d="M-11.92-513.1l-0.13-1a5,5,0,0,1,1.79.55c2.92,2.45,5.78,5,8.63,7.51a8.63,8.63,0,0,1,1.11,1.54c0.33,0.31.62,0.67,1,1h0c1.4,3-.83,4.84-2.57,6.5-8.87,8.46-16.47,18.13-25.44,26.49-3.71,3.46-6,8.25-10.59,10.89a5.92,5.92,0,0,1-2.8.47c-6.28-.68-10.2,2.58-13,7.71-1.46,1.83-1.24,3.87-.71,5.95a7,7,0,0,1,.23,1.31,2.85,2.85,0,0,1-.65,2.25c-6.72,6.16-12,13.67-18.91,19.68-0.94.82-1.86,1.84-3.35,1.32h0q-0.47-.5-1-1h0q-0.47-.49-1-1t-1-1h0q-0.47-.49-1-1h0c-0.3-.34-0.66-0.62-1-1a22.83,22.83,0,0,1-5.9-6c-0.89-1.27-2-2.36-3-3.59-0.33-.43,0-0.85.4-1.15,0.82-.88,1.94-0.91,3-1.06,8.2-1.1,10.55-3.41,12-11.8A5.72,5.72,0,0,1-75-451.1c2.81-1.63,1.88,2.09,3.67,2.42,6.14-4.57,10.11-11.55,16.06-16.57,2.06-.07,4.11-0.16,6.17-0.2,1.91,0,3.82,0,5.72,0a11.82,11.82,0,0,0,10.07-5.41c0.8-1.18,1.59-2.38,2.32-3.61,5.79-9.87,11.3-19.89,16.32-30.17,1-2.13,1.82-4.4,2.71-6.6A1.45,1.45,0,0,0-11.92-513.1Z" transform="translate(174.05 614.82)"/><path class="cls-4" d="M-38.06-460a10.6,10.6,0,0,1,1-1.61c2.83-3.2,5.62-6.44,8.55-9.54s6.27-5.89,9-9.16c5.43-6.44,11.47-12.28,17.37-18.25a8.42,8.42,0,0,0,2.57-5,15.6,15.6,0,0,1,5,3.52c2.11,2.1,4.35,4.07,6.53,6.1-0.78,1.64-2.21,2.72-3.47,3.92-8.54,8.16-15.84,17.52-24.54,25.53-3.21,4.62-7.41,8.33-11.35,12.27-1.62,1.62-1.67,1.56-3.28-.8a2.88,2.88,0,0,0-.76-0.55A15.53,15.53,0,0,1-38.06-460Z" transform="translate(174.05 614.82)"/><path class="cls-24" d="M-64.87-499.63A12.5,12.5,0,0,0-62.93-501a276.09,276.09,0,0,0,18.64-20.86c1.31-1.64,2.4-3.4,1.46-5.65,1.91-1.95,3.42-4.31,5.82-5.77,2.92,2.15,5.87,4.26,8.74,6.47a13.52,13.52,0,0,1,1.84,2.13,9.1,9.1,0,0,0,1,1h0c1.38,2.66-.67,4.39-2.08,5.8-8.59,8.57-16.34,17.93-25.12,26.32-1.18,1.13-2.38,2.85-4.48,1.49a15.21,15.21,0,0,0-1.46-1.85A38.43,38.43,0,0,1-64.87-499.63Z" transform="translate(174.05 614.82)"/><path class="cls-25" d="M-57.13-490.09a3.78,3.78,0,0,0,2.88-1.47c4.08-4.45,8.68-8.36,12.45-13.17,3.22-4.11,7.26-7.6,11.05-11.23A36.52,36.52,0,0,0-26-521.91a6.34,6.34,0,0,0,.55-1.8A5.77,5.77,0,0,1-20.71-519a10.28,10.28,0,0,0-4.83,5.1c-1.29,2.55-2.56,5.13-3.76,7.73a158,158,0,0,1-9.31,17.75c-0.93,1.48-2,2.88-2.86,4.41-1.79,3.23-4.42,4.38-8,3.51C-51.35-484.24-54.78-486.72-57.13-490.09Z" transform="translate(174.05 614.82)"/><path class="cls-26" d="M-74.55-451.61c0,1.12.11,2.24,0.07,3.35A12.13,12.13,0,0,1-86.79-436.2c-1.27,0-2.55-.17-3.83-0.26a7.27,7.27,0,0,0-1.13-.78c-4.42-2-6.67-5.47-7.3-10.15-0.1-.77-0.18-1.55-0.27-2.32-0.47-6.28,3.29-9.45,8.5-11.54a28.28,28.28,0,0,1,7.16-.12,7.36,7.36,0,0,1,1.35.33,12.86,12.86,0,0,1,1.84.86,7.35,7.35,0,0,1,1.1.73c1.69,1.65,3.6,3.11,4.64,5.32a4.1,4.1,0,0,1,.28,1.89Z" transform="translate(174.05 614.82)"/><path class="cls-27" d="M-77.32-421a105.24,105.24,0,0,0,13.94-14.16,47.6,47.6,0,0,1,6.75-6.66,4.19,4.19,0,0,0,1.5-3.27,44.4,44.4,0,0,1,8.55,8.72c0.38,1,1.2,2,.21,3.09-6.69,7.51-13.4,15-20.93,21.68a1.84,1.84,0,0,1-.43.21A56.72,56.72,0,0,1-77.32-421Z" transform="translate(174.05 614.82)"/><path class="cls-28" d="M-37-533.27a12.64,12.64,0,0,1-3.24,4.68,4.17,4.17,0,0,1-2.58,1.1c-2.76-.95-5.62-0.59-8.45-0.65-0.95,0-1.9,0-2.84,0-1.47-.08-2-0.52-2-2-0.05-5.84,0-11.67-.06-17.51,1.4,0,2.32.92,3.3,1.68q6.13,4.78,12.2,9.63a4.9,4.9,0,0,1,.8,1.16,6.72,6.72,0,0,0,1,1h0c0.47,0.63,1.38.44,1.89,1h0Z" transform="translate(174.05 614.82)"/><path class="cls-29" d="M-90.76-460.35c-3.4,1.84-6.4,4.06-7.65,8-0.29.9-.6,1.78-0.91,2.68a2,2,0,0,1-.63-0.67c-1.12-5-2.19-10.06-3.29-15.08-0.5-2.29-1-4.56-1.58-6.84a1.52,1.52,0,0,1,.74-1.58A25,25,0,0,0-91.68-466c6.09,0.85,12.21.12,18.31,0.38,2.8,1.59.86,3.18-.18,4.48-1.74,2.19-3.77,4-6.78,1.83l0.07,0c-0.45-.76-1.36-0.6-2-1l0.09,0C-85-461.27-87.88-461-90.76-460.35Z" transform="translate(174.05 614.82)"/><path class="cls-24" d="M-37-533.27a1.9,1.9,0,0,1-1.89-1A2,2,0,0,1-37-533.27Z" transform="translate(174.05 614.82)"/><path class="cls-27" d="M-79.24-422.88l1,1Z" transform="translate(174.05 614.82)"/><path class="cls-27" d="M-80.2-423.84l1,1Z" transform="translate(174.05 614.82)"/><path class="cls-27" d="M-81.16-424.8l1,1Z" transform="translate(174.05 614.82)"/><path class="cls-27" d="M-82.12-425.76l1,1Z" transform="translate(174.05 614.82)"/><path class="cls-25" d="M-25.46-523.7l-1-1Z" transform="translate(174.05 614.82)"/><path class="cls-4" d="M0.45-503.53l-1-1Z" transform="translate(174.05 614.82)"/><path class="cls-24" d="M-38.89-534.26l-1-1Z" transform="translate(174.05 614.82)"/><path class="cls-27" d="M-78.28-421.92l1,1Z" transform="translate(174.05 614.82)"/><path class="cls-21" d="M20.6-486.24l-1-1Z" transform="translate(174.05 614.82)"/><path class="cls-21" d="M19.64-487.2l-1-1Z" transform="translate(174.05 614.82)"/><path class="cls-20" d="M209.54-528.32c0.64,0.63,1.91.52,2,1.73,0.19,2-1.22,3.2-2.4,4.46-9.94,10.56-20.36,20.64-30.65,30.86-3.23,3.21-7.31,4.37-11.79,4.36-10.36,0-20.71.1-31.06-.06a9.12,9.12,0,0,1-1.37-.16,6.92,6.92,0,0,1-1.26-.38c-0.58-.25-1.15-0.55-1.71-0.86a7,7,0,0,1-1.07-.7,9.49,9.49,0,0,1-1-.89l-0.46-.51a9,9,0,0,1-1.16-1.83c-2.69-8.57-3.08-17.53-4.34-26.33a2.58,2.58,0,0,1,.81-2.17,21.23,21.23,0,0,0,0-2.83c-0.28-2.42.85-3.87,3-4.68,1.84-1.55,4.06-1.7,6.32-1.7,8.77,0,17.54-.12,26.3.05,14.17,0.43,28.34-.19,42.52-0.06C204.84-530,207.48-530.34,209.54-528.32Z" transform="translate(174.05 614.82)"/><path class="cls-30" d="M124.14-520.8c1,6.91,2,13.81,3,20.72a43,43,0,0,0,2,8.77,2.1,2.1,0,0,0,.95,1.19l0,0a2.35,2.35,0,0,0,1.06,1l-0.09-.07c0.44,0.77,1.36.6,2,1l0,0c1.28,2-.48,3.3-1.26,4.81a7,7,0,0,1-.91,1q-6.39,7.07-13.29,13.65c-1.54,1.48-3.07,3.53-5.69,1.76l0,0a9.82,9.82,0,0,1-.9-0.91c-4.06-4.86-8.17-9.68-12.18-14.58-5.12-6.24-10.09-12.61-15.28-18.79-2.75-3.27-5.59-6.46-8.11-9.92,1.86-1.71,4.2-1.33,6.36-1.27,11.28,0.33,22.6-.94,33.84.76,2,0.31,2.58-.65,2.44-2.42-0.13-1.58-.75-3.11-0.43-4.73a5.39,5.39,0,0,0-.62-0.71c-0.51-.42-1-0.88-0.32-1.46,1.1-.91,2.28-1.71,3.41-2.57,0.76-.58,1.58-1.4,2.5-1.17,1.22,0.3.58,1.58,0.76,2.42A2.72,2.72,0,0,0,124.14-520.8Z" transform="translate(174.05 614.82)"/><path class="cls-31" d="M133.88-488.12l30.12-.07c9.49,0,10.61-.44,17.24-7.21q15.22-15.55,30.34-31.18c1.1-.49,2.07-0.68,2.79.67,0.6,1.11,1.37,2.12,2.06,3.18,0.33,0.32.61,0.67,1,1h0l0.94,1,0,0q0.48,0.45.93,0.93,0,0.47.07,0.93c-0.6,4.85-4.92,7.12-7.63,10.38-5,6.07-11.05,11.32-16.62,16.95-1.86,1.88-3.9,2.62-6.43,1.64-3.57-.14-6,1.05-5.86,5.13a5,5,0,0,1,.42,1.95,6.68,6.68,0,0,1-2.33,3.52c-13.38,12.72-25.32,26.84-38.67,39.59-1.46,1.39-2.64,3.94-5.48,2.49a7.3,7.3,0,0,1-1.5-1.11c-3-3.78-6-7.59-9-11.39,3.53-4.23,3.51-9.26,3.38-14.37-0.12-4.76-.06-9.53,0-14.3,0-1.76.14-3.51,1.4-4.92h0c3.49-1.71,6.93-2.69,10,.81-0.44,2.57-2.47,1.47-3.82,1.46-2.53,0-4,.78-3.94,3.54,0,8-.1,16,0.08,24,0,1.46.33,2.94,1.86,3.64A3.1,3.1,0,0,0,139-451c7.74-9.57,15.91-18.78,23.35-28.59a1,1,0,0,0,0-1c-2.27-1.36-5.49.53-7.53-1.94,0.85-2.47,3.05-1.86,4.84-2.07,2-.24,4.13.21,6.34-1.15-4.81-.18-9.28,0-13.75,0q-6.92.33-13.83,0C136.68-485.88,134.42-485.47,133.88-488.12Z" transform="translate(174.05 614.82)"/><path class="cls-32" d="M248.11-484.31c1.25,1.42,2.56,2.8,3.75,4.27,1.92,2.38,3.59,4.88,3,8.2a11.39,11.39,0,0,0,0,1.91,56.38,56.38,0,0,1-3.95,4.17c-18.71,18.09-36,37.6-54.72,55.66-1.74,1.67-2.84,3.86-4.67,5.44h-19.2c-1.39-2.35.6-3.57,1.84-4.78,9.7-9.4,18.21-19.95,28.11-29.15a29.32,29.32,0,0,0,6.95-8.88,8.26,8.26,0,0,1,3.27-.63c10.51-.77,17-6.36,19.42-16.64,0.44-1.87.51-3.8,1.13-5.63C238-475.09,242.22-480.58,248.11-484.31Z" transform="translate(174.05 614.82)"/><path class="cls-20" d="M202.66-534.37h-70c-0.85-1.1-.11-2,0.21-2.77,1.19-3.14,2.53-6.22,3.72-9.36a2.75,2.75,0,0,1,2.9-2c5.38,0,4.33.63,7.12-4.6,1.43-2.68,2.87-5.35,4.27-8a3,3,0,0,1,2.68-1.65c7.21-.56,7.32-0.64,10.77,5.81a4.64,4.64,0,0,0,4.91,2.81c3-.15,6.08.06,9.12-0.07,2.31-.1,3.92.54,5,2.72,1.24,2.41,2.88,4.61,4.27,6.94a3.14,3.14,0,0,0,3.06,1.83c1.76-.08,3.52,0,5.28,0a3.4,3.4,0,0,1,3.55,1.88C200.61-538.91,201.94-537.1,202.66-534.37Z" transform="translate(174.05 614.82)"/><path class="cls-9" d="M191.47-404.67c0.26-2.58,1.92-4.3,3.64-6,8.72-8.69,17.84-17,26-26.22,9.38-10.52,19.73-20,29.45-30.17,1.18-1.24,2.21-2.83,4.23-2.87q0,8.17,0,16.33c-0.77,1-1.13,2.28-2.07,3.2-15.35,14.89-29.88,30.57-44.95,45.74H191.47Z" transform="translate(174.05 614.82)"/><path class="cls-33" d="M208.76-446.92c0.37,0.9.73,1.79,0.07,2.72a23,23,0,0,1-1.37,1.94c-0.74.84-1.54,1.62-2.36,2.39-10.86,10.15-20.29,21.68-31,32-0.93.89-1.84,1.8-1.83,3.23-2.36,0-4.73,0-7.09,0a3.79,3.79,0,0,1-3.5-1.93c-1.11-1.69-2.51-3.2-3.79-4.79,11.56-11.26,22.17-23.43,33.67-34.73,2.7-2.66,5.44-5,3.48-9.3,4.14-.42,5.26,3.76,8.1,5.31A6.11,6.11,0,0,0,205-448.8c0.34,0.11.67,0.26,1,.4,0.65,0.28,1.33.52,2,.79A2.09,2.09,0,0,1,208.76-446.92Z" transform="translate(174.05 614.82)"/><path class="cls-5" d="M195.33-455.56c-0.22,2,1.88,2.83,2.53,4.65-1.84,1.85-3.6,3.69-5.42,5.46-10.41,10.12-19.68,21.36-30.31,31.27-1.25,1.17-2.21,2.82-4.25,2.83a19.1,19.1,0,0,0-1.78-2.21A32.67,32.67,0,0,1,150.2-421a2.78,2.78,0,0,1,.77-1.72c14.06-13.47,26.53-28.5,40.85-41.72A11.62,11.62,0,0,1,195.33-455.56Z" transform="translate(174.05 614.82)"/><path class="cls-34" d="M191.63-464.47a5.53,5.53,0,0,1-2.06,3.66c-10.36,9.75-19.29,20.88-29.65,30.63-2.44,2.3-4.74,4.76-7.15,7.1-0.79.77-1.71,1.41-2.57,2.11-2.61-3.17-6-5.74-7.71-9.59a347.61,347.61,0,0,0,29.78-29.68c5.83-6.51,12.38-12.33,18.28-18.79,2.45,0.32,3.81,1.91,3.43,4.16C193.38-471.37,193.36-467.71,191.63-464.47Z" transform="translate(174.05 614.82)"/><path class="cls-35" d="M189.73-478.7a2.72,2.72,0,0,1-.6,3c-3.33,3.21-6.48,6.6-9.84,9.77-5.46,5.13-9.84,11.25-15.31,16.38s-10.4,10.33-15.59,15.52c-0.68.68-1.39,1.32-2,2a4.44,4.44,0,0,1-3.87,1.45c-2.75-1.53-4-4.31-5.74-6.72,1.42,0,2.33-.87,3.24-1.79,5.63-5.64,11.65-10.94,16.81-17,7.46-8.75,16-16.37,23.89-24.69,0.76-.8,1.43-1.69,2.14-2.54l0.44-.37h0.58a3.92,3.92,0,0,1,1,.55l0.44,0.37c0.29,0.24.57,0.5,0.84,0.76l0.42,0.37c0.43,0.34.86,0.68,1.31,1a9,9,0,0,1,.89.62,4.2,4.2,0,0,1,.75.78Z" transform="translate(174.05 614.82)"/><path class="cls-36" d="M207.79-404.66a3.85,3.85,0,0,1,1.48-2.88c7.51-6.87,13.68-15,21-22.05,7.11-6.83,14-13.92,21-20.88a13.94,13.94,0,0,1,3.56-3.13q0,7.68,0,15.35c-11.19,10.89-21.11,23-32.62,33.59h-14.4Z" transform="translate(174.05 614.82)"/><path class="cls-37" d="M188.53-491a4.3,4.3,0,0,1,1.41.23,2.55,2.55,0,0,0,3.41-.66c2.57-2.63,5.2-5.21,7.8-7.81,1.81-1.81,3.59-3.65,5.44-5.42,4.6-4.43,8.48-9.51,12.77-14.22a20.94,20.94,0,0,1,2.81,2.48c2.64,3.3,5.16,6.68,7.73,10,0.08,3.45-2.76,5.22-4.55,7.49-2.56,3.25-5.9,5.82-8.57,9s-6.44,1.17-9.39,2.68c-1.28.66-2.54,1.33-3.79,2C197.85-481.87,191.33-484.4,188.53-491Z" transform="translate(174.05 614.82)"/><path class="cls-38" d="M117.55-519c1.56,1,1.87,2.53,1.91,4.14s1.26,3.81.16,5c-1.45,1.64-3.12-.5-4.71-0.89a21.71,21.71,0,0,0-5.2-.49c-9.39,0-18.78,0-28.17,0-2.07,0-4.13-.09-6.2-0.14-0.42-.46-0.81-1-1.28-1.39-2.78-2.51-.22-6.56,2.49-6.92a26.44,26.44,0,0,1,3.34-.15c9.24,0,18.48,0,27.72-.13A68.82,68.82,0,0,1,117.55-519Z" transform="translate(174.05 614.82)"/><path class="cls-39" d="M131-483.36q0,13.64,0,27.27c0,1.8,0,3.51-2,4.47a23.35,23.35,0,0,0-2.77,1.85l-14.38-17.29a4.27,4.27,0,0,0,3.81-1.42c4.23-4.63,9.3-8.46,12.91-13.68A3,3,0,0,1,131-483.36Z" transform="translate(174.05 614.82)"/><path class="cls-2" d="M222.19-404.66a13.44,13.44,0,0,1,2.56-4c8.86-8.2,16.27-17.79,25.06-26.06a17.68,17.68,0,0,1,5-3.55c0,2.7-.08,5.41.06,8.1a6.18,6.18,0,0,1-2.09,5.05c-5.11,5-10.14,10.08-15.18,15.15a34.19,34.19,0,0,0-3.56,3.83,3.53,3.53,0,0,1-3.26,1.48C227.91-404.67,225.05-404.65,222.19-404.66Z" transform="translate(174.05 614.82)"/><path class="cls-5" d="M206.84-488.14a2.47,2.47,0,0,1,2.07-1c1.43,0,2.87,0,4.3,0a3,3,0,0,0,2.42-1.24,66.07,66.07,0,0,1,4.92-5.2,93.88,93.88,0,0,0,9.32-10.8c2.24,1.35,3.15,3.88,5,5.64a35.28,35.28,0,0,1,3.66,4.92c0.34,0.3.62,0.65,1,1h0a3.13,3.13,0,0,1-.46,3.94c-2.95,3.46-5.6,7.28-10,9.15a3.92,3.92,0,0,1-1.43-.19,12.28,12.28,0,0,1-2-.92,22.8,22.8,0,0,0-13.85-4C210-486.85,208.21-486.7,206.84-488.14Z" transform="translate(174.05 614.82)"/><path class="cls-40" d="M159.82-528.59c-3.46.08-6.93,0.2-10.39,0.22-7.41,0-14.83,0-22.24.05a22.33,22.33,0,0,0,1.48-2.41c1-2.24,2.83-2.62,5.09-2.61,17.64,0.08,35.28.09,52.92,0.12,1.06,3.32-.7,4.24-3.59,4.24-6.19,0-12.38,0-18.57,0C162.95-528.95,161.34-529.29,159.82-528.59Z" transform="translate(174.05 614.82)"/><path class="cls-33" d="M227.93-482.38a3.75,3.75,0,0,0,2.55-1.12c2.24-2.26,4.52-4.48,6.74-6.75a7.63,7.63,0,0,0,2.25-4.62,59.12,59.12,0,0,1,6.73,8.63c0.33,0.31.62,0.66,1,1h0c0.32,0.32.61,0.67,1,1h0c-3.31,4.3-7.44,7.81-11.26,11.61a15.15,15.15,0,0,1-3.26,1.93l-0.42-.41a18.31,18.31,0,0,0-1.65-2.47C230.43-476.6,227.9-479,227.93-482.38Z" transform="translate(174.05 614.82)"/><path class="cls-41" d="M159.82-528.59c1-1.1,2.31-.84,3.55-0.84,6.16,0,12.32,0,18.48,0,3.5,0,3.5-.05,4.82-3.76,5.09,0,10.18,0,15.26-.07,3.47,0,5.75,2.1,8.07,4.2a4.55,4.55,0,0,1-.47.76l-48.3-.09A11.07,11.07,0,0,1,159.82-528.59Z" transform="translate(174.05 614.82)"/><path class="cls-37" d="M217.4-521.76l-1-1Z" transform="translate(174.05 614.82)"/><path class="cls-37" d="M218.34-520.79l-0.94-1Z" transform="translate(174.05 614.82)"/><path class="cls-39" d="M110.91-468l0.9,0.91Z" transform="translate(174.05 614.82)"/><path class="cls-37" d="M219.28-519.84l-0.93-.93Z" transform="translate(174.05 614.82)"/><path class="cls-32" d="M248.11-484.32l-1-1Z" transform="translate(174.05 614.82)"/><path class="cls-32" d="M247.16-485.28l-1-1Z" transform="translate(174.05 614.82)"/><path class="cls-33" d="M239.47-494.88l-1-1Z" transform="translate(174.05 614.82)"/><path class="cls-20" d="M136.66-229.77l-18.68-.1c-1.44,0-2.88,0-4.32,0A2.87,2.87,0,0,1,110.8-232a15.66,15.66,0,0,1-.63-5.68q-0.1-22.78-.21-45.57c0-1.44-.05-2.88-0.08-4.31-0.34-1.88,1.27-2.42,2.34-3.21q18.29-13.5,36.83-26.64c1.46-1,2.91-2,4.81-1.73a7.11,7.11,0,0,1,2.37.84,7.09,7.09,0,0,1,1,.62,9.19,9.19,0,0,1,.87.73l0.41,0.38c0.28,0.24.54,0.49,0.81,0.74l0.42,0.36a16,16,0,0,0,1.83,1.26,9.07,9.07,0,0,1,1,.67c0.34,0.24.65,0.49,1,.75l0.5,0.38c6.92,5,13.86,10.05,20.77,15.1,0.51,0.38,1,.76,1.54,1.13a11.78,11.78,0,0,1,1,.74c0.35,0.25.68,0.52,1,.8l0.52,0.4c2.5,2,5.54,3.34,7.6,5.94a5.71,5.71,0,0,1,1,2.25c0.43,16.56.22,33.12,0.26,49.68,0,5.73-2.44,7.8-8.15,7.22-7.78-.8-15.6.17-23.36-0.83a5.72,5.72,0,0,1-3.27-3c-1.36-5.17-.58-10.45-0.67-15.69-0.06-3.47-1.43-4.83-4.88-4.8-14.13.11-12.26-1.18-12.43,11.64,0,2.7.22,5.44-.48,8.09C143.33-229.52,141-228.38,136.66-229.77Z" transform="translate(174.05 614.82)"/><path class="cls-20" d="M95.48-284.42l-2,1.22c-1.5.92-1.91,0.94-2.84-.23q-3-3.75-5.89-7.58c-0.95-1.26-.83-1.65.56-2.69,0.64-.48,1.31-0.92,2-1.38l59.11-41.07c1.05-.73,2.11-1.45,3.2-2.11a6.57,6.57,0,0,1,7.64.17c4.37,3,8.8,5.83,13.2,8.74,1.2,0.79,2.37,1.63,3.58,2.41,0.84,0.54,1.93.61,1.94-.87,0-2.24.13-4.47,0.24-6.71a1.2,1.2,0,0,1,1.23-1.2c1.76-.06,3.51-0.06,5.27,0,3,0,6.08.1,9.12,0.15a1.62,1.62,0,0,1,1.74,1.78c0.22,2.69-.21,5.44.65,8.08,2.1,1.83,1.34,4.32,1.38,6.55,0.06,2.93.46,5.58,3.11,7.35a12.69,12.69,0,0,1,1,.84l0.48,0.43c0.32,0.28.62,0.58,0.92,0.87l0.47,0.41c0.5,0.37,1,.71,1.56,1a9.29,9.29,0,0,1,1.06.73q7.46,5.45,14.91,10.91c4.46,3.74,4.59,4.3,1.92,8.62-3.71,6-4.11,6.21-8.59,4.29-5.69-4-11.5-7.89-17.11-12a11.48,11.48,0,0,1-1-.7,10.88,10.88,0,0,1-.85-0.72l-0.4-.35a10.67,10.67,0,0,0-1.3-.86,6.34,6.34,0,0,1-.88-0.56c-0.29-.2-0.57-0.42-0.86-0.63l-0.46-.29c-0.68-.38-1.39-0.71-2-1.13-6.71-4.76-13.42-9.51-20.24-14.09a10.43,10.43,0,0,1-1-.71,10.74,10.74,0,0,1-.92-0.76l-0.43-.39a13.8,13.8,0,0,0-1.78-1.36,9.3,9.3,0,0,1-.92-0.63c-0.31-.21-0.6-0.45-0.9-0.68l-0.48-.32c-0.69-.41-1.41-0.76-2.1-1.19-3.3-3.1-6.17-3-10-.13-15.51,11.43-31.34,22.42-47,33.58A16.81,16.81,0,0,1,95.48-284.42Z" transform="translate(174.05 614.82)"/><path class="cls-42" d="M165.57-230.82c5.89,0.07,11.78.12,17.67,0.23,2.54,0,5.09.11,7.62,0.31a6,6,0,0,0,3.67-.7,3.4,3.4,0,0,0,2-3c0-1.27,0-2.55,0-3.82q-0.11-24.85-.22-49.7a1.08,1.08,0,0,1,1.47.42c1.78,5.76.58,11.66,0.82,17.49A149.06,149.06,0,0,0,199-250c4.43-4.5,8.62-8.95,12.75-13.47,10.84-11.86,21.26-24.09,32.48-35.6,3.59,1.67,6.37,4.47,9.52,6.75a2.74,2.74,0,0,1,1,2.47c0,1.72,0,3.44,0,5.17a4.7,4.7,0,0,0-1.78.56c-2.7,2.47-5.52,4.86-7.63,7.88a29.31,29.31,0,0,1-3.1,3.61c-5.31,5.47-10.41,11.14-15.2,17.07a2.68,2.68,0,0,1-.32.35c-4.48,3.87-7.88,8.73-11.95,13-5,5.28-10,10.61-14.56,16.36a2.51,2.51,0,0,1-.32.36c-4.72,4.08-8.45,9.09-12.56,13.72-4.32,4.86-9.08,9.33-13,14.57a56.34,56.34,0,0,1-5.69,5.79,3.23,3.23,0,0,1-2.19.82h0a10.38,10.38,0,0,0-1-1,4,4,0,0,1-1.37-.33c-2.48-1.7-4.95-3.41-7.35-5.21a13.21,13.21,0,0,1-1.86-2.13c8.51-9.44,17.08-18.82,26.2-29.16-4.42-.61-7.73-0.18-11-0.44C168.47-228.91,166.17-228.08,165.57-230.82Z" transform="translate(174.05 614.82)"/><path class="cls-43" d="M136.66-229.77c0.79-.06,1.59-0.07,2.38-0.17,2.71-.34,4-1.57,4.33-4.22a32.89,32.89,0,0,0,.08-3.83q0-7.67,0-15.33a1.56,1.56,0,0,1,1.73-1.77q8.38,0,16.77,0a1.56,1.56,0,0,1,1.71,1.8q0,5,0,10.06c0,3.35,0,6.71.07,10.06,0.63,1.56.79,3.05-.39,4.48-5.59,6.74-11.48,13.21-17.5,19.56-0.86.9-1.88,1.78-3.35,1.3q-13.73-9.78-27.46-19.57c-0.36-.26-0.82-0.63-0.43-1.17a1.09,1.09,0,0,1,.78-0.35c5.72,0,11.44,0,17.17-.08C134-229,135.48-228.59,136.66-229.77Z" transform="translate(174.05 614.82)"/><path class="cls-44" d="M244.28-299a5,5,0,0,1-.55,1.79c-2.56,3-5.08,6.11-7.85,8.95-4.67,4.78-8.59,10.24-13.63,14.67-2,3.35-5.27,5.55-7.53,8.58-3.52,4.74-8.32,8.32-11.59,13.26a17.53,17.53,0,0,1-2.65,2.75c-0.67.64-1.3,1.64-2.34,1.32s-0.88-1.56-.88-2.46c0-6.06,0-12.12.05-18.17,5.37-5.15,9.4-11.57,15.27-16.25l3.56,1.79c2-2.87,3.91-5.7,5.81-8.57a1.45,1.45,0,0,0-.46-2c-1-.93-2.45-1.44-3.2-2.72,4.59-3.75,7-9.72,12.54-12.49,2,0.73,3.48,2.15,5.1,3.41C238.67-303.09,241.49-301.09,244.28-299Z" transform="translate(174.05 614.82)"/><path class="cls-45" d="M142.53-207.85a34.39,34.39,0,0,0,7.9-8.06,12.38,12.38,0,0,1,2.19-2.48c3.75-3.2,6.37-7.42,9.85-10.85,1.13-1.12,1.18-2.52,1.31-3.94l1.79,2.36a3,3,0,0,0,2.59.9h9.06c1.27,0,2.55,0,3.81.06s1.78,1,1.1,1.88a44.5,44.5,0,0,1-4.46,5.54c-4.88,4.57-8.77,10-13.5,14.74-2.2,2.2-4.07,4.84-6.31,7.08a4.1,4.1,0,0,1-2.9,1.44,3.35,3.35,0,0,1-1.34-.33C150.07-202.48,145.86-204.58,142.53-207.85Z" transform="translate(174.05 614.82)"/><path class="cls-46" d="M95.48-284.42c0.88-.69,1.73-1.41,2.64-2.06l52.33-37.19c1-.73,2.1-1.41,3.24-2.17a28.7,28.7,0,0,1,6.2,4.46c0.29,0.84,1.29.66,1.77,1.23l0.05,0a3,3,0,0,0,1.11.81l-0.06-.05a9.51,9.51,0,0,0,2.88,2l0,0a1.33,1.33,0,0,0,1.18.83l-0.07-.07c1.14,1.39,1.41,2.79.14,4.28-1.48,1.74-2.84.64-4.24-.11l0,0a1.72,1.72,0,0,0-1.14-.88l0.09,0.08c-0.64-1.09-1.87-1.4-2.79-2.12h0a2.52,2.52,0,0,0-1.08-.91l0.07,0.06a1.47,1.47,0,0,0-1.12-1l0.1,0.09c-0.27-.9-1.33-0.61-1.81-1.19-2.08-.41-3.65.56-5.25,1.73-6.83,5-13.72,9.89-20.56,14.85-6.45,4.68-12.87,9.41-19.31,14.12q-6.33,1.74-12.67,3.5A1.7,1.7,0,0,1,95.48-284.42Z" transform="translate(174.05 614.82)"/><path class="cls-28" d="M230.83-308.62c-0.58.74-1.12,1.53-1.76,2.22-1.63,1.73-3.18,3.49-4.65,5.37-1.59,2-3.1,4.52-6.13,4.91a131.3,131.3,0,0,1-15.44-11.31c3-5,7.46-8.77,11.67-12.72,3.54,1.56,6.24,4.36,9.5,6.36A80.33,80.33,0,0,1,230.83-308.62Z" transform="translate(174.05 614.82)"/><path class="cls-47" d="M214.52-320.16a15.43,15.43,0,0,1-3.51,5,56.31,56.31,0,0,0-6.5,6.88,4.35,4.35,0,0,1-1.65.84h0c-0.24-.89-1.3-0.61-1.73-1.23l-0.05,0a5.51,5.51,0,0,0-1.09-.84l0.07,0.05a1.67,1.67,0,0,0-1.32-.94l-2.43-1.43a4,4,0,0,1-2.09-3.92c0.07-3.32,0-6.64-.05-10l0.43-7.95a2.39,2.39,0,0,1,1.05-.07q7.75,5,15,10.73c0.35,0.29.63,0.65,1,.93h0a5.93,5.93,0,0,0,1,.95,5.83,5.83,0,0,1,.9.07l1,0.92h0Z" transform="translate(174.05 614.82)"/><path class="cls-28" d="M214.52-320.16l-1-.92Z" transform="translate(174.05 614.82)"/><path class="cls-28" d="M212.67-321.15l-1-.95Z" transform="translate(174.05 614.82)"/><path class="cls-28" d="M211.66-322.09l-1-.93Z" transform="translate(174.05 614.82)"/><path class="cls-3" d="M165.53-191.51l1,1Z" transform="translate(174.05 614.82)"/><path class="cls-20" d="M-118.45-231.94c-1.35-1.63-3.34-2.41-5-3.68-2.1-1.65-2.67-3.38-1.65-5.85a27.11,27.11,0,0,1,2.07-3.78,3.38,3.38,0,0,0-.07-4,8.85,8.85,0,0,1-.72-1.25c-0.91-1.93-2.24-3-4.54-2.66a23.72,23.72,0,0,1-4.79,0,3.66,3.66,0,0,1-3.61-3.23c-0.62-3.46-1.3-6.91-1.77-10.39-0.37-2.7.61-4.19,3.19-5.2,1.48-.58,3-0.95,4.57-1.43a3.25,3.25,0,0,0,2.43-2.68,14.17,14.17,0,0,1,.66-2.3,2.55,2.55,0,0,0-.72-3c-1.18-1.08-2.33-2.19-3.44-3.35-2.58-2.71-2.74-3.69-.71-6.66,1.89-2.77,4-5.39,6-8.12a3.58,3.58,0,0,1,4.64-1.33c1.78,0.71,3.47,1.62,5.2,2.45a2.88,2.88,0,0,0,3.16-.16,10.76,10.76,0,0,1,2-1.26c1.61-.66,2-1.89,1.91-3.47-0.06-1.75-.06-3.52.05-5.27a3.66,3.66,0,0,1,2.84-3.46,75.83,75.83,0,0,1,12.23-2.19,3.1,3.1,0,0,1,3.36,2.19,53.52,53.52,0,0,1,1.88,5.43,3,3,0,0,0,2.55,2.48,5.29,5.29,0,0,1,.94.21,5,5,0,0,0,6.31-1.86,25,25,0,0,1,2.7-2.72,3.3,3.3,0,0,1,4.38-.52c3.18,2.13,6.3,4.37,9.38,6.65,1.87,1.38,1.29,3.43,1.2,5.31,0.84,2.73-2.56,5.28-.25,8.15,2.14,2.66,5.23,1.82,7.9,2.49A7,7,0,0,1-48.79-281c0.57,2.15.67,4.39,1.21,6.54a15.27,15.27,0,0,1,0,5.06,5.08,5.08,0,0,1-.49,1.35,6.34,6.34,0,0,1-.86,1.12l-0.52.46a15.63,15.63,0,0,1-3.85,1.77c-5.05,2-5.77,5.25-2.11,9.43,1,1.18,2.3,2.19,2.88,3.73,0.22,4.24-5.38,13.54-9.1,15.18-2.34,1-4.3,0-6.33-1-5.31-2.46-7.63-1.07-8.1,4.79s-1.23,6.77-6.83,8c-3.83.83-7.62,2.54-11.65,0.94a5.19,5.19,0,0,1-1.14-.84,7.35,7.35,0,0,1-1.11-1.73,8.84,8.84,0,0,1-.51-1.21,26.06,26.06,0,0,0-1.11-3c-3.2-4.33-5-4.47-9.2-.71C-112.37-226.83-114.79-227-118.45-231.94Z" transform="translate(174.05 614.82)"/><path class="cls-20" d="M-58.19-294.24a9.78,9.78,0,0,1,1.49-5.45,4.13,4.13,0,0,0,0-4.11,12.88,12.88,0,0,1-1-2.18A4.16,4.16,0,0,0-61-309.11c-5.67-1.14-5-2.88-4.69-7.06a61.79,61.79,0,0,1,.84-6.64c0.35-2,1.29-3.13,3.21-2.82,4.18,0.67,5.93-2,7.85-4.77,0.88-1.29,1.4-2.47.75-4a4.41,4.41,0,0,1-.24-0.93c-0.79-4.21-.54-4.65,3.54-6.51,2-.92,4-1.92,6.09-2.78,2.29-1,3.05-.74,4.56,1.08a1.55,1.55,0,0,1,.27.39c1.6,4.09,5.32,3.94,8.74,4.31a3,3,0,0,0,1.75-.59,16.65,16.65,0,0,0,1.76-1.6c3-2.72,3.82-2.8,7-.59,1.57,1.09,3,2.44,4.64,3.38A5.3,5.3,0,0,1-12-332.65a3.69,3.69,0,0,1,0,2.78c-0.84,3.89.7,6.62,4.3,8S-3-318-3.09-314.44a53.49,53.49,0,0,1-.71,6.15c-0.5,3.26-2.16,5-5.49,5.63-4.64.87-6,2.74-6.19,7.52-0.23,6.07-6.9,11.9-13,11.41-2.16-.18-3.26-1.73-4.57-3.14a7.22,7.22,0,0,0-9.44-1.44c-5.16,3.22-6.12,3.27-10.93-.43C-55.33-290.21-57.91-291.27-58.19-294.24Z" transform="translate(174.05 614.82)"/><path class="cls-37" d="M30.19-265.44q0,6.24,0,12.49,0,1.44,0,2.88c-4.19,1.17-7.84,3.51-11.65,5.5-0.84.44-1.59,1.08-2.43,1.52C8.2-238.92.24-234.86-7.66-230.66c-7.61,4-15.15,8.2-22.72,12.3l-1.28.66c-8.36,4.34-16.9,8.38-25,13.1-6.64,3.85-13.8,6.67-20.23,10.89a25.6,25.6,0,0,1-4.42,1.79c-1,.43-1.84-0.26-2.72-0.55-3.36-2.77-6.73-5.53-8.65-9.59,5.72-4.7,12.66-7.31,19.08-10.73q46.23-24.65,92.56-49.14C22.33-263.74,25.5-267.34,30.19-265.44Z" transform="translate(174.05 614.82)"/><path class="cls-48" d="M-95.43-225.23c2,1.45,4.21,1.29,6.43.88,2.82-.52,5.62-1.12,8.42-1.73a3.62,3.62,0,0,0,3.14-3.66,49.38,49.38,0,0,0,0-5.26,3.11,3.11,0,0,1,1.62-3.18c0.83-.46,1.62-1,2.41-1.56a3.18,3.18,0,0,1,3.6-.12c1.39,0.77,2.76,1.6,4.2,2.28,2.29,1.1,3.3.92,5.11-.93a26.53,26.53,0,0,0,2.4-3c1-1.42,1.86-3,3-4.3A7,7,0,0,0-53.35-252c2.85,1.12,5.31.46,8-1,18.15-10,36.62-19.5,54.9-29.3,4.64-2.49,9.26-5,13.94-7.44,2.06-1.07,4.13-2.58,6.73-1.61v13.44a21.87,21.87,0,0,1-6.64,4.64c-29.37,15.14-58.37,31-87.64,46.31-9.9,5.18-19.7,10.55-29.63,15.68-2.08,1.07-4.27,2.48-6.68.61h0a5.91,5.91,0,0,0-1-1,21.33,21.33,0,0,1-5.68-5.8C-104.09-221.41-99-222.19-95.43-225.23Z" transform="translate(174.05 614.82)"/><path class="cls-31" d="M-100.4-210.69a10.23,10.23,0,0,0,5.5-1.29c8.32-4.38,16.78-8.52,25-13.11,4.32-2.42,8.88-4.38,13.07-7,6.8-4.19,14.33-7,21-11.38a14,14,0,0,1,1.27-.67c8.35-4.33,16.77-8.53,25-13,11.06-6,22.15-12,33.4-17.63,2.11-1.06,3.76-3,6.34-3.17q0,6.24,0,12.48a6.64,6.64,0,0,0-3.66.88c-3.34,1.84-7,3.12-10.07,5.45a8.71,8.71,0,0,1-1.26.68c-7.62,4-15.27,7.92-22.87,12-7.87,4.18-15.69,8.46-23.53,12.68-1.26.68-2.57,1.28-3.84,1.94-7.91,4.12-15.89,8.13-23.72,12.39-9.79,5.33-19.54,10.72-29.54,15.65-1.42.7-2.75,1.65-4.41,1.74-2.63-1.79-4.57-4.29-6.81-6.49A3.25,3.25,0,0,1-100.4-210.69Z" transform="translate(174.05 614.82)"/><path class="cls-30" d="M-58.19-294.24a55.15,55.15,0,0,0,8.36,6.42c2.57,1.7,3.3,1.59,5.47-.38,0.71-.64,1.34-1.37,2.06-2a3.65,3.65,0,0,1,3.1-.8c3.39,0.38,6.42,1,8.21,4.54,1,2.07,2.18,2.07,4.48,1.13,2.66-1.08,5.34-2.16,7.93-3.4,2-1,2.39-2,2.07-4.28a18.88,18.88,0,0,0-.33-1.89,6.85,6.85,0,0,1,1-5.42c1.46-2.44,3.18-3.85,6.12-3.58a6.11,6.11,0,0,0,2.35-.37,2.67,2.67,0,0,0,1.9-2,49.48,49.48,0,0,0,1.16-10.95A2.87,2.87,0,0,0-6-319.83a4.09,4.09,0,0,0-1.37-.42c-3.28-.39-4.7-2.55-5.9-5.4-0.85-2-.9-3.62.31-5.35,0.37-.52.65-1.1,1-1.66,1.77-1.51,1.79-1.53,2.93-.42,1.37,1.33,2.73,2.66,4.05,4,6.62,6.84,13.62,13.29,20.6,19.76a12.18,12.18,0,0,1,3.12,3.55q0.49,0.45.94,0.94l0,0q0.48,0.46.94,0.94v0C22-300.61,19.15-300,17.41-299c-9.62,5.28-19.39,10.27-29,15.49s-19.73,10.3-29.46,15.71a15.32,15.32,0,0,1-4.79,2.09c-1.42.23-3.31,1-3.58-1.58h0a9.26,9.26,0,0,0,.91-1l0,0a7,7,0,0,0,0-5.75,8.63,8.63,0,0,1-.95-3.65c-0.21-1.41-.55-2.8-0.74-4.21a3.67,3.67,0,0,0-3.49-3.32,20.08,20.08,0,0,0-4.74-.14c-2.15.21-3.3-.69-4.62-2.4a5.21,5.21,0,0,1-.4-6.44c0.54-1,1.11-1.92,1.66-2.88l0.71-.61c0.82-.7,1.37-0.65,1.72,0C-58.82-296.57-59.57-295-58.19-294.24Z" transform="translate(174.05 614.82)"/><path class="cls-49" d="M-49.46-267.34c1,1.24,2.25,1.1,3.46.57a32.33,32.33,0,0,0,5.54-2.79,71.66,71.66,0,0,1,7.94-4.37c7.32-3.85,14.77-7.47,22-11.56,4.85-2.76,9.93-5,14.76-7.81s9.49-5.19,14.33-7.59a3.16,3.16,0,0,0,2.06-2.93,56.52,56.52,0,0,1,9.62,9.57q0,1.44,0,2.89a47.56,47.56,0,0,0-11.48,5.72,9.94,9.94,0,0,1-1.27.66c-8.33,4.32-16.76,8.46-25,13-5.71,3.17-11.64,5.91-17.28,9.15-5.11,2.94-10.42,5.47-15.63,8.2-2.81,1.48-5.52,3.15-8.34,4.6-2.35,1.21-2.39,1.12-3.91-1.34a3.74,3.74,0,0,0-.68-0.65,50.27,50.27,0,0,0-4.15-3.87c-1.88-1.41-1.77-3.11-1.4-5.09,0.45-2.41,1.53-4,4.06-4.58A54.83,54.83,0,0,0-49.46-267.34Z" transform="translate(174.05 614.82)"/><path class="cls-39" d="M-95.43-225.23A3.46,3.46,0,0,1-97-222.94c-3.09,2.34-6.72,3.66-10.09,5.48h0q-0.48-.46-0.93-0.95l0,0q-0.48-.44-0.92-0.92a5.63,5.63,0,0,1-.08-0.89,4.26,4.26,0,0,0-1-1h0a5,5,0,0,0-1-1,42,42,0,0,1-7.35-7.31c-0.52-.62-1.29-1.56-0.12-2.41,1.2,0.75,2.38,1.55,3.62,2.24,2,1.09,3.16,1,4.76-.47,0.82-.74,1.53-1.61,2.31-2.39,3-3,2.95-2.81,7-2,2.5,0.53,3.55,1.82,3.38,4.27,0.63,1-.1,2.33.94,3.18l0-.06c0.47,0.59.24,1.55,1.06,2Z" transform="translate(174.05 614.82)"/><path class="cls-48" d="M-111-222.22l1,1Z" transform="translate(174.05 614.82)"/><path class="cls-48" d="M-110-221.25l1,1Z" transform="translate(174.05 614.82)"/><path class="cls-48" d="M-109-219.35l0.92,0.92Z" transform="translate(174.05 614.82)"/><path class="cls-48" d="M-108-218.41l0.93,0.95Z" transform="translate(174.05 614.82)"/><path class="cls-49" d="M20.58-303.83l-0.94-.94Z" transform="translate(174.05 614.82)"/><path class="cls-49" d="M19.62-304.79l-0.94-.94Z" transform="translate(174.05 614.82)"/><path class="cls-31" d="M-101.37-211.66l1,1Z" transform="translate(174.05 614.82)"/><path class="cls-50" d="M1411-204.38c0-4.64,0-9.27,0-13.91,0-2.71.28-2.92,3.13-2.94q7.67-.06,15.35,0c1.92,0,2.41.72,2.23,2.75a1.68,1.68,0,0,1-1.85,1.72c-2.72,0-5.44,0-8.15,0-6.26,0-5.59-.59-5.64,5.67,0,0.8,0,1.6,0,2.4,0.1,1.56.49,2,2,2.06,2.4,0.07,4.8,0,7.19.05,1.28,0,2.56,0,3.84,0,1.72,0.08,2.25.71,2.18,2.41-0.06,1.47-.53,2-2,2-2.72.06-5.44,0-8.15,0-1.12,0-2.24,0-3.36.06a1.53,1.53,0,0,0-1.61,1.42,8.5,8.5,0,0,0-.08,1.43c0.17,9.07-1.43,7.55,7.41,7.7,2.4,0,4.8,0,7.19.07,1.19,0,1.68.88,1.6,2.45-0.05,1-.36,2-1.57,2-2.4.07-4.79,0.06-7.19,0.07-3.36,0-6.72,0-10.07,0-1.87,0-2.34-.45-2.4-2.2-0.08-2.56,0-5.11-.05-7.67s0-5.12,0-7.67h0Z" transform="translate(174.05 614.82)"/><path class="cls-38" d="M1379.6-187c-0.81.06-1.44,0.1-2.06,0.16a2.65,2.65,0,0,1-3-1.79c-0.93-2.2-2-4.36-2.9-6.57a2.8,2.8,0,0,0-3-1.91c-3.51,0-7,0-10.54,0a2.5,2.5,0,0,0-2.56,1.71c-0.87,2.06-1.87,4.06-2.62,6.16s-2.1,2.66-4.08,2.35a10.56,10.56,0,0,1-1.29-.36c-0.35-1.3.4-2.26,0.83-3.25,4-9.23,8-18.45,12-27.67,0.25-.58.49-1.18,0.76-1.76a2.23,2.23,0,0,1,2.31-1.33,2.2,2.2,0,0,1,2.32,1.3c0.24,0.59.54,1.15,0.8,1.74q6.17,14,12.32,28.05A4.31,4.31,0,0,1,1379.6-187Z" transform="translate(174.05 614.82)"/><path class="cls-38" d="M1298.92-194.76c1.4,0.07,2.1,1.32,3.13,2a9.61,9.61,0,0,0,5.88,1.65c2-.1,3.81-0.69,4.65-2.76,0.76-1.89.16-4-1.73-5.52-1.35-1.11-2.88-2-4.29-3-1.8-1.32-3.62-2.61-5.33-4a7.79,7.79,0,0,1-2.79-5.88,9,9,0,0,1,6.08-8.82,12.18,12.18,0,0,1,7.53-.17c3.4,1,5.38,1.61,4.08,6.43-1.57.19-2.55-1.1-3.86-1.59a9,9,0,0,0-5.6-.65c-3.45.91-4.48,4-2.06,6.49a34.88,34.88,0,0,0,4.46,3.58c1.79,1.33,3.71,2.5,5.42,3.92,3.52,2.91,4,6.81,2.85,10.89a7.68,7.68,0,0,1-5.69,5.36,14.63,14.63,0,0,1-10.71-1c-1.73-.88-2.78-2.11-2.49-4.16C1298.57-193,1298.14-193.93,1298.92-194.76Z" transform="translate(174.05 614.82)"/><path class="cls-51" d="M1334.09-186.61a2.81,2.81,0,0,1-3.12-2.76,2.92,2.92,0,0,1,2.91-3,3,3,0,0,1,2.89,2.59A2.85,2.85,0,0,1,1334.09-186.61Z" transform="translate(174.05 614.82)"/><path class="cls-51" d="M1393.35-192.41a2.94,2.94,0,0,1,2.94,3,2.84,2.84,0,0,1-2.65,2.78,2.82,2.82,0,0,1-3.16-2.73A2.92,2.92,0,0,1,1393.35-192.41Z" transform="translate(174.05 614.82)"/><path class="cls-52" d="M1449-186.61a2.72,2.72,0,0,1-2.94-2.92,2.93,2.93,0,0,1,2.55-2.88,3.17,3.17,0,0,1,3.24,2.77A2.86,2.86,0,0,1,1449-186.61Z" transform="translate(174.05 614.82)"/><path class="cls-53" d="M0.43-404.65H-15.89c-1.27-1.84.14-3,1.18-4.12,1.87-2,3.38-4.26,5.26-6.19,11.59-11.85,22.83-24,34.15-36.13,1.36-1.46,2.63-4,5.48-2.51q0,8.64,0,17.28A11.6,11.6,0,0,0,27-433.55c-3.61,3.58-7.37,7-10.74,10.81-4.73,5.34-9.56,10.57-14.66,15.55A3.62,3.62,0,0,0,.43-404.65Z" transform="translate(174.05 614.82)"/><path class="cls-54" d="M30.19-453.6a3.24,3.24,0,0,0-2.19.82c-2.15,2.13-4.63,4-6.36,6.47a73.67,73.67,0,0,1-8.38,9.14C5.84-429.74-.88-421.64-8.44-414.33c-2.36,2.28-4.21,5.16-6.61,7.49a3.19,3.19,0,0,0-.83,2.18H-36a3.43,3.43,0,0,1,1.15-2.54c5.39-4.76,9.5-10.72,14.68-15.69,7.94-7.61,14.72-16.34,22.84-23.78,4.28-6,10.18-10.54,15-16.05,3-3.48,6-7,9.34-10.2,0.92-.9,1.81-1.83,3.24-1.8Q30.19-464.16,30.19-453.6Z" transform="translate(174.05 614.82)"/><path class="cls-1" d="M866.16-198.63c0-3.52,0-7,0-10.55a1.38,1.38,0,0,1,1.43-1.55,75.58,75.58,0,0,1,9.57.19c6.05,0.8,9.94,5.4,10.2,11.49,0.27,6.36-2.95,10.85-8.9,12.53-3.62,1-7.29.61-11,.56a1.25,1.25,0,0,1-1.26-1.19,19.77,19.77,0,0,1-.14-2.38c0-3,0-6.07,0-9.11h0Z" transform="translate(174.05 614.82)"/><path class="cls-55" d="M480.45-206.64c0-.16,0-0.32,0-0.48,0-4.65-.08-4.47,4.95-4.29a8.9,8.9,0,0,1,1.87.34c3,0.77,4.17,2.39,4,5.53-0.17,2.69-1.56,4.11-4.52,4.6-5.7.95-6.26,0.48-6.26-5.23v-0.48Z" transform="translate(174.05 614.82)"/><path class="cls-56" d="M648.65-206.31c0-5.39.75-6,6.16-5,3.82,0.73,5.64,3.41,4.65,6.8a4.43,4.43,0,0,1-3.19,3.25,12.61,12.61,0,0,1-2.83.43c-4.93.2-4.83,0.09-4.79-4.58C648.65-205.67,648.65-206,648.65-206.31Z" transform="translate(174.05 614.82)"/><path class="cls-56" d="M1048.07-206.43c0-1,0-1.92,0-2.87,0.09-1.56.54-2.05,2-2.14a14.7,14.7,0,0,1,5.67.56,4.78,4.78,0,0,1,3.39,5.13,4.65,4.65,0,0,1-3.55,4.55,23,23,0,0,1-4.74.44c-2.33,0-2.67-.37-2.75-2.82,0-1,0-1.91,0-2.87h0Z" transform="translate(174.05 614.82)"/><path class="cls-57" d="M438.37-206.34c0-5.32.8-6,6.17-4.91,1.91,0.37,3.69.93,4.46,3.07,1.24,3.43-.43,6.53-4,7.2a17.22,17.22,0,0,1-2.37.24c-4,.19-4.22,0-4.27-4.17C438.37-205.38,438.37-205.86,438.37-206.34Z" transform="translate(174.05 614.82)"/><path class="cls-58" d="M1123-207.46a11.17,11.17,0,0,1,2.63,4.6c0.89,2.16,2.27,4.15,2.45,6.58-2.67,1.4-5.51.46-8.27,0.55a1.19,1.19,0,0,1-1-1.75C1120.09-200.69,1121.46-203.89,1123-207.46Z" transform="translate(174.05 614.82)"/><path class="cls-59" d="M723.54-207.51a11.68,11.68,0,0,1,2.64,4.66c0.9,2.16,2.28,4.16,2.44,6.59-2.69,1.36-5.52.46-8.29,0.52a1.18,1.18,0,0,1-.95-1.76C720.69-200.73,722.05-203.93,723.54-207.51Z" transform="translate(174.05 614.82)"/><path class="cls-60" d="M-80.32-459.27c2,0.53,3.64.27,4.94-1.52,1-1.36,2.79-2.17,2.83-4.18,4.93-1.16,9.88-.68,14.83-0.25a2.79,2.79,0,0,1,2.48,0,3.5,3.5,0,0,1-1,2.56c-4.82,4.56-8.51,10.17-13.55,14.54-0.81.7-1.47,2.05-2.63,1.75-1.69-.44-0.84-2.12-1-3.25a2.4,2.4,0,0,0-1.08-2l0,0c-0.4-.62-0.29-1.44-0.79-2A31.88,31.88,0,0,0-80.32-459.27Z" transform="translate(174.05 614.82)"/><path class="cls-23" d="M-57.71-465.22l-14.83.25c-5.2,0-10.39-.08-15.59-0.15-1.23,0-2.55.26-3.54-.84L-61-465.68A6.69,6.69,0,0,1-57.71-465.22Z" transform="translate(174.05 614.82)"/><path class="cls-1" d="M-11.92-513.1c0.86,0.62.88,1.24,0,1.86Q-11.92-512.16-11.92-513.1Z" transform="translate(174.05 614.82)"/><path class="cls-26" d="M-46.59-436.33a16.27,16.27,0,0,1-8.55-8.72V-445a8.67,8.67,0,0,1,0-6.67,1.77,1.77,0,0,0,.31-0.35c3.78-7.58,7.5-9.48,15.85-8.14l0.93,0.14a20.21,20.21,0,0,1,6.63,6.47c0.22,2.5,1.2,4.88.54,7.54-1.44,5.85-5.92,9.72-11.88,9.8C-44-436.18-45.32-436.29-46.59-436.33Z" transform="translate(174.05 614.82)"/><path class="cls-27" d="M-55.16-451.66q0,3.33,0,6.67C-56.6-447.43-56.61-449.11-55.16-451.66Z" transform="translate(174.05 614.82)"/><path class="cls-60" d="M-90.76-460.35c2.9-1.42,5.77-1.7,8.6.17A30.76,30.76,0,0,0-90.76-460.35Z" transform="translate(174.05 614.82)"/><path class="cls-23" d="M-75.31-453.59a1.93,1.93,0,0,1,.79,2A2.21,2.21,0,0,1-75.31-453.59Z" transform="translate(174.05 614.82)"/><path class="cls-60" d="M-82.24-460.22a1.65,1.65,0,0,1,2,1A2.32,2.32,0,0,1-82.24-460.22Z" transform="translate(174.05 614.82)"/><path class="cls-39" d="M140.5-481.24a1.79,1.79,0,0,0-2-2.09c-2.52,0-5,0-7.55,0a3.59,3.59,0,0,1,1-2.44,4,4,0,0,0,1-2.46,0.81,0.81,0,0,1,.89.16c0.95,1.16,2.28.91,3.52,0.92,5.22,0,10.45,0,15.67,0a2.1,2.1,0,0,1,.12,2.62,32.22,32.22,0,0,1-9.53,10.29c-1.07.79-2.5,1.59-3.72,0C139.16-476.7,138.8-479.06,140.5-481.24Z" transform="translate(174.05 614.82)"/><path class="cls-39" d="M133-488.25a1.64,1.64,0,0,1-2-1A2.59,2.59,0,0,1,133-488.25Z" transform="translate(174.05 614.82)"/><path class="cls-39" d="M131.14-489.19a1.34,1.34,0,0,1-1.06-1A1.26,1.26,0,0,1,131.14-489.19Z" transform="translate(174.05 614.82)"/><path class="cls-39" d="M130.12-490.11a1.41,1.41,0,0,1-.95-1.19A1.4,1.4,0,0,1,130.12-490.11Z" transform="translate(174.05 614.82)"/><path class="cls-20" d="M227.93-482.38a49.38,49.38,0,0,1,4.8,8.63c0.88,0.82.17,2.12,0.9,3h0a32.24,32.24,0,0,1-1.39,9.85c-2.59,8.56-11.7,14.07-19.15,14l-4.29,0-0.25-.2-0.3.11a10.53,10.53,0,0,1-2.32-.73l-0.31-.23-0.39,0c-0.7-.38-1.62-0.25-2.16-1a55.09,55.09,0,0,1-7.7-6.63,49.38,49.38,0,0,1-3.7-8.91c0-3.19-.08-6.42,1.1-9.42,0.74-1.88.26-3-1.34-3.94-0.54-.31-1.11-0.59-1.66-0.88l0,0a3.09,3.09,0,0,1-1.13-.89h0c-0.9-.75-2.09-1.11-2.83-2.09l0.1,0.09a2.7,2.7,0,0,1-1.13-.9l0,0a7.5,7.5,0,0,0-1-.83l-0.09-.06c-0.36-.7-1.42-0.45-1.71-1.25l-0.93-1c-0.45-.48-0.77-1-0.2-1.59a29.39,29.39,0,0,0,3.3-3.26c1.35-1.89,2.79-1.43,4.4-.62a72.43,72.43,0,0,0,8.66,6.69,1.91,1.91,0,0,0,2.59.11,33,33,0,0,1,7.07-3.93,4.36,4.36,0,0,0,.95,0c7.12-1.34,13.43.51,19.15,4.77a12.07,12.07,0,0,1,1,1Z" transform="translate(174.05 614.82)"/><path class="cls-61" d="M140.5-481.24a26.07,26.07,0,0,0,.05,7.49c1.93,2,.94,4.48,1.15,6.32,4.19-4.87,7.58-10.88,13.33-14.81,3.19,0,6.38-.08,9.58-0.09a0.87,0.87,0,0,1,.67,1.36q-0.82,1.17-1.73,2.28l-22.47,27.44a11.56,11.56,0,0,1-3.1,3,4,4,0,0,1-6.09-3,17.22,17.22,0,0,1-.13-2.39q0-13.42,0-26.84A9.57,9.57,0,0,1,132-482c1.14-1,2.46-.34,3.66-0.39a20.54,20.54,0,0,1,3.79.23A3,3,0,0,1,140.5-481.24Z" transform="translate(174.05 614.82)"/><path class="cls-62" d="M155-482.24c-4.3,5.83-9.19,11.17-13.68,16.79-1.4-.74-1-1.78-1-2.63a23.1,23.1,0,0,1,0-2.85c0-.94.16-1.88,0.25-2.82,5.17-2.73,10.65-8.6,12.52-13.43,5.15,0,10.31-.19,16,0.18-1.33,2.24-2.57,3.64-4.93,3.63s-4.42,0-6.64,0A2.44,2.44,0,0,0,155-482.24Z" transform="translate(174.05 614.82)"/><path class="cls-34" d="M182-484.55a2.18,2.18,0,0,1,1.71,1.25h-0.43l-0.43,0Z" transform="translate(174.05 614.82)"/><path class="cls-32" d="M205.9-447.75a2.56,2.56,0,0,1,2.32.73A2.14,2.14,0,0,1,205.9-447.75Z" transform="translate(174.05 614.82)"/><path class="cls-32" d="M203-448.93a2.62,2.62,0,0,1,2.16,1A1.84,1.84,0,0,1,203-448.93Z" transform="translate(174.05 614.82)"/><path class="cls-34" d="M185.81-481.63a4.79,4.79,0,0,1,2.83,2.09A2.58,2.58,0,0,1,185.81-481.63Z" transform="translate(174.05 614.82)"/><path class="cls-34" d="M184.78-482.44a1.18,1.18,0,0,1,1.12.9A1.39,1.39,0,0,1,184.78-482.44Z" transform="translate(174.05 614.82)"/><path class="cls-34" d="M183.76-483.25a1.06,1.06,0,0,1,1,.83Z" transform="translate(174.05 614.82)"/><path class="cls-34" d="M188.61-479.55a1.17,1.17,0,0,1,1.13.89A1.39,1.39,0,0,1,188.61-479.55Z" transform="translate(174.05 614.82)"/><path class="cls-33" d="M227.94-482.36a1.21,1.21,0,0,1-1-1Z" transform="translate(174.05 614.82)"/><path class="cls-32" d="M233.63-470.76a3.44,3.44,0,0,1-.9-3C233.92-473,233.71-471.87,233.63-470.76Z" transform="translate(174.05 614.82)"/><path class="cls-63" d="M212.59-284.59a12,12,0,0,1-1.34,2.5c-3.77,4.24-7.6,8.41-11.42,12.6a3.33,3.33,0,0,1-2.51,1.15q0-9.59-.08-19.18c-0.48-.58-1.39-0.36-1.85-1a34.18,34.18,0,0,1-7.81-5.69,52,52,0,0,0,6.9-3c1.88,0.52,3.24,1.9,4.75,3C203.68-291,208.44-288.22,212.59-284.59Z" transform="translate(174.05 614.82)"/><path class="cls-64" d="M194.47-297.21c-0.26.4-.51,0.8-0.79,1.19-1.55,2.22-3.55,3-6.11,1.83l0,0a1.52,1.52,0,0,0-1.17-.87l0.11,0.09c-0.23-.91-1.31-0.62-1.75-1.23-5.2-3.06-9.86-6.9-14.73-10.43-2.55-1.85-5.34-3.41-7.45-5.83,0.31,0,.62,0,0.92.05,2.2,0.29,2.45.09,3.2-1.51,0.45-1,0-1.81,0-2.71a27.25,27.25,0,0,1,2.45,1.36Q178.08-309,187-302.8a21.11,21.11,0,0,1,1.75,1.53c0.26,0.9,1.28.71,1.79,1.26l0,0a2.2,2.2,0,0,0,1.13.83l-0.08-.07c0.3,0.8,1.31.57,1.74,1.18l0.07,0a4.27,4.27,0,0,0,1.09.81h0Z" transform="translate(174.05 614.82)"/><path class="cls-64" d="M158.81-315.34a2.48,2.48,0,0,1,2.79,2.12A4.55,4.55,0,0,1,158.81-315.34Z" transform="translate(174.05 614.82)"/><path class="cls-63" d="M184.79-296.17a1.55,1.55,0,0,1,1.75,1.23A2.1,2.1,0,0,1,184.79-296.17Z" transform="translate(174.05 614.82)"/><path class="cls-64" d="M155-318.23A1.54,1.54,0,0,1,156.8-317,2.49,2.49,0,0,1,155-318.23Z" transform="translate(174.05 614.82)"/><path class="cls-44" d="M195.38-288.5a1.93,1.93,0,0,1,1.85,1H196.3Z" transform="translate(174.05 614.82)"/><path class="cls-64" d="M161.51-313.3a1.25,1.25,0,0,1,1.14.88A1.13,1.13,0,0,1,161.51-313.3Z" transform="translate(174.05 614.82)"/><path class="cls-64" d="M157.74-316.24a1.35,1.35,0,0,1,1.08.91A1.09,1.09,0,0,1,157.74-316.24Z" transform="translate(174.05 614.82)"/><path class="cls-64" d="M156.7-317.13a1.22,1.22,0,0,1,1.12,1A1.2,1.2,0,0,1,156.7-317.13Z" transform="translate(174.05 614.82)"/><path class="cls-63" d="M186.44-295a1.23,1.23,0,0,1,1.17.87A1.16,1.16,0,0,1,186.44-295Z" transform="translate(174.05 614.82)"/><path class="cls-64" d="M165.64-317.35a2.52,2.52,0,0,1-2.88-2A4.62,4.62,0,0,1,165.64-317.35Z" transform="translate(174.05 614.82)"/><path class="cls-63" d="M193.31-298.05a1.61,1.61,0,0,1-1.74-1.18A2,2,0,0,1,193.31-298.05Z" transform="translate(174.05 614.82)"/><path class="cls-63" d="M190.5-300a1.56,1.56,0,0,1-1.79-1.26A2.27,2.27,0,0,1,190.5-300Z" transform="translate(174.05 614.82)"/><path class="cls-28" d="M201.15-308.67a1.59,1.59,0,0,1,1.73,1.23A2.09,2.09,0,0,1,201.15-308.67Z" transform="translate(174.05 614.82)"/><path class="cls-64" d="M161.66-320.15a1.61,1.61,0,0,1-1.77-1.23A2.18,2.18,0,0,1,161.66-320.15Z" transform="translate(174.05 614.82)"/><path class="cls-63" d="M194.48-297.19a1.3,1.3,0,0,1-1.09-.81A1,1,0,0,1,194.48-297.19Z" transform="translate(174.05 614.82)"/><path class="cls-63" d="M191.66-299.16a1.31,1.31,0,0,1-1.13-.83A1.09,1.09,0,0,1,191.66-299.16Z" transform="translate(174.05 614.82)"/><path class="cls-28" d="M200-309.54l1.09,0.84A1.06,1.06,0,0,1,200-309.54Z" transform="translate(174.05 614.82)"/><path class="cls-28" d="M198.76-310.43a1.47,1.47,0,0,1,1.32.94A1.48,1.48,0,0,1,198.76-310.43Z" transform="translate(174.05 614.82)"/><path class="cls-64" d="M166.78-316.53a1.16,1.16,0,0,1-1.18-.83A1.15,1.15,0,0,1,166.78-316.53Z" transform="translate(174.05 614.82)"/><path class="cls-64" d="M162.83-319.3l-1.11-.81A1,1,0,0,1,162.83-319.3Z" transform="translate(174.05 614.82)"/><path class="cls-30" d="M-93.51-255.86c-6.8.45-13.62-6.24-13.52-13.39a13.88,13.88,0,0,1,13.92-13.58c7.4,0.19,13,6.18,13.16,13.76C-79.84-263.33-85-255.51-93.51-255.86Z" transform="translate(174.05 614.82)"/><path class="cls-65" d="M-116.68-257.76c-9.2-13.42-3.81-31.24,11.15-36.73,4.11-1.51,8.36-2.23,12.67-1.1,1.37,0.36,3.34-.48,4,1.62-1.32.7-2.72,0.24-4.08,0.3-7.46.36-13.43,3.76-18.23,9.26-5.94,6.81-7,14.79-5.15,23.37,0.24,1.09.56,2.16,0.85,3.24A0.76,0.76,0,0,1-116.68-257.76Z" transform="translate(174.05 614.82)"/><path class="cls-49" d="M-48.52-274.08a4.27,4.27,0,0,1,0,5.75Z" transform="translate(174.05 614.82)"/><path class="cls-66" d="M-114.74-256.84a4.56,4.56,0,0,1,.55.67c0.21,0.38.4,0.84-.08,1.13a1,1,0,0,1-.76-0.2,2.88,2.88,0,0,1-.53-0.66A1.46,1.46,0,0,1-114.74-256.84Z" transform="translate(174.05 614.82)"/><path class="cls-67" d="M-114.74-256.84l-0.82.94a2.78,2.78,0,0,1-1.12-1.86l1.26-.05A0.87,0.87,0,0,1-114.74-256.84Z" transform="translate(174.05 614.82)"/><path class="cls-48" d="M-96.43-227.07c-1.32-.76-1-2-0.94-3.18A4.4,4.4,0,0,1-96.43-227.07Z" transform="translate(174.05 614.82)"/><path class="cls-48" d="M-95.4-225.18a1.65,1.65,0,0,1-1.06-2A2.6,2.6,0,0,1-95.4-225.18Z" transform="translate(174.05 614.82)"/><path class="cls-49" d="M-48.54-268.37l-0.91,1Z" transform="translate(174.05 614.82)"/><path class="cls-68" d="M-25.71-314.78a9.46,9.46,0,0,1-9.3,9.11,9.22,9.22,0,0,1-9.3-9.54,9.53,9.53,0,0,1,9.52-8.92C-29.81-323.87-25.6-319.67-25.71-314.78Z" transform="translate(174.05 614.82)"/><path class="cls-69" d="M-51.29-307.8A17.86,17.86,0,0,1-53.53-316a15.53,15.53,0,0,1,6.65-13.57c4.46-3.2,9.45-4.18,14.88-1.73-1,.85-1.93.57-2.81,0.6-7.84.3-16.17,8-15.74,16.72,0.09,1.74.22,3.48,0.33,5.23C-50-307.79-50.39-307.49-51.29-307.8Z" transform="translate(174.05 614.82)"/><path class="cls-70" d="M-51.29-307.8l1.07-.93a5.54,5.54,0,0,1,.73,1.09,0.84,0.84,0,0,1-.38,1.16A1.66,1.66,0,0,1-51-307,1.89,1.89,0,0,1-51.29-307.8Z" transform="translate(174.05 614.82)"/><path class="cls-71" d="M1368.06-201.49a41.33,41.33,0,0,1-8.94,0c0.13-3,1.09-5.6,4.09-11C1365.22-210.43,1367.66-204.95,1368.06-201.49Z" transform="translate(174.05 614.82)"/><path class="cls-72" d="M219.52-467.8c0.15,4.21-3.18,7.09-7.29,7.16-3.71.06-6.64-3.31-6.61-7.31a6.76,6.76,0,0,1,7-6.85A6.87,6.87,0,0,1,219.52-467.8Z" transform="translate(174.05 614.82)"/></svg>