<svg xmlns="http://www.w3.org/2000/svg" viewBox="0 0 169.7 121.44"><defs><style>.cls-1{fill:#001e58;}.cls-2{fill:#d0cbd9;}.cls-3{fill:#f6c508;}</style></defs><title>Recurso 9</title><g id="Capa_2" data-name="Capa 2"><g id="Capa_1-2" data-name="Capa 1"><polygon class="cls-1" points="32.18 75.66 46.2 75.66 46.2 0 32.18 12.73 32.18 75.66"/><polygon class="cls-2" points="46.2 75.66 60.21 75.66 60.21 12.73 46.2 0 46.2 75.66"/><path class="cls-1" d="M6.68,99.47v21.74H0V99.47Z"/><path class="cls-1" d="M41.43,99.47v21.74H30.89L17.81,104.88v16.33H11.54V99.47H22.08l13.08,16.3V99.47Z"/><path class="cls-1" d="M66.27,117.27H52.44l-2.12,3.94H43.06L55,99.47H63.8l11.68,21.74H68.29Zm-2.38-4.5-4.56-8.61-4.62,8.61Z"/><path class="cls-1" d="M84.3,115.6v5.61H77.84V99.47H97.38a12.39,12.39,0,0,1,3.29.37,5,5,0,0,1,2.17,1.19,4.63,4.63,0,0,1,1.2,2.12,12.12,12.12,0,0,1,.36,3.19,12.69,12.69,0,0,1-.3,3.1,4.27,4.27,0,0,1-.88,1.79,3.63,3.63,0,0,1-1.43,1q-.85.33-1.92.65.88.2,1.67.34a3.34,3.34,0,0,1,1.37.57,2.79,2.79,0,0,1,.91,1.22,6.25,6.25,0,0,1,.33,2.3v3.91H97.69v-2.87a3.22,3.22,0,0,0-.55-2.07,2.83,2.83,0,0,0-2.22-.67Zm0-5.28h9.61l.41,0,.41,0a9.46,9.46,0,0,0,1.78-.13,1.83,1.83,0,0,0,1-.47,1.6,1.6,0,0,0,.41-.93,11.72,11.72,0,0,0,.08-1.5,4.42,4.42,0,0,0-.17-1.39,1.5,1.5,0,0,0-.58-.78,2.37,2.37,0,0,0-1.1-.34q-.69-.06-1.73-.06H84.3Z"/><path class="cls-1" d="M129.77,107.13a3.79,3.79,0,0,0-.3-1.53,1.56,1.56,0,0,0-1-.75,7.57,7.57,0,0,0-2.06-.24l-3.52,0q-2.48,0-4,0a5.9,5.9,0,0,0-2.38.47,2.2,2.2,0,0,0-1.16,1.42,10.67,10.67,0,0,0-.3,2.88,35.69,35.69,0,0,0,.15,3.73,2.88,2.88,0,0,0,.89,2,3.93,3.93,0,0,0,2.29.75q1.55.11,4.32.11h3.47a7.39,7.39,0,0,0,2.19-.26,1.91,1.91,0,0,0,1.16-.9,4.1,4.1,0,0,0,.35-1.91h6.6c0,.17,0,.33,0,.47s0,.3,0,.47a17.83,17.83,0,0,1-.21,2.93,6.16,6.16,0,0,1-.74,2.15,4,4,0,0,1-1.42,1.4A5.39,5.39,0,0,1,132,121q-2.15.23-4,.34t-3.48.11q-5.18,0-9.67-.29a7.1,7.1,0,0,1-3-.75,5.1,5.1,0,0,1-2-1.91,9.29,9.29,0,0,1-1.11-3.15,25.53,25.53,0,0,1-.35-4.53q0-1.66,0-3a16,16,0,0,1,.25-2.54,8.87,8.87,0,0,1,.66-2.12,5.71,5.71,0,0,1,1.27-1.74,5.77,5.77,0,0,1,1.93-1.21,11.47,11.47,0,0,1,2.59-.62,32.42,32.42,0,0,1,3.37-.24q1.88,0,4.23,0,4.06,0,6.68.16a11.08,11.08,0,0,1,4.14.91,4.14,4.14,0,0,1,2.11,2.35,13.75,13.75,0,0,1,.63,4.47Z"/><path class="cls-1" d="M139.88,112.41q0-3.1.08-5.33a12.88,12.88,0,0,1,.62-3.77,5.14,5.14,0,0,1,1.69-2.43,7.62,7.62,0,0,1,3.31-1.29,38.76,38.76,0,0,1,5.33-.31q3.86,0,10.12,0a15.47,15.47,0,0,1,3.55.36,6.86,6.86,0,0,1,2.53,1.12,5.27,5.27,0,0,1,1.61,2,10,10,0,0,1,.82,3,19.13,19.13,0,0,1,.15,2.38q0,1.47,0,3.42a23.41,23.41,0,0,1-.29,4,7.42,7.42,0,0,1-1,2.75,5,5,0,0,1-1.91,1.73,10.29,10.29,0,0,1-3,.93,31.33,31.33,0,0,1-4.22.39q-2.43.08-5.66.08-3.65,0-6.26-.21a10.83,10.83,0,0,1-4.27-1.11,5.41,5.41,0,0,1-2.44-2.71A12.92,12.92,0,0,1,139.88,112.41Zm6.75-3q0,1.66,0,2.8a8.39,8.39,0,0,0,.26,1.89,2.33,2.33,0,0,0,.65,1.14,2.87,2.87,0,0,0,1.24.59,9.6,9.6,0,0,0,2,.23q1.19,0,2.88,0,3.39,0,5.28-.08a5.93,5.93,0,0,0,2.79-.64,2.43,2.43,0,0,0,1.09-1.81,24.79,24.79,0,0,0,.2-3.57,19.45,19.45,0,0,0-.18-3,2.74,2.74,0,0,0-.77-1.63,3,3,0,0,0-1.73-.67,28.06,28.06,0,0,0-3-.13h-5.54a10.15,10.15,0,0,0-3.26.41,2.41,2.41,0,0,0-1.53,1.42A8.76,8.76,0,0,0,146.63,109.41Z"/><path class="cls-1" d="M86.52,84.41c0-.66-.23-1.22-1-1.22-1.07,0-1.08,1.52-1.08,2.25s0,2.44,1.08,2.44c.73,0,.89-.6,1-1.21,0-.13,0-.25,0-.38h.61c0,.11,0,.23,0,.34a2.13,2.13,0,0,1-.33,1.18,1.41,1.41,0,0,1-1.21.62c-1.71,0-1.77-1.65-1.77-3s.19-2.83,1.77-2.83a1.55,1.55,0,0,1,1.57,1.78Z"/><path class="cls-1" d="M92.3,82.63c1.62,0,1.83,1.5,1.82,2.77,0,1.54-.21,3-1.83,3s-1.82-1.49-1.83-3C90.45,84.13,90.64,82.63,92.3,82.63Zm0,.56c-.95,0-1.19,1-1.18,2.23,0,1.61.17,2.46,1.19,2.46s1.19-.85,1.19-2.46C93.48,84.18,93.25,83.18,92.27,83.18Z"/><path class="cls-1" d="M100.37,82.74H101V88.3h-1l-1.56-4.45a4.53,4.53,0,0,1-.21-.84h0c0,.28,0,.57,0,.85V88.3H97.6V82.74h1l1.58,4.55c.07.17.12.35.19.61h0c0-.2,0-.42,0-.62Z"/><path class="cls-1" d="M107,84.2a.85.85,0,0,0-.88-1c-.9,0-1,.56-1,1a.73.73,0,0,0,.53.76l.88.33c1.05.39,1.25.76,1.25,1.5a1.56,1.56,0,0,1-1.73,1.67,1.52,1.52,0,0,1-1.52-.88,3.12,3.12,0,0,1-.12-1H105c0,.82.13,1.34,1.05,1.34a.93.93,0,0,0,1.06-1c0-.85-.34-.85-.9-1.07-.3-.12-.79-.27-1.09-.43a1.24,1.24,0,0,1-.66-1.26A1.46,1.46,0,0,1,106,82.63c1,0,1.64.53,1.58,1.57Z"/><path class="cls-1" d="M110.76,82.74h3.49v.56h-1.44v5h-.62v-5h-1.44Z"/><path class="cls-1" d="M118.1,88.3h-.62V82.74h1.43c1.16,0,1.91.3,1.87,1.59a1.19,1.19,0,0,1-1.07,1.21h0c.72.07.9.3,1,1,0,.42.06.82.12,1.24,0,.1.07.35.21.35v.13h-.72a5.07,5.07,0,0,1-.19-1.42c0-.56-.22-1-.95-1H118.1Zm0-3h1a1,1,0,0,0,1.08-1c0-1-.76-1-1.18-1h-.87Z"/><path class="cls-1" d="M124.46,82.74h.62v4c0,.44.07,1.14,1.05,1.14s1.06-.7,1.05-1.14v-4h.61V87c0,1-.66,1.48-1.67,1.48S124.46,88,124.46,87Z"/><path class="cls-1" d="M134,84.41c0-.66-.23-1.22-1-1.22-1.07,0-1.08,1.52-1.08,2.25s0,2.44,1.08,2.44c.73,0,.89-.6,1-1.21,0-.13,0-.25,0-.38h.62c0,.11,0,.23,0,.34a2.14,2.14,0,0,1-.33,1.18,1.4,1.4,0,0,1-1.21.62c-1.71,0-1.77-1.65-1.77-3s.19-2.83,1.77-2.83a1.56,1.56,0,0,1,1.57,1.78Z"/><path class="cls-1" d="M137.6,82.74h3.49v.56h-1.44v5H139v-5H137.6Z"/><path class="cls-1" d="M146,82.63c1.62,0,1.82,1.5,1.82,2.77,0,1.54-.21,3-1.83,3s-1.82-1.49-1.83-3C144.11,84.13,144.31,82.63,146,82.63Zm0,.56c-.95,0-1.19,1-1.18,2.23,0,1.61.17,2.46,1.19,2.46s1.19-.85,1.19-2.46C147.15,84.18,146.91,83.18,145.93,83.18Z"/><path class="cls-1" d="M151.95,88.3h-.62V82.74h1.43c1.16,0,1.91.3,1.87,1.59a1.19,1.19,0,0,1-1.07,1.21h0c.72.07.9.3,1,1,0,.42.06.82.12,1.24,0,.1.07.35.22.35v.13h-.72a5.12,5.12,0,0,1-.19-1.42c0-.56-.22-1-.95-1h-1.08Zm0-3h1a1,1,0,0,0,1.08-1c0-1-.76-1-1.18-1h-.87Z"/><path class="cls-1" d="M159.38,82.74h.82l1.57,5.56h-.68l-.44-1.6h-1.76l-.41,1.6h-.68Zm.4.45h0l-.73,3h1.47Z"/><path class="cls-3" d="M58.8,64.54q-4.61,4.26-9.5,8.21a5.33,5.33,0,0,1-3,1.19,6.08,6.08,0,0,1-3.54-1.58c-3-2.49-6-5-8.83-7.65C31.36,62.31,23.74,55,23.74,55a4.76,4.76,0,0,1,0-7.17c2-2,6.58-6.6,6.58-6.6s0-.16,0-.67c0-6.63,0-13.27,0-19.9,0-.19,0-.47,0-.73l-.5.41A217.93,217.93,0,0,0,6.16,43.51,12,12,0,0,0,6.26,59.1c2.16,2.44,4.35,4.86,6.61,7.21a223.37,223.37,0,0,0,25.8,23,12.06,12.06,0,0,0,15.17,0A223.72,223.72,0,0,0,85.62,59.87c.56-.63,1.11-1.23.71-2.13s-1.25-.87-2.08-.87q-7.44,0-14.89,0a5.25,5.25,0,0,0-4,1.65S60.44,63,58.8,64.54Z"/></g></g></svg>