<svg xmlns="http://www.w3.org/2000/svg" viewBox="0 0 272.33 70.08"><defs><style>.cls-1{fill:#006090;}</style></defs><title>kemsa</title><g id="Capa_2" data-name="Capa 2"><g id="Capa_1-2" data-name="Capa 1"><path class="cls-1" d="M88.56.14c-3.46,12.72-7,25.34-10.3,38-2.2,8.34-4.31,16.7-6.73,25A10.17,10.17,0,0,1,62,70c-20.21,0-40.42,0-60.62,0-1.32,0-1.63-.27-1.27-1.62q5.54-20.32,11-40.67c1.85-6.85,3.6-13.73,5.56-20.55A9.71,9.71,0,0,1,26.07.07c20.66-.12,41.32,0,62,0A3.39,3.39,0,0,1,88.56.14ZM74,11.54H70.07a1.25,1.25,0,0,0-.81.3q-5.82,4.64-11.66,9.24c-4.2,3.32-8.44,6.6-12.6,10a20.54,20.54,0,0,0-3.79,3.25c1.33,0,2.44,0,3.54,0a1.94,1.94,0,0,1,1.84.89c1.65,2.18,3.53,4.19,5.28,6.3,2.25,2.71,4.46,5.46,6.71,8.17,1.3,1.56,2.64,3.07,4,4.63C66.38,40,70.16,25.89,74,11.54Zm-25.12,47c-3.6-4.25-7-8.25-10.41-12.29-2.27-2.7-4.55-5.4-6.67-8.21a4.83,4.83,0,0,0-4.91-2.26,25.2,25.2,0,0,1-5,0A1.55,1.55,0,0,0,20,37.15c-1,4.21-2.19,8.39-3.31,12.58-.77,2.91-1.56,5.81-2.36,8.78ZM20.52,35.33,50.69,11.54c-7.63,0-14.94,0-22.25,0-1.39,0-1.8.56-2.09,1.7-1,4-2.13,8-3.19,12C22.3,28.47,21.45,31.75,20.52,35.33Z"/><path class="cls-1" d="M162.56,51.87,165.74,40c1.65-6.14,3.33-12.27,4.94-18.42.64-2.44,1.65-3.32,4.14-3.32,3,0,6,.05,8.94,0,1.15,0,1.54.23,1.52,1.47-.07,5.5,0,11,0,16.52,0,.52-.23,1.11.36,1.64,1.26-1.23,1.75-2.92,2.6-4.37,2.46-4.23,4.73-8.57,7-12.89a3.91,3.91,0,0,1,3.79-2.36c3.28.06,6.57,0,9.85,0,.85,0,1.35-.12,1,1.19-2.58,9.3-5,18.65-7.53,28-.36,1.32-.37,2.77-1.61,3.73a2.86,2.86,0,0,1-1.88.77c-2.27,0-4.55,0-6.82,0-1,0-1-.24-.76-1.09,1.32-4.8,2.57-9.62,3.84-14.43.08-.33.1-.67.21-1.36-1.88,2.68-3,5.36-4.51,7.86-1.34,2.25-2.48,4.62-3.77,6.9a3.66,3.66,0,0,1-3.61,2.11,35.28,35.28,0,0,0-4.24,0c-1,.06-1.28-.3-1.25-1.27.16-5.38-.62-10.75-.51-16.19-.73,2.79-1.45,5.58-2.2,8.36-.58,2.13-1.17,4.27-1.82,6.39a3.3,3.3,0,0,1-3.61,2.69Z"/><path class="cls-1" d="M108.73,28.22a22.2,22.2,0,0,0,4-3.18c2.53-2.11,5-4.32,7.44-6.51a1.48,1.48,0,0,1,1.11-.32c3.84,0,7.68,0,11.52,0,.27,0,.67-.17.8.19s-.29.51-.55.73c-2.58,2.2-5.13,4.44-7.7,6.66-1.93,1.65-3.86,3.3-5.82,4.92a1.51,1.51,0,0,0-.6,2q3,7.56,5.8,15.19c1,2.72.1,4-2.77,4-2.68,0-5.35,0-8,0a1.34,1.34,0,0,1-1.59-1.12c-1-3.16-2.17-6.25-3.14-9.4-.35-1.12-.62-1.26-1.42-.43a14.27,14.27,0,0,1-2.14,1.88c-1.75,1.26-1.7,3.4-2.21,5.2-.93,3.27-1.52,3.86-4.83,3.86-2.12,0-4.24,0-6.36,0-.93,0-1.13-.29-.89-1.16Q95.22,36.55,99,22.34c.16-.57.22-1.17.42-1.73a3.81,3.81,0,0,1,3.41-2.45c2.41.17,4.85.08,7.27,0,1,0,1.28.25,1,1.32C110.24,22.32,109.54,25.19,108.73,28.22Z"/><path class="cls-1" d="M146.81,30.64c4.14,0,8.08,0,12,0,1.27,0,1.92.08,1.31,1.62-.51,1.27-.64,2.68-1,4-.56,1.85-1.66,2.58-3.66,2.59-3.19,0-6.37,0-9.55,0-1,0-1.5.23-1.58,1.27a8.64,8.64,0,0,1-.68,2.41c-.51,1.3.16,1.2,1,1.19,4.65,0,9.29,0,13.94,0,1.38,0,1.8.24,1.26,1.66-.47,1.24-.63,2.59-1,3.87a3.56,3.56,0,0,1-3.35,2.68H130.32a4,4,0,0,1-.54-.09q2.4-8.87,4.79-17.67c1.22-4.52,2.42-9,3.69-13.55a2.94,2.94,0,0,1,3.2-2.34c7.93,0,15.86,0,23.8,0,1.05,0,1.25.23.89,1.22-.4,1.16-.63,2.38-.93,3.58-.58,2.37-1.89,3.4-4.36,3.4-3.84,0-7.68,0-11.52,0-1,0-1.58.19-1.74,1.29A26.54,26.54,0,0,1,146.81,30.64Z"/><path class="cls-1" d="M213.71,41c1,0,1.92,0,2.88,0,1.25-.07,2.46-.22,2.56,1.6,0,.56.51.92,1.06,1.17a5.73,5.73,0,0,0,6.15-.62c1.21-.9,1.14-2-.17-2.74-1.79-1-3.85-1.19-5.76-1.82A19.65,19.65,0,0,1,215,36.29a6.45,6.45,0,0,1-2.71-6.63c1.34-6.87,6.66-10.28,13.08-11.17a21.19,21.19,0,0,1,9,.34c4.55,1.34,6.24,4.48,6.05,9.05,0,.57-.32.64-.77.64h-8.79c-.28,0-.66.11-.72-.33-.36-2.52-2.27-2.39-4.08-2.37a5.17,5.17,0,0,0-1.58.36,1.77,1.77,0,0,0-1.33,1.77c0,.79.63,1.19,1.3,1.48,2.54,1.11,5.32,1.44,7.9,2.44s5,2,5.6,5a10,10,0,0,1-1.67,7.73c-2.82,4.25-7,6.3-12,7a24.39,24.39,0,0,1-8.35,0c-4.77-.95-8.11-4-7.72-9.47.06-.84.36-1.16,1.19-1.14C210.88,41,212.3,41,213.71,41Z"/><path class="cls-1" d="M236.94,51.87l8.34-13.28c3.91-6.23,7.86-12.44,11.74-18.69A3.28,3.28,0,0,1,260,18.22c2.82,0,5.65,0,8.48,0,.82,0,1.07.19,1.14,1.07.33,4,.8,7.92,1.16,11.88.26,2.78.38,5.57.64,8.35s.59,5.43.86,8.15a6.59,6.59,0,0,1,0,2.26c-.26,1.11-.82,2-2.23,2-2-.05-4-.06-6.06,0-.88,0-1.19-.27-1.07-1.11.06-.46-.29-1-.23-1.29.34-2.13-1-1.89-2.35-1.87-3,0-6.07.13-9.09,0A2.9,2.9,0,0,0,248,49.42a3.84,3.84,0,0,1-4.15,2.48C241.67,51.76,239.45,51.87,236.94,51.87Zm16.83-11.53H261c.48,0,1.05.14.92-.73-.47-3-.68-6.12-.88-9.19,0-.31.22-.79-.25-.91s-.51.32-.7.62c-.9,1.48-1.85,2.92-2.76,4.39C256.18,36.39,255,38.28,253.77,40.34Z"/></g></g></svg>